<?xml version="1.0" encoding="utf-8"?>
<!-- Generator: Adobe Illustrator 25.1.0, SVG Export Plug-In . SVG Version: 6.00 Build 0)  -->
<svg version="1.1" id="Layer_1" xmlns="http://www.w3.org/2000/svg" xmlns:xlink="http://www.w3.org/1999/xlink" x="0px" y="0px"
	 viewBox="0 0 60 30" style="enable-background:new 0 0 60 30;" xml:space="preserve">
<style type="text/css">
	.st0{fill:#FFDB28;}
	.st1{fill:#5CB1B5;}
	.st2{fill-rule:evenodd;clip-rule:evenodd;fill:none;}
</style>
<rect id="Rectangle_11" x="95.4" y="56.3" class="st0" width="5.8" height="5.1"/>
<rect id="Rectangle_12" x="95.4" y="63.3" class="st1" width="5.8" height="5.1"/>
<g>
	<rect class="st2" width="30" height="30"/>
	<path class="st1" d="M16.2,22.2c-0.4,0-0.8-0.1-1.1-0.4L8.4,15l6.7-6.7c0.6-0.6,1.5-0.6,2.1,0c0.6,0.6,0.6,1.5,0,2.1L12.7,15
		l4.6,4.6c0.6,0.6,0.6,1.5,0,2.1C17,22,16.6,22.2,16.2,22.2z"/>
	<rect x="30" class="st2" width="30" height="30"/>
	<path class="st1" d="M42.2,22.2c-0.4,0-0.8-0.1-1.1-0.4c-0.6-0.6-0.6-1.5,0-2.1l4.6-4.6l-4.6-4.6c-0.6-0.6-0.6-1.5,0-2.1
		c0.6-0.6,1.5-0.6,2.1,0L50,15l-6.7,6.7C42.9,22,42.5,22.2,42.2,22.2z"/>
</g>
</svg>
