<svg height="35" width="35" xmlns="http://www.w3.org/2000/svg"><path d="m17.5 0c-9.646 0-17.5 7.854-17.5 17.5s7.854 17.5 17.5 17.5 17.5-7.854 17.5-17.5-7.854-17.5-17.5-17.5zm0 2.692c8.19 0 14.808 6.618 14.808 14.808s-6.618 14.808-14.808 14.808-14.808-6.618-14.808-14.808 6.618-14.808 14.808-14.808zm0 6.226a1.346 1.346 0 0 0 -1.346 1.346v11.24l-4.437-4.404a1.346 1.346 0 0 0 -1.903.008 1.346 1.346 0 0 0 .007 1.904l6.73 6.678a1.346 1.346 0 0 0 1.897 0l6.73-6.678a1.346 1.346 0 0 0 .008-1.904 1.346 1.346 0 0 0 -1.903-.008l-4.437 4.402v-11.238a1.346 1.346 0 0 0 -1.346-1.346z" fill="#254f9a" stroke-linecap="round" stroke-linejoin="round" stroke-width="2.692"/></svg>