<svg enable-background="new 0 0 60 30" viewBox="0 0 60 30" xmlns="http://www.w3.org/2000/svg"><path d="m95.4 56.3h5.8v5.1h-5.8z" fill="#ffdb28"/><path d="m95.4 63.3h5.8v5.1h-5.8z" fill="#5cb1b5"/><path clip-rule="evenodd" d="m0 0h30v30h-30z" fill="none"/><path d="m16.2 22.2c-.4 0-.8-.1-1.1-.4l-6.7-6.8 6.7-6.7c.6-.6 1.5-.6 2.1 0s.6 1.5 0 2.1l-4.5 4.6 4.6 4.6c.6.6.6 1.5 0 2.1-.3.3-.7.5-1.1.5z" fill="#5cb1b5"/><path clip-rule="evenodd" d="m30 0h30v30h-30z" fill="none"/><path d="m42.2 22.2c-.4 0-.8-.1-1.1-.4-.6-.6-.6-1.5 0-2.1l4.6-4.6-4.6-4.6c-.6-.6-.6-1.5 0-2.1s1.5-.6 2.1 0l6.8 6.6-6.7 6.7c-.4.3-.8.5-1.1.5z" fill="#5cb1b5"/></svg>