<?xml version="1.0" encoding="utf-8"?>
<!-- Generator: Adobe Illustrator 25.2.0, SVG Export Plug-In . SVG Version: 6.00 Build 0)  -->
<svg version="1.1" id="Layer_1" xmlns="http://www.w3.org/2000/svg" xmlns:xlink="http://www.w3.org/1999/xlink" x="0px" y="0px"
	 viewBox="0 0 10 20" style="enable-background:new 0 0 10 20;" xml:space="preserve">
<style type="text/css">
	.st0{fill:#64B5B8;}
</style>
<path class="st0" d="M5,20l-4.8-4.8C0,15,0,14.6,0.2,14.4s0.5-0.2,0.7,0L5,18.6l4.1-4.1c0.2-0.2,0.5-0.2,0.7,0s0.2,0.5,0,0.7L5,20z"
	/>
<path class="st0" d="M0.5,5.7c-0.1,0-0.3,0-0.4-0.1C0,5.4,0,5,0.2,4.8L5,0l4.8,4.8C10,5,10,5.4,9.8,5.6s-0.5,0.2-0.7,0L5,1.4
	L0.9,5.6C0.8,5.7,0.6,5.7,0.5,5.7z"/>
</svg>
