<?xml version="1.0" encoding="utf-8"?>
<!-- Generator: Adobe Illustrator 25.2.0, SVG Export Plug-In . SVG Version: 6.00 Build 0)  -->
<svg version="1.1" id="Layer_1" xmlns="http://www.w3.org/2000/svg" xmlns:xlink="http://www.w3.org/1999/xlink" x="0px" y="0px"
	 viewBox="0 0 38.3 25.5" style="enable-background:new 0 0 38.3 25.5;" xml:space="preserve">
<style type="text/css">
	.st0{fill:#FFFFFF;}
</style>
<g>
	<path class="st0" d="M38,11.1c-0.5-4.1-2.7-7.2-6.2-9.3c-1.7-1-3.6-1.6-5.6-1.5c-2.4,0.1-4.7,0-7.1,0c-2.5,0-5.1,0-7.6,0
		c-0.3,0-0.7,0-1,0C8.2,0.8,6,1.9,4.2,3.6c-3.1,2.9-4.4,6.6-3.9,10.8C0.7,17.2,2,19.7,4,21.7c2.4,2.4,5.4,3.5,8.8,3.5
		c4.2,0,8.5,0,12.7,0c0.3,0,0.7,0,1,0c3.5-0.3,6.4-1.8,8.6-4.5C37.6,17.9,38.5,14.7,38,11.1z M31.9,18.3c-1.7,1.8-3.8,2.7-6.3,2.7
		c-1.4,0-2.7,0-4.1,0C21,21,21,21,21,20.4c0-0.4,0-0.7,0.1-1.1c0.2-1.1,1-1.8,2.1-1.8c0.9,0,1.8,0,2.7,0c2.6,0,4.7-2,4.9-4.7
		c0.2-2.4-1.8-4.7-4.3-5c-2.7-0.3-5.2,1.6-5.5,4.3c-0.1,0.7-0.1,1.4-0.1,2.1c0,0.5,0,0.5-0.5,0.5c-1.9,0-3.9,0-5.8,0
		c-1.9,0-3.9,0-5.8,0c-0.1,0-0.3,0-0.4,0.1c0,0.1,0.1,0.3,0.1,0.4c1,1.5,2.4,2.3,4.2,2.3c0.8,0,1.6,0,2.4,0c1.4,0,2.3,0.9,2.3,2.3
		c0,0.3,0,0.5,0,0.8c0,0.2-0.1,0.3-0.3,0.3c-2-0.1-4.1,0.2-6.1-0.2c-3.5-0.7-6.1-3.4-6.6-7C3.7,9.3,7,5,11.5,4.5
		c2.9-0.3,5.4,0.6,7.4,2.8c0.3,0.3,0.3,0.3,0.6,0c1.6-1.8,3.7-2.8,6.2-2.9c3.3,0,5.8,1.4,7.4,4.3C34.8,11.7,34.3,15.9,31.9,18.3z"/>
	<path class="st0" d="M15.9,9.1c-2.4-2.3-6.5-1.4-7.8,1.8c-0.2,0.4-0.1,0.5,0.3,0.5c1.4,0,2.8,0,4.2,0c1.4,0,2.8,0,4.2,0
		c0.4,0,0.5-0.1,0.3-0.5C16.9,10.2,16.4,9.6,15.9,9.1z"/>
</g>
</svg>
