<svg xmlns="http://www.w3.org/2000/svg" width="2068.522" height="1281.006" viewBox="0 0 2068.522 1281.006">
  <g id="Group_307" data-name="Group 307" transform="translate(80.894 93.328)">
    <g id="Group_300" data-name="Group 300" transform="translate(631.104 1782.273) rotate(-160)">
      <path id="Path_389" data-name="Path 389" d="M818.949,453.7c9.486,39.954-14.82,80.375-54.287,90.284s-79.151-14.446-88.632-54.4,14.822-80.375,54.285-90.284,79.151,14.45,88.634,54.4M655.715,494.683c12.182,51.306,63.142,82.585,113.824,69.862s81.9-64.637,69.726-115.943-63.139-82.587-113.826-69.862-81.9,64.635-69.724,115.943" transform="translate(52.611 0)" fill="#fecb40"/>
      <path id="Path_390" data-name="Path 390" d="M682.829,547.6s-6.618-12.943-35.631-33.421-37.215-73.54-6.474-102.093c29.1-27.025,98.184-17.688,152.789,30.3,57.249,50.313,80.1,104.065,50.371,155.351s-85.749,12.764-100.227-3.322S704.006,562,704.006,562" transform="translate(15.512 24.726)" fill="#fff"/>
      <path id="Path_391" data-name="Path 391" d="M713.583,458.945s-14.285,27.062-49.154,35.488a52.846,52.846,0,0,0-14.63,1.517c-29.552,7.42-47.584,38.4-40.274,69.2s37.192,49.75,66.743,42.328c25.735-6.457,42.711-30.785,41.85-57.3,5.286-14.956,18.253-44.891,39.43-52.516,0,0,19.006-11.9-11.719-39.817-24.121-21.919-32.246,1.1-32.246,1.1" transform="translate(0 84.398)" fill="#ffe87d"/>
    </g>
    <g id="Group_301" data-name="Group 301" transform="translate(2105.646 381.999) rotate(90)">
      <path id="Path_392" data-name="Path 392" d="M755.055,423.733c5.832,24.563-9.111,49.413-33.375,55.505a44.8,44.8,0,0,1-54.49-33.445c-5.832-24.562,9.112-49.413,33.373-55.5a44.8,44.8,0,0,1,54.491,33.445M654.7,448.928a57.537,57.537,0,0,0,69.977,42.95c31.162-7.824,50.353-39.738,42.866-71.28a57.536,57.536,0,0,0-69.979-42.95c-31.16,7.823-50.351,39.736-42.865,71.28" transform="translate(14.94 0)" fill="#fecb40"/>
      <path id="Path_393" data-name="Path 393" d="M659.1,489.64s-4.069-7.957-21.905-20.547-22.88-45.211-3.98-62.765c17.888-16.615,60.362-10.874,93.932,18.629,35.2,30.931,49.243,63.977,30.967,95.508s-52.717,7.847-61.618-2.043S672.117,498.5,672.117,498.5" transform="translate(4.405 7.022)" fill="#fff"/>
      <path id="Path_394" data-name="Path 394" d="M672.873,454.876a48.286,48.286,0,0,1-30.219,21.818,32.488,32.488,0,0,0-8.994.933c-18.168,4.561-29.254,23.609-24.76,42.542s22.865,30.585,41.032,26.023c15.822-3.97,26.258-18.926,25.729-35.224,3.249-9.195,11.221-27.6,24.241-32.286,0,0,11.685-7.319-7.2-24.479-14.829-13.476-19.824.675-19.824.675" transform="translate(0 23.967)" fill="#ffe87d"/>
    </g>
    <g id="Group_302" data-name="Group 302" transform="translate(-452.16 726.814) rotate(-74)">
      <path id="Path_395" data-name="Path 395" d="M710.924,403.033a26.216,26.216,0,0,1-18.931,31.484,25.411,25.411,0,0,1-30.908-18.971,26.217,26.217,0,0,1,18.93-31.484,25.412,25.412,0,0,1,30.909,18.971M654,417.325a32.637,32.637,0,0,0,39.693,24.363,33.671,33.671,0,0,0,24.315-40.432,32.636,32.636,0,0,0-39.694-24.362A33.67,33.67,0,0,0,654,417.325" transform="translate(-11.079 0)" fill="#fecb40"/>
      <path id="Path_396" data-name="Path 396" d="M642.706,449.607s-2.308-4.514-12.425-11.655-12.978-25.645-2.258-35.6c10.147-9.424,34.239-6.168,53.281,10.567,19.964,17.545,27.932,36.29,17.565,54.175s-29.9,4.451-34.951-1.159-13.827-11.3-13.827-11.3" transform="translate(-3.267 -5.207)" fill="#fff"/>
      <path id="Path_397" data-name="Path 397" d="M644.754,452.065a27.389,27.389,0,0,1-17.141,12.376,18.428,18.428,0,0,0-5.1.529c-10.305,2.587-16.594,13.392-14.044,24.131s12.97,17.349,23.275,14.761c8.975-2.252,14.894-10.736,14.594-19.98,1.843-5.216,6.365-15.654,13.75-18.314,0,0,6.628-4.151-4.087-13.885-8.411-7.644-11.245.383-11.245.383" transform="translate(0 -17.772)" fill="#ffe87d"/>
    </g>
    <g id="Group_303" data-name="Group 303" transform="translate(1273.025 -501.4) rotate(10)">
      <path id="Path_398" data-name="Path 398" d="M759.572,425.852c6.09,25.651-9.515,51.6-34.853,57.964a46.783,46.783,0,0,1-56.9-34.927c-6.091-25.65,9.516-51.6,34.852-57.964a46.786,46.786,0,0,1,56.905,34.927m-104.8,26.311a60.087,60.087,0,0,0,73.078,44.853c32.543-8.171,52.583-41.5,44.765-74.438a60.084,60.084,0,0,0-73.079-44.853c-32.541,8.169-52.582,41.5-44.764,74.438" transform="translate(17.604 0)" fill="#fecb40"/>
      <path id="Path_399" data-name="Path 399" d="M660.775,493.738s-4.249-8.31-22.876-21.457-23.893-47.214-4.156-65.546c18.68-17.351,63.036-11.356,98.094,19.455,36.755,32.3,51.424,66.812,32.339,99.739s-55.052,8.194-64.348-2.133-25.457-20.81-25.457-20.81" transform="translate(5.19 8.273)" fill="#fff"/>
      <path id="Path_400" data-name="Path 400" d="M675.751,455.163a50.425,50.425,0,0,1-31.558,22.784,33.926,33.926,0,0,0-9.393.974c-18.973,4.764-30.55,24.655-25.857,44.426s23.878,31.94,42.85,27.176c16.523-4.145,27.421-19.765,26.868-36.785,3.393-9.6,11.719-28.821,25.315-33.717,0,0,12.2-7.643-7.524-25.563-15.486-14.073-20.7.7-20.7.7" transform="translate(0 28.239)" fill="#ffe87d"/>
    </g>
    <g id="Group_304" data-name="Group 304" transform="translate(1605.715 969.338) rotate(143)">
      <path id="Path_401" data-name="Path 401" d="M702.44,399.054a22.371,22.371,0,0,1-16.154,26.866,21.684,21.684,0,0,1-26.375-16.189,22.372,22.372,0,0,1,16.154-26.866,21.685,21.685,0,0,1,26.376,16.189m-48.575,12.2a27.85,27.85,0,0,0,33.871,20.789,28.732,28.732,0,0,0,20.749-34.5,27.849,27.849,0,0,0-33.872-20.789,28.732,28.732,0,0,0-20.748,34.5" transform="translate(-16.081 0)" fill="#fecb40"/>
      <path id="Path_402" data-name="Path 402" d="M639.555,441.912s-1.969-3.852-10.6-9.945-11.075-21.884-1.927-30.38c8.658-8.042,29.217-5.264,45.466,9.017,17.036,14.972,23.835,30.967,14.989,46.229s-25.517,3.8-29.825-.989-11.8-9.645-11.8-9.645" transform="translate(-4.741 -7.558)" fill="#fff"/>
      <path id="Path_403" data-name="Path 403" d="M639.349,451.525a23.372,23.372,0,0,1-14.627,10.56,15.725,15.725,0,0,0-4.353.452c-8.794,2.208-14.16,11.427-11.985,20.592s11.067,14.8,19.861,12.6a16.851,16.851,0,0,0,12.453-17.05c1.573-4.451,5.432-13.358,11.733-15.628,0,0,5.656-3.542-3.487-11.849-7.178-6.523-9.6.326-9.6.326" transform="translate(0 -25.796)" fill="#ffe87d"/>
    </g>
    <g id="Group_305" data-name="Group 305" transform="translate(-98.313 341.582) rotate(-50)">
      <path id="Path_404" data-name="Path 404" d="M685.985,391.336a14.913,14.913,0,0,1-10.769,17.91,14.455,14.455,0,0,1-17.582-10.792A14.914,14.914,0,0,1,668.4,380.545a14.456,14.456,0,0,1,17.582,10.792m-32.381,8.13a18.565,18.565,0,0,0,22.579,13.859,19.153,19.153,0,0,0,13.831-23,18.565,18.565,0,0,0-22.58-13.858,19.153,19.153,0,0,0-13.831,23" transform="translate(-25.782 0)" fill="#fecb40"/>
      <path id="Path_405" data-name="Path 405" d="M633.443,426.985s-1.313-2.568-7.068-6.63-7.383-14.588-1.284-20.252c5.772-5.361,19.477-3.509,30.309,6.011,11.357,9.98,15.889,20.643,9.992,30.817s-17.01,2.532-19.882-.659a47.537,47.537,0,0,0-7.865-6.43" transform="translate(-7.602 -12.117)" fill="#fff"/>
      <path id="Path_406" data-name="Path 406" d="M628.865,450.477a15.58,15.58,0,0,1-9.751,7.04,10.483,10.483,0,0,0-2.9.3,11.339,11.339,0,0,0-7.989,13.727,10.99,10.99,0,0,0,13.24,8.4,11.233,11.233,0,0,0,8.3-11.366c1.048-2.967,3.621-8.9,7.822-10.418,0,0,3.77-2.361-2.325-7.9-4.785-4.348-6.4.218-6.4.218" transform="translate(0 -41.359)" fill="#ffe87d"/>
    </g>
    <g id="Group_306" data-name="Group 306" transform="translate(852.508 877.588) rotate(-60)">
      <path id="Path_407" data-name="Path 407" d="M852.385,469.384c11.4,48.008-17.807,96.577-65.23,108.483s-95.107-17.358-106.5-65.368,17.81-96.577,65.227-108.483,95.107,17.363,106.5,65.368m-196.14,49.243c14.638,61.648,75.87,99.232,136.769,83.945s98.413-77.667,83.781-139.315-75.866-99.235-136.771-83.945-98.41,77.664-83.779,139.315" transform="translate(72.325 0)" fill="#fecb40"/>
      <path id="Path_408" data-name="Path 408" d="M695.248,577.931s-7.953-15.552-42.814-40.158-44.717-88.364-7.779-122.673c34.962-32.473,117.976-21.254,183.588,36.411,68.79,60.455,96.244,125.042,60.524,186.667s-103.034,15.337-120.431-3.992-47.643-38.947-47.643-38.947" transform="translate(21.324 33.991)" fill="#fff"/>
      <path id="Path_409" data-name="Path 409" d="M734.887,461.074s-17.165,32.517-59.063,42.642a63.5,63.5,0,0,0-17.579,1.823c-35.509,8.915-57.176,46.143-48.392,83.146s44.689,59.778,80.2,50.861c30.923-7.758,51.32-36.991,50.286-68.845,6.351-17.971,21.932-53.94,47.378-63.1,0,0,22.837-14.3-14.081-47.843-28.983-26.338-38.746,1.318-38.746,1.318" transform="translate(0 116.021)" fill="#ffe87d"/>
    </g>
    <g id="Group_308" data-name="Group 308" transform="matrix(0.94, -0.342, 0.342, 0.94, 212.389, -171.955)">
      <path id="Path_389-2" data-name="Path 389" d="M765.931,428.834c6.454,27.183-10.083,54.684-36.934,61.425a49.576,49.576,0,0,1-60.3-37.012c-6.455-27.181,10.084-54.683,36.933-61.425a49.579,49.579,0,0,1,60.3,37.012M654.873,456.716c8.288,34.906,42.959,56.187,77.441,47.531s55.723-43.976,47.438-78.883S736.8,369.176,702.31,377.834s-55.721,43.975-47.437,78.883" transform="translate(21.352 0)" fill="#fecb40"/>
      <path id="Path_390-2" data-name="Path 390" d="M663.137,499.506s-4.5-8.806-24.242-22.738-25.32-50.033-4.4-69.46c19.8-18.387,66.8-12.034,103.951,20.616,38.95,34.23,54.495,70.8,34.27,105.694s-58.34,8.684-68.19-2.26-26.976-22.052-26.976-22.052" transform="translate(6.296 10.035)" fill="#fff"/>
      <path id="Path_391-2" data-name="Path 391" d="M679.8,455.568a53.436,53.436,0,0,1-33.443,24.145,35.955,35.955,0,0,0-9.953,1.032c-20.106,5.048-32.374,26.127-27.4,47.079s25.3,33.848,45.409,28.8c17.509-4.393,29.058-20.945,28.473-38.981,3.6-10.176,12.418-30.542,26.826-35.73,0,0,12.931-8.1-7.973-27.09-16.411-14.913-21.939.747-21.939.747" transform="translate(0 34.253)" fill="#ffe87d"/>
    </g>
    <g id="Group_309" data-name="Group 309" transform="translate(614.036 1287.847) rotate(-153)">
      <path id="Path_401-2" data-name="Path 401" d="M702.44,399.054a22.371,22.371,0,0,1-16.154,26.866,21.684,21.684,0,0,1-26.375-16.189,22.372,22.372,0,0,1,16.154-26.866,21.685,21.685,0,0,1,26.376,16.189m-48.575,12.2a27.85,27.85,0,0,0,33.871,20.789,28.732,28.732,0,0,0,20.749-34.5,27.849,27.849,0,0,0-33.872-20.789,28.732,28.732,0,0,0-20.748,34.5" transform="translate(-16.081 0)" fill="#fecb40"/>
      <path id="Path_402-2" data-name="Path 402" d="M639.555,441.912s-1.969-3.852-10.6-9.945-11.075-21.884-1.927-30.38c8.658-8.042,29.217-5.264,45.466,9.017,17.036,14.972,23.835,30.967,14.989,46.229s-25.517,3.8-29.825-.989-11.8-9.645-11.8-9.645" transform="translate(-4.741 -7.558)" fill="#fff"/>
      <path id="Path_403-2" data-name="Path 403" d="M639.349,451.525a23.372,23.372,0,0,1-14.627,10.56,15.725,15.725,0,0,0-4.353.452c-8.794,2.208-14.16,11.427-11.985,20.592s11.067,14.8,19.861,12.6a16.851,16.851,0,0,0,12.453-17.05c1.573-4.451,5.432-13.358,11.733-15.628,0,0,5.656-3.542-3.487-11.849-7.178-6.523-9.6.326-9.6.326" transform="translate(0 -25.796)" fill="#ffe87d"/>
    </g>
  </g>
</svg>
