<svg height="1281.006" viewBox="0 0 2068.522 1281.006" width="2068.522" xmlns="http://www.w3.org/2000/svg"><path d="m818.949 453.7c9.486 39.954-14.82 80.375-54.287 90.284s-79.151-14.446-88.632-54.4 14.822-80.375 54.285-90.284 79.151 14.45 88.634 54.4m-163.234 40.983c12.182 51.306 63.142 82.585 113.824 69.862s81.9-64.637 69.726-115.943-63.139-82.587-113.826-69.862-81.9 64.635-69.724 115.943" fill="#fecb40" transform="matrix(-.93969262 -.34202014 .34202014 -.93969262 662.55983156918 1857.60697841446)"/><path d="m682.829 547.6s-6.618-12.943-35.631-33.421-37.215-73.54-6.474-102.093c29.1-27.025 98.184-17.688 152.789 30.3 57.249 50.313 80.1 104.065 50.371 155.351s-85.749 12.764-100.227-3.322-39.651-32.415-39.651-32.415" fill="#fff" transform="matrix(-.93969262 -.34202014 .34202014 -.93969262 705.8782780602 1847.0607438662)"/><path d="m713.583 458.945s-14.285 27.062-49.154 35.488a52.846 52.846 0 0 0 -14.63 1.517c-29.552 7.42-47.584 38.4-40.274 69.2s37.192 49.75 66.743 42.328c25.735-6.457 42.711-30.785 41.85-57.3 5.286-14.956 18.253-44.891 39.43-52.516 0 0 19.006-11.9-11.719-39.817-24.121-21.919-32.246 1.1-32.246 1.1" fill="#ffe87d" transform="matrix(-.93969262 -.34202014 .34202014 -.93969262 740.86381577572 1796.29282225724)"/><path d="m755.055 423.733c5.832 24.563-9.111 49.413-33.375 55.505a44.8 44.8 0 0 1 -54.49-33.445c-5.832-24.562 9.112-49.413 33.373-55.5a44.8 44.8 0 0 1 54.491 33.445m-100.354 25.19a57.537 57.537 0 0 0 69.977 42.95c31.162-7.824 50.353-39.738 42.866-71.28a57.536 57.536 0 0 0 -69.979-42.95c-31.16 7.823-50.351 39.736-42.865 71.28" fill="#fecb40" transform="matrix(0 1 -1 0 2186.54 490.267)"/><path d="m659.1 489.64s-4.069-7.957-21.905-20.547-22.88-45.211-3.98-62.765c17.888-16.615 60.362-10.874 93.932 18.629 35.2 30.931 49.243 63.977 30.967 95.508s-52.717 7.847-61.618-2.043-24.379-19.922-24.379-19.922" fill="#fff" transform="matrix(0 1 -1 0 2179.518 479.732)"/><path d="m672.873 454.876a48.286 48.286 0 0 1 -30.219 21.818 32.488 32.488 0 0 0 -8.994.933c-18.168 4.561-29.254 23.609-24.76 42.542s22.865 30.585 41.032 26.023c15.822-3.97 26.258-18.926 25.729-35.224 3.249-9.195 11.221-27.6 24.241-32.286 0 0 11.685-7.319-7.2-24.479-14.829-13.476-19.824.675-19.824.675" fill="#ffe87d" transform="matrix(0 1 -1 0 2162.573 475.327)"/><path d="m710.924 403.033a26.216 26.216 0 0 1 -18.931 31.484 25.411 25.411 0 0 1 -30.908-18.971 26.217 26.217 0 0 1 18.93-31.484 25.412 25.412 0 0 1 30.909 18.971m-56.924 14.292a32.637 32.637 0 0 0 39.693 24.363 33.671 33.671 0 0 0 24.315-40.432 32.636 32.636 0 0 0 -39.694-24.362 33.67 33.67 0 0 0 -24.314 40.431" fill="#fecb40" transform="matrix(.27563736 -.9612617 .9612617 .27563736 -374.31978631144 830.7918183743)"/><path d="m642.706 449.607s-2.308-4.514-12.425-11.655-12.978-25.645-2.258-35.6c10.147-9.424 34.239-6.168 53.281 10.567 19.964 17.545 27.932 36.29 17.565 54.175s-29.9 4.451-34.951-1.159-13.827-11.3-13.827-11.3" fill="#fff" transform="matrix(.27563736 -.9612617 .9612617 .27563736 -377.17179692702 821.84719824038)"/><path d="m644.754 452.065a27.389 27.389 0 0 1 -17.141 12.376 18.428 18.428 0 0 0 -5.1.529c-10.305 2.587-16.594 13.392-14.044 24.131s12.97 17.349 23.275 14.761c8.975-2.252 14.894-10.736 14.594-19.98 1.843-5.216 6.365-15.654 13.75-18.314 0 0 6.628-4.151-4.087-13.885-8.411-7.644-11.245.383-11.245.383" fill="#ffe87d" transform="matrix(.27563736 -.9612617 .9612617 .27563736 -388.3495429324 815.24337283808)"/><path d="m759.572 425.852c6.09 25.651-9.515 51.6-34.853 57.964a46.783 46.783 0 0 1 -56.9-34.927c-6.091-25.65 9.516-51.6 34.852-57.964a46.786 46.786 0 0 1 56.905 34.927m-104.8 26.311a60.087 60.087 0 0 0 73.078 44.853c32.543-8.171 52.583-41.5 44.765-74.438a60.084 60.084 0 0 0 -73.079-44.853c-32.541 8.169-52.582 41.5-44.764 74.438" fill="#fecb40" transform="matrix(.98480775 .17364818 -.17364818 .98480775 1371.255555631 -405.01509743928)"/><path d="m660.775 493.738s-4.249-8.31-22.876-21.457-23.893-47.214-4.156-65.546c18.68-17.351 63.036-11.356 98.094 19.455 36.755 32.3 51.424 66.812 32.339 99.739s-55.052 8.194-64.348-2.133-25.457-20.81-25.457-20.81" fill="#fff" transform="matrix(.98480775 .17364818 -.17364818 .98480775 1357.59356082936 -399.02345143005)"/><path d="m675.751 455.163a50.425 50.425 0 0 1 -31.558 22.784 33.926 33.926 0 0 0 -9.393.974c-18.973 4.764-30.55 24.655-25.857 44.426s23.878 31.94 42.85 27.176c16.523-4.145 27.421-19.765 26.868-36.785 3.393-9.6 11.719-28.821 25.315-33.717 0 0 12.2-7.643-7.524-25.563-15.486-14.073-20.7.7-20.7.7" fill="#ffe87d" transform="matrix(.98480775 .17364818 -.17364818 .98480775 1349.01534904498 -380.26201394775)"/><path d="m702.44 399.054a22.371 22.371 0 0 1 -16.154 26.866 21.684 21.684 0 0 1 -26.375-16.189 22.372 22.372 0 0 1 16.154-26.866 21.685 21.685 0 0 1 26.376 16.189m-48.575 12.2a27.85 27.85 0 0 0 33.871 20.789 28.732 28.732 0 0 0 20.749-34.5 27.849 27.849 0 0 0 -33.872-20.789 28.732 28.732 0 0 0 -20.748 34.5" fill="#fecb40" transform="matrix(-.79863551 .60181502 -.60181502 -.79863551 1699.45185763631 1052.98821266338)"/><path d="m639.555 441.912s-1.969-3.852-10.6-9.945-11.075-21.884-1.927-30.38c8.658-8.042 29.217-5.264 45.466 9.017 17.036 14.972 23.835 30.967 14.989 46.229s-25.517 3.8-29.825-.989-11.8-9.645-11.8-9.645" fill="#fff" transform="matrix(-.79863551 .60181502 -.60181502 -.79863551 1694.94384887407 1065.84888217476)"/><path d="m639.349 451.525a23.372 23.372 0 0 1 -14.627 10.56 15.725 15.725 0 0 0 -4.353.452c-8.794 2.208-14.16 11.427-11.985 20.592s11.067 14.8 19.861 12.6a16.851 16.851 0 0 0 12.453-17.05c1.573-4.451 5.432-13.358 11.733-15.628 0 0 5.656-3.542-3.487-11.849-7.178-6.523-9.6.326-9.6.326" fill="#ffe87d" transform="matrix(-.79863551 .60181502 -.60181502 -.79863551 1702.13342025592 1083.26760161596)"/><path d="m685.985 391.336a14.913 14.913 0 0 1 -10.769 17.91 14.455 14.455 0 0 1 -17.582-10.792 14.914 14.914 0 0 1 10.766-17.909 14.456 14.456 0 0 1 17.582 10.792m-32.381 8.13a18.565 18.565 0 0 0 22.579 13.859 19.153 19.153 0 0 0 13.831-23 18.565 18.565 0 0 0 -22.58-13.858 19.153 19.153 0 0 0 -13.831 23" fill="#fecb40" transform="matrix(.64278761 -.76604444 .76604444 .64278761 -33.99135016102 454.66015775208)"/><path d="m633.443 426.985s-1.313-2.568-7.068-6.63-7.383-14.588-1.284-20.252c5.772-5.361 19.477-3.509 30.309 6.011 11.357 9.98 15.889 20.643 9.992 30.817s-17.01 2.532-19.882-.659a47.537 47.537 0 0 0 -7.865-6.43" fill="#fff" transform="matrix(.64278761 -.76604444 .76604444 .64278761 -31.5876318907 432.94481236251)"/><path d="m628.865 450.477a15.58 15.58 0 0 1 -9.751 7.04 10.483 10.483 0 0 0 -2.9.3 11.339 11.339 0 0 0 -7.989 13.727 10.99 10.99 0 0 0 13.24 8.4 11.233 11.233 0 0 0 8.3-11.366c1.048-2.967 3.621-8.9 7.822-10.418 0 0 3.77-2.361-2.325-7.9-4.785-4.348-6.4.218-6.4.218" fill="#ffe87d" transform="matrix(.64278761 -.76604444 .76604444 .64278761 -49.10183199396 408.32494723801)"/><path d="m702.44 399.054a22.371 22.371 0 0 1 -16.154 26.866 21.684 21.684 0 0 1 -26.375-16.189 22.372 22.372 0 0 1 16.154-26.866 21.685 21.685 0 0 1 26.376 16.189m-48.575 12.2a27.85 27.85 0 0 0 33.871 20.789 28.732 28.732 0 0 0 20.749-34.5 27.849 27.849 0 0 0 -33.872-20.789 28.732 28.732 0 0 0 -20.748 34.5" fill="#fecb40" transform="matrix(-.89100652 -.4539905 .4539905 -.89100652 709.25827584812 1388.4756212305)"/><path d="m639.555 441.912s-1.969-3.852-10.6-9.945-11.075-21.884-1.927-30.38c8.658-8.042 29.217-5.264 45.466 9.017 17.036 14.972 23.835 30.967 14.989 46.229s-25.517 3.8-29.825-.989-11.8-9.645-11.8-9.645" fill="#fff" transform="matrix(-.89100652 -.4539905 .4539905 -.89100652 695.72300171232 1390.06159623866)"/><path d="m639.349 451.525a23.372 23.372 0 0 1 -14.627 10.56 15.725 15.725 0 0 0 -4.353.452c-8.794 2.208-14.16 11.427-11.985 20.592s11.067 14.8 19.861 12.6a16.851 16.851 0 0 0 12.453-17.05c1.573-4.451 5.432-13.358 11.733-15.628 0 0 5.656-3.542-3.487-11.849-7.178-6.523-9.6.326-9.6.326" fill="#ffe87d" transform="matrix(-.89100652 -.4539905 .4539905 -.89100652 683.218861062 1404.15940418992)"/></svg>