<svg xmlns="http://www.w3.org/2000/svg" width="24.927" height="22.833" viewBox="0 0 24.927 22.833">
  <g id="home-outline" transform="translate(-31.293 -47.517)">
    <path id="Path_353" data-name="Path 353" d="M80,212v12.386a.84.84,0,0,0,.84.84h5.039v-7.138a1.26,1.26,0,0,1,1.26-1.26h4.2a1.26,1.26,0,0,1,1.26,1.26v7.138h5.039a.84.84,0,0,0,.84-.84V212" transform="translate(-45.481 -155.376)" fill="none" stroke="#fff" stroke-linecap="round" stroke-linejoin="round" stroke-width="1"/>
    <path id="Path_354" data-name="Path 354" d="M55.513,58.933,44.328,48.226a.886.886,0,0,0-1.143,0L32,58.933m19.314-4.041V48.856H48.8v3.621" fill="none" stroke="#fff" stroke-linecap="round" stroke-linejoin="round" stroke-width="1"/>
  </g>
</svg>
