<svg height="22.833" viewBox="0 0 24.927 22.833" width="24.927" xmlns="http://www.w3.org/2000/svg"><g fill="none" stroke="#fff" stroke-linecap="round" stroke-linejoin="round" transform="translate(-31.293 -47.517)"><path d="m80 212v12.386a.84.84 0 0 0 .84.84h5.039v-7.138a1.26 1.26 0 0 1 1.26-1.26h4.2a1.26 1.26 0 0 1 1.26 1.26v7.138h5.039a.84.84 0 0 0 .84-.84v-12.386" transform="translate(-45.481 -155.376)"/><path d="m55.513 58.933-11.185-10.707a.886.886 0 0 0 -1.143 0l-11.185 10.707m19.314-4.041v-6.036h-2.514v3.621"/></g></svg>