<svg xmlns="http://www.w3.org/2000/svg" width="100" height="50" viewBox="0 0 100 50">
  <g id="Group_312" data-name="Group 312" transform="translate(-9016 133)">
    <g id="Group_310" data-name="Group 310" transform="translate(7761 -904)">
      <path id="Path_134" data-name="Path 134" d="M0,0H50V50H0Z" transform="translate(1305 771)" fill="#ffdb28"/>
      <path id="chevron-forward-outline" d="M161.113,104.3a1.158,1.158,0,0,1-.822-1.978l6.142-6.142-6.142-6.147a1.159,1.159,0,0,1,1.639-1.639l6.964,6.964a1.156,1.156,0,0,1,0,1.639l-6.959,6.964A1.161,1.161,0,0,1,161.113,104.3Z" transform="translate(1165.571 699.363)" fill="#5cb1b5"/>
    </g>
    <g id="Group_311" data-name="Group 311" transform="translate(10371 688) rotate(180)">
      <path id="Path_134-2" data-name="Path 134" d="M0,0H50V50H0Z" transform="translate(1305 771)" fill="#ffdb28"/>
      <path id="chevron-forward-outline-2" data-name="chevron-forward-outline" d="M161.113,104.3a1.158,1.158,0,0,1-.822-1.978l6.142-6.142-6.142-6.147a1.159,1.159,0,0,1,1.639-1.639l6.964,6.964a1.156,1.156,0,0,1,0,1.639l-6.959,6.964A1.161,1.161,0,0,1,161.113,104.3Z" transform="translate(1165.571 699.363)" fill="#5cb1b5"/>
    </g>
  </g>
</svg>
