<svg height="50" viewBox="0 0 100 50" width="100" xmlns="http://www.w3.org/2000/svg"><path d="m0 0h50v50h-50z" fill="#ffdb28" transform="translate(50)"/><path d="m161.113 104.3a1.158 1.158 0 0 1 -.822-1.978l6.142-6.142-6.142-6.147a1.159 1.159 0 0 1 1.639-1.639l6.964 6.964a1.156 1.156 0 0 1 0 1.639l-6.959 6.964a1.161 1.161 0 0 1 -.822.339z" fill="#5cb1b5" transform="translate(-89.429 -71.637)"/><path d="m0 0h50v50h-50z" fill="#ffdb28" transform="matrix(-1 0 0 -1 50 50)"/><path d="m161.113 104.3a1.158 1.158 0 0 1 -.822-1.978l6.142-6.142-6.142-6.147a1.159 1.159 0 0 1 1.639-1.639l6.964 6.964a1.156 1.156 0 0 1 0 1.639l-6.959 6.964a1.161 1.161 0 0 1 -.822.339z" fill="#5cb1b5" transform="matrix(-1 0 0 -1 189.429 121.637)"/></svg>