<svg height="810.5" viewBox="0 0 635.134 810.5" width="635.134" xmlns="http://www.w3.org/2000/svg"><path d="m676.62 386.944a10.669 10.669 0 0 1 -7.7 12.813 10.341 10.341 0 0 1 -12.578-7.72 10.669 10.669 0 0 1 7.7-12.812 10.342 10.342 0 0 1 12.578 7.72m-23.165 5.816a13.282 13.282 0 0 0 16.153 9.914 13.7 13.7 0 0 0 9.9-16.454 13.281 13.281 0 0 0 -16.154-9.914 13.7 13.7 0 0 0 -9.895 16.454" fill="#fecb40" transform="matrix(-.78801075 .61566148 -.61566148 -.78801075 788.50210050725 -61.80205130844)"/><path d="m629.965 418.49s-.939-1.837-5.056-4.743-5.281-10.436-.919-14.488c4.129-3.835 13.934-2.51 21.683 4.3 8.124 7.14 11.367 14.768 7.148 22.046s-12.169 1.811-14.224-.472a34.009 34.009 0 0 0 -5.627-4.6" fill="#fff" transform="matrix(-.78801075 .61566148 -.61566148 -.78801075 780.16595091626 -36.6193413064)"/><path d="m622.9 449.881a11.146 11.146 0 0 1 -6.976 5.036 7.5 7.5 0 0 0 -2.076.215 8.112 8.112 0 0 0 -5.715 9.82 7.862 7.862 0 0 0 9.472 6.007 8.036 8.036 0 0 0 5.939-8.131c.75-2.122 2.59-6.371 5.6-7.453 0 0 2.7-1.689-1.663-5.651-3.423-3.111-4.576.156-4.576.156" fill="#ffe87d" transform="matrix(-.78801075 .61566148 -.61566148 -.78801075 794.75105687968 -2.959252178)"/><path d="m676.62 386.944a10.669 10.669 0 0 1 -7.7 12.813 10.341 10.341 0 0 1 -12.578-7.72 10.669 10.669 0 0 1 7.7-12.812 10.342 10.342 0 0 1 12.578 7.72m-23.165 5.816a13.282 13.282 0 0 0 16.153 9.914 13.7 13.7 0 0 0 9.9-16.454 13.281 13.281 0 0 0 -16.154-9.914 13.7 13.7 0 0 0 -9.895 16.454" fill="#fecb40" transform="matrix(-.78801075 .61566148 -.61566148 -.78801075 833.50210050725 -61.80205130844)"/><path d="m629.965 418.49s-.939-1.837-5.056-4.743-5.281-10.436-.919-14.488c4.129-3.835 13.934-2.51 21.683 4.3 8.124 7.14 11.367 14.768 7.148 22.046s-12.169 1.811-14.224-.472a34.009 34.009 0 0 0 -5.627-4.6" fill="#fff" transform="matrix(-.78801075 .61566148 -.61566148 -.78801075 825.16595091626 -36.6193413064)"/><path d="m622.9 449.881a11.146 11.146 0 0 1 -6.976 5.036 7.5 7.5 0 0 0 -2.076.215 8.112 8.112 0 0 0 -5.715 9.82 7.862 7.862 0 0 0 9.472 6.007 8.036 8.036 0 0 0 5.939-8.131c.75-2.122 2.59-6.371 5.6-7.453 0 0 2.7-1.689-1.663-5.651-3.423-3.111-4.576.156-4.576.156" fill="#ffe87d" transform="matrix(-.78801075 .61566148 -.61566148 -.78801075 839.75105687968 -2.959252178)"/><path d="m676.62 386.944a10.669 10.669 0 0 1 -7.7 12.813 10.341 10.341 0 0 1 -12.578-7.72 10.669 10.669 0 0 1 7.7-12.812 10.342 10.342 0 0 1 12.578 7.72m-23.165 5.816a13.282 13.282 0 0 0 16.153 9.914 13.7 13.7 0 0 0 9.9-16.454 13.281 13.281 0 0 0 -16.154-9.914 13.7 13.7 0 0 0 -9.895 16.454" fill="#fecb40" transform="matrix(-.78801075 .61566148 -.61566148 -.78801075 879.50210050725 -61.80205130844)"/><path d="m629.965 418.49s-.939-1.837-5.056-4.743-5.281-10.436-.919-14.488c4.129-3.835 13.934-2.51 21.683 4.3 8.124 7.14 11.367 14.768 7.148 22.046s-12.169 1.811-14.224-.472a34.009 34.009 0 0 0 -5.627-4.6" fill="#fff" transform="matrix(-.78801075 .61566148 -.61566148 -.78801075 871.16595091626 -36.6193413064)"/><path d="m622.9 449.881a11.146 11.146 0 0 1 -6.976 5.036 7.5 7.5 0 0 0 -2.076.215 8.112 8.112 0 0 0 -5.715 9.82 7.862 7.862 0 0 0 9.472 6.007 8.036 8.036 0 0 0 5.939-8.131c.75-2.122 2.59-6.371 5.6-7.453 0 0 2.7-1.689-1.663-5.651-3.423-3.111-4.576.156-4.576.156" fill="#ffe87d" transform="matrix(-.78801075 .61566148 -.61566148 -.78801075 885.75105687968 -2.959252178)"/><path d="m676.62 386.944a10.669 10.669 0 0 1 -7.7 12.813 10.341 10.341 0 0 1 -12.578-7.72 10.669 10.669 0 0 1 7.7-12.812 10.342 10.342 0 0 1 12.578 7.72m-23.165 5.816a13.282 13.282 0 0 0 16.153 9.914 13.7 13.7 0 0 0 9.9-16.454 13.281 13.281 0 0 0 -16.154-9.914 13.7 13.7 0 0 0 -9.895 16.454" fill="#fecb40" transform="matrix(-.78801075 .61566148 -.61566148 -.78801075 924.50210050725 -61.80205130844)"/><path d="m629.965 418.49s-.939-1.837-5.056-4.743-5.281-10.436-.919-14.488c4.129-3.835 13.934-2.51 21.683 4.3 8.124 7.14 11.367 14.768 7.148 22.046s-12.169 1.811-14.224-.472a34.009 34.009 0 0 0 -5.627-4.6" fill="#fff" transform="matrix(-.78801075 .61566148 -.61566148 -.78801075 916.16595091626 -36.6193413064)"/><path d="m622.9 449.881a11.146 11.146 0 0 1 -6.976 5.036 7.5 7.5 0 0 0 -2.076.215 8.112 8.112 0 0 0 -5.715 9.82 7.862 7.862 0 0 0 9.472 6.007 8.036 8.036 0 0 0 5.939-8.131c.75-2.122 2.59-6.371 5.6-7.453 0 0 2.7-1.689-1.663-5.651-3.423-3.111-4.576.156-4.576.156" fill="#ffe87d" transform="matrix(-.78801075 .61566148 -.61566148 -.78801075 930.75105687968 -2.959252178)"/><path d="m676.62 386.944a10.669 10.669 0 0 1 -7.7 12.813 10.341 10.341 0 0 1 -12.578-7.72 10.669 10.669 0 0 1 7.7-12.812 10.342 10.342 0 0 1 12.578 7.72m-23.165 5.816a13.282 13.282 0 0 0 16.153 9.914 13.7 13.7 0 0 0 9.9-16.454 13.281 13.281 0 0 0 -16.154-9.914 13.7 13.7 0 0 0 -9.895 16.454" fill="#fecb40" transform="matrix(-.78801075 .61566148 -.61566148 -.78801075 969.50210050725 -61.80205130844)"/><path d="m629.965 418.49s-.939-1.837-5.056-4.743-5.281-10.436-.919-14.488c4.129-3.835 13.934-2.51 21.683 4.3 8.124 7.14 11.367 14.768 7.148 22.046s-12.169 1.811-14.224-.472a34.009 34.009 0 0 0 -5.627-4.6" fill="#fff" transform="matrix(-.78801075 .61566148 -.61566148 -.78801075 961.16595091626 -36.6193413064)"/><path d="m622.9 449.881a11.146 11.146 0 0 1 -6.976 5.036 7.5 7.5 0 0 0 -2.076.215 8.112 8.112 0 0 0 -5.715 9.82 7.862 7.862 0 0 0 9.472 6.007 8.036 8.036 0 0 0 5.939-8.131c.75-2.122 2.59-6.371 5.6-7.453 0 0 2.7-1.689-1.663-5.651-3.423-3.111-4.576.156-4.576.156" fill="#ffe87d" transform="matrix(-.78801075 .61566148 -.61566148 -.78801075 975.75105687968 -2.959252178)"/><path d="m676.62 386.944a10.669 10.669 0 0 1 -7.7 12.813 10.341 10.341 0 0 1 -12.578-7.72 10.669 10.669 0 0 1 7.7-12.812 10.342 10.342 0 0 1 12.578 7.72m-23.165 5.816a13.282 13.282 0 0 0 16.153 9.914 13.7 13.7 0 0 0 9.9-16.454 13.281 13.281 0 0 0 -16.154-9.914 13.7 13.7 0 0 0 -9.895 16.454" fill="#fecb40" transform="matrix(-.78801075 .61566148 -.61566148 -.78801075 1015.50210050725 -61.80205130844)"/><path d="m629.965 418.49s-.939-1.837-5.056-4.743-5.281-10.436-.919-14.488c4.129-3.835 13.934-2.51 21.683 4.3 8.124 7.14 11.367 14.768 7.148 22.046s-12.169 1.811-14.224-.472a34.009 34.009 0 0 0 -5.627-4.6" fill="#fff" transform="matrix(-.78801075 .61566148 -.61566148 -.78801075 1007.16595091626 -36.6193413064)"/><path d="m622.9 449.881a11.146 11.146 0 0 1 -6.976 5.036 7.5 7.5 0 0 0 -2.076.215 8.112 8.112 0 0 0 -5.715 9.82 7.862 7.862 0 0 0 9.472 6.007 8.036 8.036 0 0 0 5.939-8.131c.75-2.122 2.59-6.371 5.6-7.453 0 0 2.7-1.689-1.663-5.651-3.423-3.111-4.576.156-4.576.156" fill="#ffe87d" transform="matrix(-.78801075 .61566148 -.61566148 -.78801075 1021.75105687968 -2.959252178)"/><path d="m676.62 386.944a10.669 10.669 0 0 1 -7.7 12.813 10.341 10.341 0 0 1 -12.578-7.72 10.669 10.669 0 0 1 7.7-12.812 10.342 10.342 0 0 1 12.578 7.72m-23.165 5.816a13.282 13.282 0 0 0 16.153 9.914 13.7 13.7 0 0 0 9.9-16.454 13.281 13.281 0 0 0 -16.154-9.914 13.7 13.7 0 0 0 -9.895 16.454" fill="#fecb40" transform="matrix(-.78801075 .61566148 -.61566148 -.78801075 1060.50210050725 -61.80205130844)"/><path d="m629.965 418.49s-.939-1.837-5.056-4.743-5.281-10.436-.919-14.488c4.129-3.835 13.934-2.51 21.683 4.3 8.124 7.14 11.367 14.768 7.148 22.046s-12.169 1.811-14.224-.472a34.009 34.009 0 0 0 -5.627-4.6" fill="#fff" transform="matrix(-.78801075 .61566148 -.61566148 -.78801075 1052.16595091626 -36.6193413064)"/><path d="m622.9 449.881a11.146 11.146 0 0 1 -6.976 5.036 7.5 7.5 0 0 0 -2.076.215 8.112 8.112 0 0 0 -5.715 9.82 7.862 7.862 0 0 0 9.472 6.007 8.036 8.036 0 0 0 5.939-8.131c.75-2.122 2.59-6.371 5.6-7.453 0 0 2.7-1.689-1.663-5.651-3.423-3.111-4.576.156-4.576.156" fill="#ffe87d" transform="matrix(-.78801075 .61566148 -.61566148 -.78801075 1066.75105687968 -2.959252178)"/><path d="m676.62 386.944a10.669 10.669 0 0 1 -7.7 12.813 10.341 10.341 0 0 1 -12.578-7.72 10.669 10.669 0 0 1 7.7-12.812 10.342 10.342 0 0 1 12.578 7.72m-23.165 5.816a13.282 13.282 0 0 0 16.153 9.914 13.7 13.7 0 0 0 9.9-16.454 13.281 13.281 0 0 0 -16.154-9.914 13.7 13.7 0 0 0 -9.895 16.454" fill="#fecb40" transform="matrix(-.78801075 .61566148 -.61566148 -.78801075 1105.50210050725 -61.80205130844)"/><path d="m629.965 418.49s-.939-1.837-5.056-4.743-5.281-10.436-.919-14.488c4.129-3.835 13.934-2.51 21.683 4.3 8.124 7.14 11.367 14.768 7.148 22.046s-12.169 1.811-14.224-.472a34.009 34.009 0 0 0 -5.627-4.6" fill="#fff" transform="matrix(-.78801075 .61566148 -.61566148 -.78801075 1097.16595091626 -36.6193413064)"/><path d="m622.9 449.881a11.146 11.146 0 0 1 -6.976 5.036 7.5 7.5 0 0 0 -2.076.215 8.112 8.112 0 0 0 -5.715 9.82 7.862 7.862 0 0 0 9.472 6.007 8.036 8.036 0 0 0 5.939-8.131c.75-2.122 2.59-6.371 5.6-7.453 0 0 2.7-1.689-1.663-5.651-3.423-3.111-4.576.156-4.576.156" fill="#ffe87d" transform="matrix(-.78801075 .61566148 -.61566148 -.78801075 1111.75105687968 -2.959252178)"/><path d="m676.62 386.944a10.669 10.669 0 0 1 -7.7 12.813 10.341 10.341 0 0 1 -12.578-7.72 10.669 10.669 0 0 1 7.7-12.812 10.342 10.342 0 0 1 12.578 7.72m-23.165 5.816a13.282 13.282 0 0 0 16.153 9.914 13.7 13.7 0 0 0 9.9-16.454 13.281 13.281 0 0 0 -16.154-9.914 13.7 13.7 0 0 0 -9.895 16.454" fill="#fecb40" transform="matrix(-.78801075 .61566148 -.61566148 -.78801075 1150.50210050725 -61.80205130844)"/><path d="m629.965 418.49s-.939-1.837-5.056-4.743-5.281-10.436-.919-14.488c4.129-3.835 13.934-2.51 21.683 4.3 8.124 7.14 11.367 14.768 7.148 22.046s-12.169 1.811-14.224-.472a34.009 34.009 0 0 0 -5.627-4.6" fill="#fff" transform="matrix(-.78801075 .61566148 -.61566148 -.78801075 1142.16595091626 -36.6193413064)"/><path d="m622.9 449.881a11.146 11.146 0 0 1 -6.976 5.036 7.5 7.5 0 0 0 -2.076.215 8.112 8.112 0 0 0 -5.715 9.82 7.862 7.862 0 0 0 9.472 6.007 8.036 8.036 0 0 0 5.939-8.131c.75-2.122 2.59-6.371 5.6-7.453 0 0 2.7-1.689-1.663-5.651-3.423-3.111-4.576.156-4.576.156" fill="#ffe87d" transform="matrix(-.78801075 .61566148 -.61566148 -.78801075 1156.75105687968 -2.959252178)"/><path d="m676.62 386.944a10.669 10.669 0 0 1 -7.7 12.813 10.341 10.341 0 0 1 -12.578-7.72 10.669 10.669 0 0 1 7.7-12.812 10.342 10.342 0 0 1 12.578 7.72m-23.165 5.816a13.282 13.282 0 0 0 16.153 9.914 13.7 13.7 0 0 0 9.9-16.454 13.281 13.281 0 0 0 -16.154-9.914 13.7 13.7 0 0 0 -9.895 16.454" fill="#fecb40" transform="matrix(-.78801075 .61566148 -.61566148 -.78801075 1196.50210050725 -61.80205130844)"/><path d="m629.965 418.49s-.939-1.837-5.056-4.743-5.281-10.436-.919-14.488c4.129-3.835 13.934-2.51 21.683 4.3 8.124 7.14 11.367 14.768 7.148 22.046s-12.169 1.811-14.224-.472a34.009 34.009 0 0 0 -5.627-4.6" fill="#fff" transform="matrix(-.78801075 .61566148 -.61566148 -.78801075 1188.16595091626 -36.6193413064)"/><path d="m622.9 449.881a11.146 11.146 0 0 1 -6.976 5.036 7.5 7.5 0 0 0 -2.076.215 8.112 8.112 0 0 0 -5.715 9.82 7.862 7.862 0 0 0 9.472 6.007 8.036 8.036 0 0 0 5.939-8.131c.75-2.122 2.59-6.371 5.6-7.453 0 0 2.7-1.689-1.663-5.651-3.423-3.111-4.576.156-4.576.156" fill="#ffe87d" transform="matrix(-.78801075 .61566148 -.61566148 -.78801075 1202.75105687968 -2.959252178)"/><path d="m676.62 386.944a10.669 10.669 0 0 1 -7.7 12.813 10.341 10.341 0 0 1 -12.578-7.72 10.669 10.669 0 0 1 7.7-12.812 10.342 10.342 0 0 1 12.578 7.72m-23.165 5.816a13.282 13.282 0 0 0 16.153 9.914 13.7 13.7 0 0 0 9.9-16.454 13.281 13.281 0 0 0 -16.154-9.914 13.7 13.7 0 0 0 -9.895 16.454" fill="#fecb40" transform="matrix(-.78801075 .61566148 -.61566148 -.78801075 1241.50210050725 -61.80205130844)"/><path d="m629.965 418.49s-.939-1.837-5.056-4.743-5.281-10.436-.919-14.488c4.129-3.835 13.934-2.51 21.683 4.3 8.124 7.14 11.367 14.768 7.148 22.046s-12.169 1.811-14.224-.472a34.009 34.009 0 0 0 -5.627-4.6" fill="#fff" transform="matrix(-.78801075 .61566148 -.61566148 -.78801075 1233.16595091626 -36.6193413064)"/><path d="m622.9 449.881a11.146 11.146 0 0 1 -6.976 5.036 7.5 7.5 0 0 0 -2.076.215 8.112 8.112 0 0 0 -5.715 9.82 7.862 7.862 0 0 0 9.472 6.007 8.036 8.036 0 0 0 5.939-8.131c.75-2.122 2.59-6.371 5.6-7.453 0 0 2.7-1.689-1.663-5.651-3.423-3.111-4.576.156-4.576.156" fill="#ffe87d" transform="matrix(-.78801075 .61566148 -.61566148 -.78801075 1247.75105687968 -2.959252178)"/><path d="m676.62 386.944a10.669 10.669 0 0 1 -7.7 12.813 10.341 10.341 0 0 1 -12.578-7.72 10.669 10.669 0 0 1 7.7-12.812 10.342 10.342 0 0 1 12.578 7.72m-23.165 5.816a13.282 13.282 0 0 0 16.153 9.914 13.7 13.7 0 0 0 9.9-16.454 13.281 13.281 0 0 0 -16.154-9.914 13.7 13.7 0 0 0 -9.895 16.454" fill="#fecb40" transform="matrix(-.78801075 .61566148 -.61566148 -.78801075 1286.50210050725 -61.80205130844)"/><path d="m629.965 418.49s-.939-1.837-5.056-4.743-5.281-10.436-.919-14.488c4.129-3.835 13.934-2.51 21.683 4.3 8.124 7.14 11.367 14.768 7.148 22.046s-12.169 1.811-14.224-.472a34.009 34.009 0 0 0 -5.627-4.6" fill="#fff" transform="matrix(-.78801075 .61566148 -.61566148 -.78801075 1278.16595091626 -36.6193413064)"/><path d="m622.9 449.881a11.146 11.146 0 0 1 -6.976 5.036 7.5 7.5 0 0 0 -2.076.215 8.112 8.112 0 0 0 -5.715 9.82 7.862 7.862 0 0 0 9.472 6.007 8.036 8.036 0 0 0 5.939-8.131c.75-2.122 2.59-6.371 5.6-7.453 0 0 2.7-1.689-1.663-5.651-3.423-3.111-4.576.156-4.576.156" fill="#ffe87d" transform="matrix(-.78801075 .61566148 -.61566148 -.78801075 1292.75105687968 -2.959252178)"/><path d="m676.62 386.944a10.669 10.669 0 0 1 -7.7 12.813 10.341 10.341 0 0 1 -12.578-7.72 10.669 10.669 0 0 1 7.7-12.812 10.342 10.342 0 0 1 12.578 7.72m-23.165 5.816a13.282 13.282 0 0 0 16.153 9.914 13.7 13.7 0 0 0 9.9-16.454 13.281 13.281 0 0 0 -16.154-9.914 13.7 13.7 0 0 0 -9.895 16.454" fill="#fecb40" transform="matrix(-.78801075 .61566148 -.61566148 -.78801075 1332.50210050725 -61.80205130844)"/><path d="m629.965 418.49s-.939-1.837-5.056-4.743-5.281-10.436-.919-14.488c4.129-3.835 13.934-2.51 21.683 4.3 8.124 7.14 11.367 14.768 7.148 22.046s-12.169 1.811-14.224-.472a34.009 34.009 0 0 0 -5.627-4.6" fill="#fff" transform="matrix(-.78801075 .61566148 -.61566148 -.78801075 1324.16595091626 -36.6193413064)"/><path d="m622.9 449.881a11.146 11.146 0 0 1 -6.976 5.036 7.5 7.5 0 0 0 -2.076.215 8.112 8.112 0 0 0 -5.715 9.82 7.862 7.862 0 0 0 9.472 6.007 8.036 8.036 0 0 0 5.939-8.131c.75-2.122 2.59-6.371 5.6-7.453 0 0 2.7-1.689-1.663-5.651-3.423-3.111-4.576.156-4.576.156" fill="#ffe87d" transform="matrix(-.78801075 .61566148 -.61566148 -.78801075 1338.75105687968 -2.959252178)"/><path d="m676.62 386.944a10.669 10.669 0 0 1 -7.7 12.813 10.341 10.341 0 0 1 -12.578-7.72 10.669 10.669 0 0 1 7.7-12.812 10.342 10.342 0 0 1 12.578 7.72m-23.165 5.816a13.282 13.282 0 0 0 16.153 9.914 13.7 13.7 0 0 0 9.9-16.454 13.281 13.281 0 0 0 -16.154-9.914 13.7 13.7 0 0 0 -9.895 16.454" fill="#fecb40" transform="matrix(-.78801075 .61566148 -.61566148 -.78801075 1377.50210050725 -61.80205130844)"/><path d="m629.965 418.49s-.939-1.837-5.056-4.743-5.281-10.436-.919-14.488c4.129-3.835 13.934-2.51 21.683 4.3 8.124 7.14 11.367 14.768 7.148 22.046s-12.169 1.811-14.224-.472a34.009 34.009 0 0 0 -5.627-4.6" fill="#fff" transform="matrix(-.78801075 .61566148 -.61566148 -.78801075 1369.16595091626 -36.6193413064)"/><path d="m622.9 449.881a11.146 11.146 0 0 1 -6.976 5.036 7.5 7.5 0 0 0 -2.076.215 8.112 8.112 0 0 0 -5.715 9.82 7.862 7.862 0 0 0 9.472 6.007 8.036 8.036 0 0 0 5.939-8.131c.75-2.122 2.59-6.371 5.6-7.453 0 0 2.7-1.689-1.663-5.651-3.423-3.111-4.576.156-4.576.156" fill="#ffe87d" transform="matrix(-.78801075 .61566148 -.61566148 -.78801075 1383.75105687968 -2.959252178)"/><path d="m676.62 386.944a10.669 10.669 0 0 1 -7.7 12.813 10.341 10.341 0 0 1 -12.578-7.72 10.669 10.669 0 0 1 7.7-12.812 10.342 10.342 0 0 1 12.578 7.72m-23.165 5.816a13.282 13.282 0 0 0 16.153 9.914 13.7 13.7 0 0 0 9.9-16.454 13.281 13.281 0 0 0 -16.154-9.914 13.7 13.7 0 0 0 -9.895 16.454" fill="#fecb40" transform="matrix(-.78801075 .61566148 -.61566148 -.78801075 833.50210050725 5.19794869156)"/><path d="m629.965 418.49s-.939-1.837-5.056-4.743-5.281-10.436-.919-14.488c4.129-3.835 13.934-2.51 21.683 4.3 8.124 7.14 11.367 14.768 7.148 22.046s-12.169 1.811-14.224-.472a34.009 34.009 0 0 0 -5.627-4.6" fill="#fff" transform="matrix(-.78801075 .61566148 -.61566148 -.78801075 825.16595091626 30.3806586936)"/><path d="m622.9 449.881a11.146 11.146 0 0 1 -6.976 5.036 7.5 7.5 0 0 0 -2.076.215 8.112 8.112 0 0 0 -5.715 9.82 7.862 7.862 0 0 0 9.472 6.007 8.036 8.036 0 0 0 5.939-8.131c.75-2.122 2.59-6.371 5.6-7.453 0 0 2.7-1.689-1.663-5.651-3.423-3.111-4.576.156-4.576.156" fill="#ffe87d" transform="matrix(-.78801075 .61566148 -.61566148 -.78801075 839.75105687968 64.040747822)"/><path d="m676.62 386.944a10.669 10.669 0 0 1 -7.7 12.813 10.341 10.341 0 0 1 -12.578-7.72 10.669 10.669 0 0 1 7.7-12.812 10.342 10.342 0 0 1 12.578 7.72m-23.165 5.816a13.282 13.282 0 0 0 16.153 9.914 13.7 13.7 0 0 0 9.9-16.454 13.281 13.281 0 0 0 -16.154-9.914 13.7 13.7 0 0 0 -9.895 16.454" fill="#fecb40" transform="matrix(-.78801075 .61566148 -.61566148 -.78801075 879.50210050725 5.19794869156)"/><path d="m629.965 418.49s-.939-1.837-5.056-4.743-5.281-10.436-.919-14.488c4.129-3.835 13.934-2.51 21.683 4.3 8.124 7.14 11.367 14.768 7.148 22.046s-12.169 1.811-14.224-.472a34.009 34.009 0 0 0 -5.627-4.6" fill="#fff" transform="matrix(-.78801075 .61566148 -.61566148 -.78801075 871.16595091626 30.3806586936)"/><path d="m622.9 449.881a11.146 11.146 0 0 1 -6.976 5.036 7.5 7.5 0 0 0 -2.076.215 8.112 8.112 0 0 0 -5.715 9.82 7.862 7.862 0 0 0 9.472 6.007 8.036 8.036 0 0 0 5.939-8.131c.75-2.122 2.59-6.371 5.6-7.453 0 0 2.7-1.689-1.663-5.651-3.423-3.111-4.576.156-4.576.156" fill="#ffe87d" transform="matrix(-.78801075 .61566148 -.61566148 -.78801075 885.75105687968 64.040747822)"/><path d="m676.62 386.944a10.669 10.669 0 0 1 -7.7 12.813 10.341 10.341 0 0 1 -12.578-7.72 10.669 10.669 0 0 1 7.7-12.812 10.342 10.342 0 0 1 12.578 7.72m-23.165 5.816a13.282 13.282 0 0 0 16.153 9.914 13.7 13.7 0 0 0 9.9-16.454 13.281 13.281 0 0 0 -16.154-9.914 13.7 13.7 0 0 0 -9.895 16.454" fill="#fecb40" transform="matrix(-.78801075 .61566148 -.61566148 -.78801075 969.50210050725 5.19794869156)"/><path d="m629.965 418.49s-.939-1.837-5.056-4.743-5.281-10.436-.919-14.488c4.129-3.835 13.934-2.51 21.683 4.3 8.124 7.14 11.367 14.768 7.148 22.046s-12.169 1.811-14.224-.472a34.009 34.009 0 0 0 -5.627-4.6" fill="#fff" transform="matrix(-.78801075 .61566148 -.61566148 -.78801075 961.16595091626 30.3806586936)"/><path d="m622.9 449.881a11.146 11.146 0 0 1 -6.976 5.036 7.5 7.5 0 0 0 -2.076.215 8.112 8.112 0 0 0 -5.715 9.82 7.862 7.862 0 0 0 9.472 6.007 8.036 8.036 0 0 0 5.939-8.131c.75-2.122 2.59-6.371 5.6-7.453 0 0 2.7-1.689-1.663-5.651-3.423-3.111-4.576.156-4.576.156" fill="#ffe87d" transform="matrix(-.78801075 .61566148 -.61566148 -.78801075 975.75105687968 64.040747822)"/><path d="m676.62 386.944a10.669 10.669 0 0 1 -7.7 12.813 10.341 10.341 0 0 1 -12.578-7.72 10.669 10.669 0 0 1 7.7-12.812 10.342 10.342 0 0 1 12.578 7.72m-23.165 5.816a13.282 13.282 0 0 0 16.153 9.914 13.7 13.7 0 0 0 9.9-16.454 13.281 13.281 0 0 0 -16.154-9.914 13.7 13.7 0 0 0 -9.895 16.454" fill="#fecb40" transform="matrix(-.78801075 .61566148 -.61566148 -.78801075 1015.50210050725 5.19794869156)"/><path d="m629.965 418.49s-.939-1.837-5.056-4.743-5.281-10.436-.919-14.488c4.129-3.835 13.934-2.51 21.683 4.3 8.124 7.14 11.367 14.768 7.148 22.046s-12.169 1.811-14.224-.472a34.009 34.009 0 0 0 -5.627-4.6" fill="#fff" transform="matrix(-.78801075 .61566148 -.61566148 -.78801075 1007.16595091626 30.3806586936)"/><path d="m622.9 449.881a11.146 11.146 0 0 1 -6.976 5.036 7.5 7.5 0 0 0 -2.076.215 8.112 8.112 0 0 0 -5.715 9.82 7.862 7.862 0 0 0 9.472 6.007 8.036 8.036 0 0 0 5.939-8.131c.75-2.122 2.59-6.371 5.6-7.453 0 0 2.7-1.689-1.663-5.651-3.423-3.111-4.576.156-4.576.156" fill="#ffe87d" transform="matrix(-.78801075 .61566148 -.61566148 -.78801075 1021.75105687968 64.040747822)"/><path d="m676.62 386.944a10.669 10.669 0 0 1 -7.7 12.813 10.341 10.341 0 0 1 -12.578-7.72 10.669 10.669 0 0 1 7.7-12.812 10.342 10.342 0 0 1 12.578 7.72m-23.165 5.816a13.282 13.282 0 0 0 16.153 9.914 13.7 13.7 0 0 0 9.9-16.454 13.281 13.281 0 0 0 -16.154-9.914 13.7 13.7 0 0 0 -9.895 16.454" fill="#fecb40" transform="matrix(-.78801075 .61566148 -.61566148 -.78801075 1060.50210050725 5.19794869156)"/><path d="m629.965 418.49s-.939-1.837-5.056-4.743-5.281-10.436-.919-14.488c4.129-3.835 13.934-2.51 21.683 4.3 8.124 7.14 11.367 14.768 7.148 22.046s-12.169 1.811-14.224-.472a34.009 34.009 0 0 0 -5.627-4.6" fill="#fff" transform="matrix(-.78801075 .61566148 -.61566148 -.78801075 1052.16595091626 30.3806586936)"/><path d="m622.9 449.881a11.146 11.146 0 0 1 -6.976 5.036 7.5 7.5 0 0 0 -2.076.215 8.112 8.112 0 0 0 -5.715 9.82 7.862 7.862 0 0 0 9.472 6.007 8.036 8.036 0 0 0 5.939-8.131c.75-2.122 2.59-6.371 5.6-7.453 0 0 2.7-1.689-1.663-5.651-3.423-3.111-4.576.156-4.576.156" fill="#ffe87d" transform="matrix(-.78801075 .61566148 -.61566148 -.78801075 1066.75105687968 64.040747822)"/><path d="m676.62 386.944a10.669 10.669 0 0 1 -7.7 12.813 10.341 10.341 0 0 1 -12.578-7.72 10.669 10.669 0 0 1 7.7-12.812 10.342 10.342 0 0 1 12.578 7.72m-23.165 5.816a13.282 13.282 0 0 0 16.153 9.914 13.7 13.7 0 0 0 9.9-16.454 13.281 13.281 0 0 0 -16.154-9.914 13.7 13.7 0 0 0 -9.895 16.454" fill="#fecb40" transform="matrix(-.78801075 .61566148 -.61566148 -.78801075 1105.50210050725 5.19794869156)"/><path d="m629.965 418.49s-.939-1.837-5.056-4.743-5.281-10.436-.919-14.488c4.129-3.835 13.934-2.51 21.683 4.3 8.124 7.14 11.367 14.768 7.148 22.046s-12.169 1.811-14.224-.472a34.009 34.009 0 0 0 -5.627-4.6" fill="#fff" transform="matrix(-.78801075 .61566148 -.61566148 -.78801075 1097.16595091626 30.3806586936)"/><path d="m622.9 449.881a11.146 11.146 0 0 1 -6.976 5.036 7.5 7.5 0 0 0 -2.076.215 8.112 8.112 0 0 0 -5.715 9.82 7.862 7.862 0 0 0 9.472 6.007 8.036 8.036 0 0 0 5.939-8.131c.75-2.122 2.59-6.371 5.6-7.453 0 0 2.7-1.689-1.663-5.651-3.423-3.111-4.576.156-4.576.156" fill="#ffe87d" transform="matrix(-.78801075 .61566148 -.61566148 -.78801075 1111.75105687968 64.040747822)"/><path d="m676.62 386.944a10.669 10.669 0 0 1 -7.7 12.813 10.341 10.341 0 0 1 -12.578-7.72 10.669 10.669 0 0 1 7.7-12.812 10.342 10.342 0 0 1 12.578 7.72m-23.165 5.816a13.282 13.282 0 0 0 16.153 9.914 13.7 13.7 0 0 0 9.9-16.454 13.281 13.281 0 0 0 -16.154-9.914 13.7 13.7 0 0 0 -9.895 16.454" fill="#fecb40" transform="matrix(-.78801075 .61566148 -.61566148 -.78801075 1196.50210050725 5.19794869156)"/><path d="m629.965 418.49s-.939-1.837-5.056-4.743-5.281-10.436-.919-14.488c4.129-3.835 13.934-2.51 21.683 4.3 8.124 7.14 11.367 14.768 7.148 22.046s-12.169 1.811-14.224-.472a34.009 34.009 0 0 0 -5.627-4.6" fill="#fff" transform="matrix(-.78801075 .61566148 -.61566148 -.78801075 1188.16595091626 30.3806586936)"/><path d="m622.9 449.881a11.146 11.146 0 0 1 -6.976 5.036 7.5 7.5 0 0 0 -2.076.215 8.112 8.112 0 0 0 -5.715 9.82 7.862 7.862 0 0 0 9.472 6.007 8.036 8.036 0 0 0 5.939-8.131c.75-2.122 2.59-6.371 5.6-7.453 0 0 2.7-1.689-1.663-5.651-3.423-3.111-4.576.156-4.576.156" fill="#ffe87d" transform="matrix(-.78801075 .61566148 -.61566148 -.78801075 1202.75105687968 64.040747822)"/><path d="m676.62 386.944a10.669 10.669 0 0 1 -7.7 12.813 10.341 10.341 0 0 1 -12.578-7.72 10.669 10.669 0 0 1 7.7-12.812 10.342 10.342 0 0 1 12.578 7.72m-23.165 5.816a13.282 13.282 0 0 0 16.153 9.914 13.7 13.7 0 0 0 9.9-16.454 13.281 13.281 0 0 0 -16.154-9.914 13.7 13.7 0 0 0 -9.895 16.454" fill="#fecb40" transform="matrix(-.78801075 .61566148 -.61566148 -.78801075 1241.50210050725 5.19794869156)"/><path d="m629.965 418.49s-.939-1.837-5.056-4.743-5.281-10.436-.919-14.488c4.129-3.835 13.934-2.51 21.683 4.3 8.124 7.14 11.367 14.768 7.148 22.046s-12.169 1.811-14.224-.472a34.009 34.009 0 0 0 -5.627-4.6" fill="#fff" transform="matrix(-.78801075 .61566148 -.61566148 -.78801075 1233.16595091626 30.3806586936)"/><path d="m622.9 449.881a11.146 11.146 0 0 1 -6.976 5.036 7.5 7.5 0 0 0 -2.076.215 8.112 8.112 0 0 0 -5.715 9.82 7.862 7.862 0 0 0 9.472 6.007 8.036 8.036 0 0 0 5.939-8.131c.75-2.122 2.59-6.371 5.6-7.453 0 0 2.7-1.689-1.663-5.651-3.423-3.111-4.576.156-4.576.156" fill="#ffe87d" transform="matrix(-.78801075 .61566148 -.61566148 -.78801075 1247.75105687968 64.040747822)"/><path d="m676.62 386.944a10.669 10.669 0 0 1 -7.7 12.813 10.341 10.341 0 0 1 -12.578-7.72 10.669 10.669 0 0 1 7.7-12.812 10.342 10.342 0 0 1 12.578 7.72m-23.165 5.816a13.282 13.282 0 0 0 16.153 9.914 13.7 13.7 0 0 0 9.9-16.454 13.281 13.281 0 0 0 -16.154-9.914 13.7 13.7 0 0 0 -9.895 16.454" fill="#fecb40" transform="matrix(-.78801075 .61566148 -.61566148 -.78801075 1286.50210050725 5.19794869156)"/><path d="m629.965 418.49s-.939-1.837-5.056-4.743-5.281-10.436-.919-14.488c4.129-3.835 13.934-2.51 21.683 4.3 8.124 7.14 11.367 14.768 7.148 22.046s-12.169 1.811-14.224-.472a34.009 34.009 0 0 0 -5.627-4.6" fill="#fff" transform="matrix(-.78801075 .61566148 -.61566148 -.78801075 1278.16595091626 30.3806586936)"/><path d="m622.9 449.881a11.146 11.146 0 0 1 -6.976 5.036 7.5 7.5 0 0 0 -2.076.215 8.112 8.112 0 0 0 -5.715 9.82 7.862 7.862 0 0 0 9.472 6.007 8.036 8.036 0 0 0 5.939-8.131c.75-2.122 2.59-6.371 5.6-7.453 0 0 2.7-1.689-1.663-5.651-3.423-3.111-4.576.156-4.576.156" fill="#ffe87d" transform="matrix(-.78801075 .61566148 -.61566148 -.78801075 1292.75105687968 64.040747822)"/><path d="m676.62 386.944a10.669 10.669 0 0 1 -7.7 12.813 10.341 10.341 0 0 1 -12.578-7.72 10.669 10.669 0 0 1 7.7-12.812 10.342 10.342 0 0 1 12.578 7.72m-23.165 5.816a13.282 13.282 0 0 0 16.153 9.914 13.7 13.7 0 0 0 9.9-16.454 13.281 13.281 0 0 0 -16.154-9.914 13.7 13.7 0 0 0 -9.895 16.454" fill="#fecb40" transform="matrix(-.78801075 .61566148 -.61566148 -.78801075 1332.50210050725 5.19794869156)"/><path d="m629.965 418.49s-.939-1.837-5.056-4.743-5.281-10.436-.919-14.488c4.129-3.835 13.934-2.51 21.683 4.3 8.124 7.14 11.367 14.768 7.148 22.046s-12.169 1.811-14.224-.472a34.009 34.009 0 0 0 -5.627-4.6" fill="#fff" transform="matrix(-.78801075 .61566148 -.61566148 -.78801075 1324.16595091626 30.3806586936)"/><path d="m622.9 449.881a11.146 11.146 0 0 1 -6.976 5.036 7.5 7.5 0 0 0 -2.076.215 8.112 8.112 0 0 0 -5.715 9.82 7.862 7.862 0 0 0 9.472 6.007 8.036 8.036 0 0 0 5.939-8.131c.75-2.122 2.59-6.371 5.6-7.453 0 0 2.7-1.689-1.663-5.651-3.423-3.111-4.576.156-4.576.156" fill="#ffe87d" transform="matrix(-.78801075 .61566148 -.61566148 -.78801075 1338.75105687968 64.040747822)"/><path d="m676.62 386.944a10.669 10.669 0 0 1 -7.7 12.813 10.341 10.341 0 0 1 -12.578-7.72 10.669 10.669 0 0 1 7.7-12.812 10.342 10.342 0 0 1 12.578 7.72m-23.165 5.816a13.282 13.282 0 0 0 16.153 9.914 13.7 13.7 0 0 0 9.9-16.454 13.281 13.281 0 0 0 -16.154-9.914 13.7 13.7 0 0 0 -9.895 16.454" fill="#fecb40" transform="matrix(-.78801075 .61566148 -.61566148 -.78801075 879.50210050725 72.19794869156)"/><path d="m629.965 418.49s-.939-1.837-5.056-4.743-5.281-10.436-.919-14.488c4.129-3.835 13.934-2.51 21.683 4.3 8.124 7.14 11.367 14.768 7.148 22.046s-12.169 1.811-14.224-.472a34.009 34.009 0 0 0 -5.627-4.6" fill="#fff" transform="matrix(-.78801075 .61566148 -.61566148 -.78801075 871.16595091626 97.3806586936)"/><path d="m622.9 449.881a11.146 11.146 0 0 1 -6.976 5.036 7.5 7.5 0 0 0 -2.076.215 8.112 8.112 0 0 0 -5.715 9.82 7.862 7.862 0 0 0 9.472 6.007 8.036 8.036 0 0 0 5.939-8.131c.75-2.122 2.59-6.371 5.6-7.453 0 0 2.7-1.689-1.663-5.651-3.423-3.111-4.576.156-4.576.156" fill="#ffe87d" transform="matrix(-.78801075 .61566148 -.61566148 -.78801075 885.75105687968 131.040747822)"/><path d="m676.62 386.944a10.669 10.669 0 0 1 -7.7 12.813 10.341 10.341 0 0 1 -12.578-7.72 10.669 10.669 0 0 1 7.7-12.812 10.342 10.342 0 0 1 12.578 7.72m-23.165 5.816a13.282 13.282 0 0 0 16.153 9.914 13.7 13.7 0 0 0 9.9-16.454 13.281 13.281 0 0 0 -16.154-9.914 13.7 13.7 0 0 0 -9.895 16.454" fill="#fecb40" transform="matrix(-.78801075 .61566148 -.61566148 -.78801075 1015.50210050725 72.19794869156)"/><path d="m629.965 418.49s-.939-1.837-5.056-4.743-5.281-10.436-.919-14.488c4.129-3.835 13.934-2.51 21.683 4.3 8.124 7.14 11.367 14.768 7.148 22.046s-12.169 1.811-14.224-.472a34.009 34.009 0 0 0 -5.627-4.6" fill="#fff" transform="matrix(-.78801075 .61566148 -.61566148 -.78801075 1007.16595091626 97.3806586936)"/><path d="m622.9 449.881a11.146 11.146 0 0 1 -6.976 5.036 7.5 7.5 0 0 0 -2.076.215 8.112 8.112 0 0 0 -5.715 9.82 7.862 7.862 0 0 0 9.472 6.007 8.036 8.036 0 0 0 5.939-8.131c.75-2.122 2.59-6.371 5.6-7.453 0 0 2.7-1.689-1.663-5.651-3.423-3.111-4.576.156-4.576.156" fill="#ffe87d" transform="matrix(-.78801075 .61566148 -.61566148 -.78801075 1021.75105687968 131.040747822)"/><path d="m676.62 386.944a10.669 10.669 0 0 1 -7.7 12.813 10.341 10.341 0 0 1 -12.578-7.72 10.669 10.669 0 0 1 7.7-12.812 10.342 10.342 0 0 1 12.578 7.72m-23.165 5.816a13.282 13.282 0 0 0 16.153 9.914 13.7 13.7 0 0 0 9.9-16.454 13.281 13.281 0 0 0 -16.154-9.914 13.7 13.7 0 0 0 -9.895 16.454" fill="#fecb40" transform="matrix(-.78801075 .61566148 -.61566148 -.78801075 1060.50210050725 72.19794869156)"/><path d="m629.965 418.49s-.939-1.837-5.056-4.743-5.281-10.436-.919-14.488c4.129-3.835 13.934-2.51 21.683 4.3 8.124 7.14 11.367 14.768 7.148 22.046s-12.169 1.811-14.224-.472a34.009 34.009 0 0 0 -5.627-4.6" fill="#fff" transform="matrix(-.78801075 .61566148 -.61566148 -.78801075 1052.16595091626 97.3806586936)"/><path d="m622.9 449.881a11.146 11.146 0 0 1 -6.976 5.036 7.5 7.5 0 0 0 -2.076.215 8.112 8.112 0 0 0 -5.715 9.82 7.862 7.862 0 0 0 9.472 6.007 8.036 8.036 0 0 0 5.939-8.131c.75-2.122 2.59-6.371 5.6-7.453 0 0 2.7-1.689-1.663-5.651-3.423-3.111-4.576.156-4.576.156" fill="#ffe87d" transform="matrix(-.78801075 .61566148 -.61566148 -.78801075 1066.75105687968 131.040747822)"/><path d="m676.62 386.944a10.669 10.669 0 0 1 -7.7 12.813 10.341 10.341 0 0 1 -12.578-7.72 10.669 10.669 0 0 1 7.7-12.812 10.342 10.342 0 0 1 12.578 7.72m-23.165 5.816a13.282 13.282 0 0 0 16.153 9.914 13.7 13.7 0 0 0 9.9-16.454 13.281 13.281 0 0 0 -16.154-9.914 13.7 13.7 0 0 0 -9.895 16.454" fill="#fecb40" transform="matrix(-.78801075 .61566148 -.61566148 -.78801075 1105.50210050725 72.19794869156)"/><path d="m629.965 418.49s-.939-1.837-5.056-4.743-5.281-10.436-.919-14.488c4.129-3.835 13.934-2.51 21.683 4.3 8.124 7.14 11.367 14.768 7.148 22.046s-12.169 1.811-14.224-.472a34.009 34.009 0 0 0 -5.627-4.6" fill="#fff" transform="matrix(-.78801075 .61566148 -.61566148 -.78801075 1097.16595091626 97.3806586936)"/><path d="m622.9 449.881a11.146 11.146 0 0 1 -6.976 5.036 7.5 7.5 0 0 0 -2.076.215 8.112 8.112 0 0 0 -5.715 9.82 7.862 7.862 0 0 0 9.472 6.007 8.036 8.036 0 0 0 5.939-8.131c.75-2.122 2.59-6.371 5.6-7.453 0 0 2.7-1.689-1.663-5.651-3.423-3.111-4.576.156-4.576.156" fill="#ffe87d" transform="matrix(-.78801075 .61566148 -.61566148 -.78801075 1111.75105687968 131.040747822)"/><path d="m676.62 386.944a10.669 10.669 0 0 1 -7.7 12.813 10.341 10.341 0 0 1 -12.578-7.72 10.669 10.669 0 0 1 7.7-12.812 10.342 10.342 0 0 1 12.578 7.72m-23.165 5.816a13.282 13.282 0 0 0 16.153 9.914 13.7 13.7 0 0 0 9.9-16.454 13.281 13.281 0 0 0 -16.154-9.914 13.7 13.7 0 0 0 -9.895 16.454" fill="#fecb40" transform="matrix(-.78801075 .61566148 -.61566148 -.78801075 1241.50210050725 72.19794869156)"/><path d="m629.965 418.49s-.939-1.837-5.056-4.743-5.281-10.436-.919-14.488c4.129-3.835 13.934-2.51 21.683 4.3 8.124 7.14 11.367 14.768 7.148 22.046s-12.169 1.811-14.224-.472a34.009 34.009 0 0 0 -5.627-4.6" fill="#fff" transform="matrix(-.78801075 .61566148 -.61566148 -.78801075 1233.16595091626 97.3806586936)"/><path d="m622.9 449.881a11.146 11.146 0 0 1 -6.976 5.036 7.5 7.5 0 0 0 -2.076.215 8.112 8.112 0 0 0 -5.715 9.82 7.862 7.862 0 0 0 9.472 6.007 8.036 8.036 0 0 0 5.939-8.131c.75-2.122 2.59-6.371 5.6-7.453 0 0 2.7-1.689-1.663-5.651-3.423-3.111-4.576.156-4.576.156" fill="#ffe87d" transform="matrix(-.78801075 .61566148 -.61566148 -.78801075 1247.75105687968 131.040747822)"/><path d="m260.575 788.5h84v22h-84z" fill="#fff"/><path d="m278.575 767.5h48v21h-48z" fill="#fff"/><path d="m298.575 758.5h9v9h-9z" fill="#fff"/><g fill="#ffdb28"><path d="m351.268 51.637s1.7-4.35 5.683-2.963.826 8.668-5.5 14.014c0 0-11.044-8.837-6.9-13.439 3.946-4.384 6.716 2.387 6.716 2.387" transform="translate(-146.094 202.728)"/><path d="m351.268 51.637s1.7-4.35 5.683-2.963.826 8.668-5.5 14.014c0 0-11.044-8.837-6.9-13.439 3.946-4.384 6.716 2.387 6.716 2.387" transform="translate(83.906 363.728)"/><path d="m351.268 51.637s1.7-4.35 5.683-2.963.826 8.668-5.5 14.014c0 0-11.044-8.837-6.9-13.439 3.946-4.384 6.716 2.387 6.716 2.387" transform="translate(-326.094 129.728)"/><path d="m351.268 51.637s1.7-4.35 5.683-2.963.826 8.668-5.5 14.014c0 0-11.044-8.837-6.9-13.439 3.946-4.384 6.716 2.387 6.716 2.387" transform="translate(-49.094 465.728)"/><path d="m351.268 51.637s1.7-4.35 5.683-2.963.826 8.668-5.5 14.014c0 0-11.044-8.837-6.9-13.439 3.946-4.384 6.716 2.387 6.716 2.387" transform="translate(-49.094 531.728)"/><path d="m351.268 51.637s1.7-4.35 5.683-2.963.826 8.668-5.5 14.014c0 0-11.044-8.837-6.9-13.439 3.946-4.384 6.716 2.387 6.716 2.387" transform="translate(-49.094 597.728)"/><path d="m351.268 51.637s1.7-4.35 5.683-2.963.826 8.668-5.5 14.014c0 0-11.044-8.837-6.9-13.439 3.946-4.384 6.716 2.387 6.716 2.387" transform="translate(-49.094 663.728)"/></g></svg>