<svg xmlns="http://www.w3.org/2000/svg" width="635.134" height="810.5" viewBox="0 0 635.134 810.5">
  <g id="Group_333" data-name="Group 333" transform="translate(-994.425 -269.5)">
    <g id="Group_261" data-name="Group 261" transform="translate(366 -386.32)">
      <g id="Group_151" data-name="Group 151" transform="translate(1392.26 613.29) rotate(142)">
        <path id="Path_160" data-name="Path 160" d="M676.62,386.944a10.669,10.669,0,0,1-7.7,12.813,10.341,10.341,0,0,1-12.578-7.72,10.669,10.669,0,0,1,7.7-12.812,10.342,10.342,0,0,1,12.578,7.72m-23.165,5.816a13.282,13.282,0,0,0,16.153,9.914,13.7,13.7,0,0,0,9.9-16.454,13.281,13.281,0,0,0-16.154-9.914,13.7,13.7,0,0,0-9.895,16.454" transform="translate(-31.303 0)" fill="#fecb40"/>
        <path id="Path_161" data-name="Path 161" d="M629.965,418.49s-.939-1.837-5.056-4.743-5.281-10.436-.919-14.488c4.129-3.835,13.934-2.51,21.683,4.3,8.124,7.14,11.367,14.768,7.148,22.046s-12.169,1.811-14.224-.472a34.009,34.009,0,0,0-5.627-4.6" transform="translate(-9.23 -14.712)" fill="#fff"/>
        <path id="Path_162" data-name="Path 162" d="M622.9,449.881a11.146,11.146,0,0,1-6.976,5.036,7.5,7.5,0,0,0-2.076.215,8.112,8.112,0,0,0-5.715,9.82,7.862,7.862,0,0,0,9.472,6.007,8.036,8.036,0,0,0,5.939-8.131c.75-2.122,2.59-6.371,5.6-7.453,0,0,2.7-1.689-1.663-5.651-3.423-3.111-4.576.156-4.576.156" transform="translate(0 -50.216)" fill="#ffe87d"/>
      </g>
      <g id="Group_248" data-name="Group 248" transform="translate(1437.26 613.29) rotate(142)">
        <path id="Path_160-2" data-name="Path 160" d="M676.62,386.944a10.669,10.669,0,0,1-7.7,12.813,10.341,10.341,0,0,1-12.578-7.72,10.669,10.669,0,0,1,7.7-12.812,10.342,10.342,0,0,1,12.578,7.72m-23.165,5.816a13.282,13.282,0,0,0,16.153,9.914,13.7,13.7,0,0,0,9.9-16.454,13.281,13.281,0,0,0-16.154-9.914,13.7,13.7,0,0,0-9.895,16.454" transform="translate(-31.303 0)" fill="#fecb40"/>
        <path id="Path_161-2" data-name="Path 161" d="M629.965,418.49s-.939-1.837-5.056-4.743-5.281-10.436-.919-14.488c4.129-3.835,13.934-2.51,21.683,4.3,8.124,7.14,11.367,14.768,7.148,22.046s-12.169,1.811-14.224-.472a34.009,34.009,0,0,0-5.627-4.6" transform="translate(-9.23 -14.712)" fill="#fff"/>
        <path id="Path_162-2" data-name="Path 162" d="M622.9,449.881a11.146,11.146,0,0,1-6.976,5.036,7.5,7.5,0,0,0-2.076.215,8.112,8.112,0,0,0-5.715,9.82,7.862,7.862,0,0,0,9.472,6.007,8.036,8.036,0,0,0,5.939-8.131c.75-2.122,2.59-6.371,5.6-7.453,0,0,2.7-1.689-1.663-5.651-3.423-3.111-4.576.156-4.576.156" transform="translate(0 -50.216)" fill="#ffe87d"/>
      </g>
      <g id="Group_249" data-name="Group 249" transform="translate(1483.26 613.29) rotate(142)">
        <path id="Path_160-3" data-name="Path 160" d="M676.62,386.944a10.669,10.669,0,0,1-7.7,12.813,10.341,10.341,0,0,1-12.578-7.72,10.669,10.669,0,0,1,7.7-12.812,10.342,10.342,0,0,1,12.578,7.72m-23.165,5.816a13.282,13.282,0,0,0,16.153,9.914,13.7,13.7,0,0,0,9.9-16.454,13.281,13.281,0,0,0-16.154-9.914,13.7,13.7,0,0,0-9.895,16.454" transform="translate(-31.303 0)" fill="#fecb40"/>
        <path id="Path_161-3" data-name="Path 161" d="M629.965,418.49s-.939-1.837-5.056-4.743-5.281-10.436-.919-14.488c4.129-3.835,13.934-2.51,21.683,4.3,8.124,7.14,11.367,14.768,7.148,22.046s-12.169,1.811-14.224-.472a34.009,34.009,0,0,0-5.627-4.6" transform="translate(-9.23 -14.712)" fill="#fff"/>
        <path id="Path_162-3" data-name="Path 162" d="M622.9,449.881a11.146,11.146,0,0,1-6.976,5.036,7.5,7.5,0,0,0-2.076.215,8.112,8.112,0,0,0-5.715,9.82,7.862,7.862,0,0,0,9.472,6.007,8.036,8.036,0,0,0,5.939-8.131c.75-2.122,2.59-6.371,5.6-7.453,0,0,2.7-1.689-1.663-5.651-3.423-3.111-4.576.156-4.576.156" transform="translate(0 -50.216)" fill="#ffe87d"/>
      </g>
      <g id="Group_250" data-name="Group 250" transform="translate(1528.26 613.29) rotate(142)">
        <path id="Path_160-4" data-name="Path 160" d="M676.62,386.944a10.669,10.669,0,0,1-7.7,12.813,10.341,10.341,0,0,1-12.578-7.72,10.669,10.669,0,0,1,7.7-12.812,10.342,10.342,0,0,1,12.578,7.72m-23.165,5.816a13.282,13.282,0,0,0,16.153,9.914,13.7,13.7,0,0,0,9.9-16.454,13.281,13.281,0,0,0-16.154-9.914,13.7,13.7,0,0,0-9.895,16.454" transform="translate(-31.303 0)" fill="#fecb40"/>
        <path id="Path_161-4" data-name="Path 161" d="M629.965,418.49s-.939-1.837-5.056-4.743-5.281-10.436-.919-14.488c4.129-3.835,13.934-2.51,21.683,4.3,8.124,7.14,11.367,14.768,7.148,22.046s-12.169,1.811-14.224-.472a34.009,34.009,0,0,0-5.627-4.6" transform="translate(-9.23 -14.712)" fill="#fff"/>
        <path id="Path_162-4" data-name="Path 162" d="M622.9,449.881a11.146,11.146,0,0,1-6.976,5.036,7.5,7.5,0,0,0-2.076.215,8.112,8.112,0,0,0-5.715,9.82,7.862,7.862,0,0,0,9.472,6.007,8.036,8.036,0,0,0,5.939-8.131c.75-2.122,2.59-6.371,5.6-7.453,0,0,2.7-1.689-1.663-5.651-3.423-3.111-4.576.156-4.576.156" transform="translate(0 -50.216)" fill="#ffe87d"/>
      </g>
      <g id="Group_251" data-name="Group 251" transform="translate(1573.26 613.29) rotate(142)">
        <path id="Path_160-5" data-name="Path 160" d="M676.62,386.944a10.669,10.669,0,0,1-7.7,12.813,10.341,10.341,0,0,1-12.578-7.72,10.669,10.669,0,0,1,7.7-12.812,10.342,10.342,0,0,1,12.578,7.72m-23.165,5.816a13.282,13.282,0,0,0,16.153,9.914,13.7,13.7,0,0,0,9.9-16.454,13.281,13.281,0,0,0-16.154-9.914,13.7,13.7,0,0,0-9.895,16.454" transform="translate(-31.303 0)" fill="#fecb40"/>
        <path id="Path_161-5" data-name="Path 161" d="M629.965,418.49s-.939-1.837-5.056-4.743-5.281-10.436-.919-14.488c4.129-3.835,13.934-2.51,21.683,4.3,8.124,7.14,11.367,14.768,7.148,22.046s-12.169,1.811-14.224-.472a34.009,34.009,0,0,0-5.627-4.6" transform="translate(-9.23 -14.712)" fill="#fff"/>
        <path id="Path_162-5" data-name="Path 162" d="M622.9,449.881a11.146,11.146,0,0,1-6.976,5.036,7.5,7.5,0,0,0-2.076.215,8.112,8.112,0,0,0-5.715,9.82,7.862,7.862,0,0,0,9.472,6.007,8.036,8.036,0,0,0,5.939-8.131c.75-2.122,2.59-6.371,5.6-7.453,0,0,2.7-1.689-1.663-5.651-3.423-3.111-4.576.156-4.576.156" transform="translate(0 -50.216)" fill="#ffe87d"/>
      </g>
      <g id="Group_252" data-name="Group 252" transform="translate(1619.26 613.29) rotate(142)">
        <path id="Path_160-6" data-name="Path 160" d="M676.62,386.944a10.669,10.669,0,0,1-7.7,12.813,10.341,10.341,0,0,1-12.578-7.72,10.669,10.669,0,0,1,7.7-12.812,10.342,10.342,0,0,1,12.578,7.72m-23.165,5.816a13.282,13.282,0,0,0,16.153,9.914,13.7,13.7,0,0,0,9.9-16.454,13.281,13.281,0,0,0-16.154-9.914,13.7,13.7,0,0,0-9.895,16.454" transform="translate(-31.303 0)" fill="#fecb40"/>
        <path id="Path_161-6" data-name="Path 161" d="M629.965,418.49s-.939-1.837-5.056-4.743-5.281-10.436-.919-14.488c4.129-3.835,13.934-2.51,21.683,4.3,8.124,7.14,11.367,14.768,7.148,22.046s-12.169,1.811-14.224-.472a34.009,34.009,0,0,0-5.627-4.6" transform="translate(-9.23 -14.712)" fill="#fff"/>
        <path id="Path_162-6" data-name="Path 162" d="M622.9,449.881a11.146,11.146,0,0,1-6.976,5.036,7.5,7.5,0,0,0-2.076.215,8.112,8.112,0,0,0-5.715,9.82,7.862,7.862,0,0,0,9.472,6.007,8.036,8.036,0,0,0,5.939-8.131c.75-2.122,2.59-6.371,5.6-7.453,0,0,2.7-1.689-1.663-5.651-3.423-3.111-4.576.156-4.576.156" transform="translate(0 -50.216)" fill="#ffe87d"/>
      </g>
      <g id="Group_253" data-name="Group 253" transform="translate(1664.26 613.29) rotate(142)">
        <path id="Path_160-7" data-name="Path 160" d="M676.62,386.944a10.669,10.669,0,0,1-7.7,12.813,10.341,10.341,0,0,1-12.578-7.72,10.669,10.669,0,0,1,7.7-12.812,10.342,10.342,0,0,1,12.578,7.72m-23.165,5.816a13.282,13.282,0,0,0,16.153,9.914,13.7,13.7,0,0,0,9.9-16.454,13.281,13.281,0,0,0-16.154-9.914,13.7,13.7,0,0,0-9.895,16.454" transform="translate(-31.303 0)" fill="#fecb40"/>
        <path id="Path_161-7" data-name="Path 161" d="M629.965,418.49s-.939-1.837-5.056-4.743-5.281-10.436-.919-14.488c4.129-3.835,13.934-2.51,21.683,4.3,8.124,7.14,11.367,14.768,7.148,22.046s-12.169,1.811-14.224-.472a34.009,34.009,0,0,0-5.627-4.6" transform="translate(-9.23 -14.712)" fill="#fff"/>
        <path id="Path_162-7" data-name="Path 162" d="M622.9,449.881a11.146,11.146,0,0,1-6.976,5.036,7.5,7.5,0,0,0-2.076.215,8.112,8.112,0,0,0-5.715,9.82,7.862,7.862,0,0,0,9.472,6.007,8.036,8.036,0,0,0,5.939-8.131c.75-2.122,2.59-6.371,5.6-7.453,0,0,2.7-1.689-1.663-5.651-3.423-3.111-4.576.156-4.576.156" transform="translate(0 -50.216)" fill="#ffe87d"/>
      </g>
      <g id="Group_254" data-name="Group 254" transform="translate(1709.26 613.29) rotate(142)">
        <path id="Path_160-8" data-name="Path 160" d="M676.62,386.944a10.669,10.669,0,0,1-7.7,12.813,10.341,10.341,0,0,1-12.578-7.72,10.669,10.669,0,0,1,7.7-12.812,10.342,10.342,0,0,1,12.578,7.72m-23.165,5.816a13.282,13.282,0,0,0,16.153,9.914,13.7,13.7,0,0,0,9.9-16.454,13.281,13.281,0,0,0-16.154-9.914,13.7,13.7,0,0,0-9.895,16.454" transform="translate(-31.303 0)" fill="#fecb40"/>
        <path id="Path_161-8" data-name="Path 161" d="M629.965,418.49s-.939-1.837-5.056-4.743-5.281-10.436-.919-14.488c4.129-3.835,13.934-2.51,21.683,4.3,8.124,7.14,11.367,14.768,7.148,22.046s-12.169,1.811-14.224-.472a34.009,34.009,0,0,0-5.627-4.6" transform="translate(-9.23 -14.712)" fill="#fff"/>
        <path id="Path_162-8" data-name="Path 162" d="M622.9,449.881a11.146,11.146,0,0,1-6.976,5.036,7.5,7.5,0,0,0-2.076.215,8.112,8.112,0,0,0-5.715,9.82,7.862,7.862,0,0,0,9.472,6.007,8.036,8.036,0,0,0,5.939-8.131c.75-2.122,2.59-6.371,5.6-7.453,0,0,2.7-1.689-1.663-5.651-3.423-3.111-4.576.156-4.576.156" transform="translate(0 -50.216)" fill="#ffe87d"/>
      </g>
      <g id="Group_255" data-name="Group 255" transform="translate(1754.26 613.29) rotate(142)">
        <path id="Path_160-9" data-name="Path 160" d="M676.62,386.944a10.669,10.669,0,0,1-7.7,12.813,10.341,10.341,0,0,1-12.578-7.72,10.669,10.669,0,0,1,7.7-12.812,10.342,10.342,0,0,1,12.578,7.72m-23.165,5.816a13.282,13.282,0,0,0,16.153,9.914,13.7,13.7,0,0,0,9.9-16.454,13.281,13.281,0,0,0-16.154-9.914,13.7,13.7,0,0,0-9.895,16.454" transform="translate(-31.303 0)" fill="#fecb40"/>
        <path id="Path_161-9" data-name="Path 161" d="M629.965,418.49s-.939-1.837-5.056-4.743-5.281-10.436-.919-14.488c4.129-3.835,13.934-2.51,21.683,4.3,8.124,7.14,11.367,14.768,7.148,22.046s-12.169,1.811-14.224-.472a34.009,34.009,0,0,0-5.627-4.6" transform="translate(-9.23 -14.712)" fill="#fff"/>
        <path id="Path_162-9" data-name="Path 162" d="M622.9,449.881a11.146,11.146,0,0,1-6.976,5.036,7.5,7.5,0,0,0-2.076.215,8.112,8.112,0,0,0-5.715,9.82,7.862,7.862,0,0,0,9.472,6.007,8.036,8.036,0,0,0,5.939-8.131c.75-2.122,2.59-6.371,5.6-7.453,0,0,2.7-1.689-1.663-5.651-3.423-3.111-4.576.156-4.576.156" transform="translate(0 -50.216)" fill="#ffe87d"/>
      </g>
      <g id="Group_256" data-name="Group 256" transform="translate(1800.26 613.29) rotate(142)">
        <path id="Path_160-10" data-name="Path 160" d="M676.62,386.944a10.669,10.669,0,0,1-7.7,12.813,10.341,10.341,0,0,1-12.578-7.72,10.669,10.669,0,0,1,7.7-12.812,10.342,10.342,0,0,1,12.578,7.72m-23.165,5.816a13.282,13.282,0,0,0,16.153,9.914,13.7,13.7,0,0,0,9.9-16.454,13.281,13.281,0,0,0-16.154-9.914,13.7,13.7,0,0,0-9.895,16.454" transform="translate(-31.303 0)" fill="#fecb40"/>
        <path id="Path_161-10" data-name="Path 161" d="M629.965,418.49s-.939-1.837-5.056-4.743-5.281-10.436-.919-14.488c4.129-3.835,13.934-2.51,21.683,4.3,8.124,7.14,11.367,14.768,7.148,22.046s-12.169,1.811-14.224-.472a34.009,34.009,0,0,0-5.627-4.6" transform="translate(-9.23 -14.712)" fill="#fff"/>
        <path id="Path_162-10" data-name="Path 162" d="M622.9,449.881a11.146,11.146,0,0,1-6.976,5.036,7.5,7.5,0,0,0-2.076.215,8.112,8.112,0,0,0-5.715,9.82,7.862,7.862,0,0,0,9.472,6.007,8.036,8.036,0,0,0,5.939-8.131c.75-2.122,2.59-6.371,5.6-7.453,0,0,2.7-1.689-1.663-5.651-3.423-3.111-4.576.156-4.576.156" transform="translate(0 -50.216)" fill="#ffe87d"/>
      </g>
      <g id="Group_257" data-name="Group 257" transform="translate(1845.26 613.29) rotate(142)">
        <path id="Path_160-11" data-name="Path 160" d="M676.62,386.944a10.669,10.669,0,0,1-7.7,12.813,10.341,10.341,0,0,1-12.578-7.72,10.669,10.669,0,0,1,7.7-12.812,10.342,10.342,0,0,1,12.578,7.72m-23.165,5.816a13.282,13.282,0,0,0,16.153,9.914,13.7,13.7,0,0,0,9.9-16.454,13.281,13.281,0,0,0-16.154-9.914,13.7,13.7,0,0,0-9.895,16.454" transform="translate(-31.303 0)" fill="#fecb40"/>
        <path id="Path_161-11" data-name="Path 161" d="M629.965,418.49s-.939-1.837-5.056-4.743-5.281-10.436-.919-14.488c4.129-3.835,13.934-2.51,21.683,4.3,8.124,7.14,11.367,14.768,7.148,22.046s-12.169,1.811-14.224-.472a34.009,34.009,0,0,0-5.627-4.6" transform="translate(-9.23 -14.712)" fill="#fff"/>
        <path id="Path_162-11" data-name="Path 162" d="M622.9,449.881a11.146,11.146,0,0,1-6.976,5.036,7.5,7.5,0,0,0-2.076.215,8.112,8.112,0,0,0-5.715,9.82,7.862,7.862,0,0,0,9.472,6.007,8.036,8.036,0,0,0,5.939-8.131c.75-2.122,2.59-6.371,5.6-7.453,0,0,2.7-1.689-1.663-5.651-3.423-3.111-4.576.156-4.576.156" transform="translate(0 -50.216)" fill="#ffe87d"/>
      </g>
      <g id="Group_258" data-name="Group 258" transform="translate(1890.26 613.29) rotate(142)">
        <path id="Path_160-12" data-name="Path 160" d="M676.62,386.944a10.669,10.669,0,0,1-7.7,12.813,10.341,10.341,0,0,1-12.578-7.72,10.669,10.669,0,0,1,7.7-12.812,10.342,10.342,0,0,1,12.578,7.72m-23.165,5.816a13.282,13.282,0,0,0,16.153,9.914,13.7,13.7,0,0,0,9.9-16.454,13.281,13.281,0,0,0-16.154-9.914,13.7,13.7,0,0,0-9.895,16.454" transform="translate(-31.303 0)" fill="#fecb40"/>
        <path id="Path_161-12" data-name="Path 161" d="M629.965,418.49s-.939-1.837-5.056-4.743-5.281-10.436-.919-14.488c4.129-3.835,13.934-2.51,21.683,4.3,8.124,7.14,11.367,14.768,7.148,22.046s-12.169,1.811-14.224-.472a34.009,34.009,0,0,0-5.627-4.6" transform="translate(-9.23 -14.712)" fill="#fff"/>
        <path id="Path_162-12" data-name="Path 162" d="M622.9,449.881a11.146,11.146,0,0,1-6.976,5.036,7.5,7.5,0,0,0-2.076.215,8.112,8.112,0,0,0-5.715,9.82,7.862,7.862,0,0,0,9.472,6.007,8.036,8.036,0,0,0,5.939-8.131c.75-2.122,2.59-6.371,5.6-7.453,0,0,2.7-1.689-1.663-5.651-3.423-3.111-4.576.156-4.576.156" transform="translate(0 -50.216)" fill="#ffe87d"/>
      </g>
      <g id="Group_259" data-name="Group 259" transform="translate(1936.26 613.29) rotate(142)">
        <path id="Path_160-13" data-name="Path 160" d="M676.62,386.944a10.669,10.669,0,0,1-7.7,12.813,10.341,10.341,0,0,1-12.578-7.72,10.669,10.669,0,0,1,7.7-12.812,10.342,10.342,0,0,1,12.578,7.72m-23.165,5.816a13.282,13.282,0,0,0,16.153,9.914,13.7,13.7,0,0,0,9.9-16.454,13.281,13.281,0,0,0-16.154-9.914,13.7,13.7,0,0,0-9.895,16.454" transform="translate(-31.303 0)" fill="#fecb40"/>
        <path id="Path_161-13" data-name="Path 161" d="M629.965,418.49s-.939-1.837-5.056-4.743-5.281-10.436-.919-14.488c4.129-3.835,13.934-2.51,21.683,4.3,8.124,7.14,11.367,14.768,7.148,22.046s-12.169,1.811-14.224-.472a34.009,34.009,0,0,0-5.627-4.6" transform="translate(-9.23 -14.712)" fill="#fff"/>
        <path id="Path_162-13" data-name="Path 162" d="M622.9,449.881a11.146,11.146,0,0,1-6.976,5.036,7.5,7.5,0,0,0-2.076.215,8.112,8.112,0,0,0-5.715,9.82,7.862,7.862,0,0,0,9.472,6.007,8.036,8.036,0,0,0,5.939-8.131c.75-2.122,2.59-6.371,5.6-7.453,0,0,2.7-1.689-1.663-5.651-3.423-3.111-4.576.156-4.576.156" transform="translate(0 -50.216)" fill="#ffe87d"/>
      </g>
      <g id="Group_260" data-name="Group 260" transform="translate(1981.26 613.29) rotate(142)">
        <path id="Path_160-14" data-name="Path 160" d="M676.62,386.944a10.669,10.669,0,0,1-7.7,12.813,10.341,10.341,0,0,1-12.578-7.72,10.669,10.669,0,0,1,7.7-12.812,10.342,10.342,0,0,1,12.578,7.72m-23.165,5.816a13.282,13.282,0,0,0,16.153,9.914,13.7,13.7,0,0,0,9.9-16.454,13.281,13.281,0,0,0-16.154-9.914,13.7,13.7,0,0,0-9.895,16.454" transform="translate(-31.303 0)" fill="#fecb40"/>
        <path id="Path_161-14" data-name="Path 161" d="M629.965,418.49s-.939-1.837-5.056-4.743-5.281-10.436-.919-14.488c4.129-3.835,13.934-2.51,21.683,4.3,8.124,7.14,11.367,14.768,7.148,22.046s-12.169,1.811-14.224-.472a34.009,34.009,0,0,0-5.627-4.6" transform="translate(-9.23 -14.712)" fill="#fff"/>
        <path id="Path_162-14" data-name="Path 162" d="M622.9,449.881a11.146,11.146,0,0,1-6.976,5.036,7.5,7.5,0,0,0-2.076.215,8.112,8.112,0,0,0-5.715,9.82,7.862,7.862,0,0,0,9.472,6.007,8.036,8.036,0,0,0,5.939-8.131c.75-2.122,2.59-6.371,5.6-7.453,0,0,2.7-1.689-1.663-5.651-3.423-3.111-4.576.156-4.576.156" transform="translate(0 -50.216)" fill="#ffe87d"/>
      </g>
    </g>
    <g id="Group_262" data-name="Group 262" transform="translate(366 -319.32)">
      <g id="Group_248-2" data-name="Group 248" transform="translate(1437.26 613.29) rotate(142)">
        <path id="Path_160-15" data-name="Path 160" d="M676.62,386.944a10.669,10.669,0,0,1-7.7,12.813,10.341,10.341,0,0,1-12.578-7.72,10.669,10.669,0,0,1,7.7-12.812,10.342,10.342,0,0,1,12.578,7.72m-23.165,5.816a13.282,13.282,0,0,0,16.153,9.914,13.7,13.7,0,0,0,9.9-16.454,13.281,13.281,0,0,0-16.154-9.914,13.7,13.7,0,0,0-9.895,16.454" transform="translate(-31.303 0)" fill="#fecb40"/>
        <path id="Path_161-15" data-name="Path 161" d="M629.965,418.49s-.939-1.837-5.056-4.743-5.281-10.436-.919-14.488c4.129-3.835,13.934-2.51,21.683,4.3,8.124,7.14,11.367,14.768,7.148,22.046s-12.169,1.811-14.224-.472a34.009,34.009,0,0,0-5.627-4.6" transform="translate(-9.23 -14.712)" fill="#fff"/>
        <path id="Path_162-15" data-name="Path 162" d="M622.9,449.881a11.146,11.146,0,0,1-6.976,5.036,7.5,7.5,0,0,0-2.076.215,8.112,8.112,0,0,0-5.715,9.82,7.862,7.862,0,0,0,9.472,6.007,8.036,8.036,0,0,0,5.939-8.131c.75-2.122,2.59-6.371,5.6-7.453,0,0,2.7-1.689-1.663-5.651-3.423-3.111-4.576.156-4.576.156" transform="translate(0 -50.216)" fill="#ffe87d"/>
      </g>
      <g id="Group_249-2" data-name="Group 249" transform="translate(1483.26 613.29) rotate(142)">
        <path id="Path_160-16" data-name="Path 160" d="M676.62,386.944a10.669,10.669,0,0,1-7.7,12.813,10.341,10.341,0,0,1-12.578-7.72,10.669,10.669,0,0,1,7.7-12.812,10.342,10.342,0,0,1,12.578,7.72m-23.165,5.816a13.282,13.282,0,0,0,16.153,9.914,13.7,13.7,0,0,0,9.9-16.454,13.281,13.281,0,0,0-16.154-9.914,13.7,13.7,0,0,0-9.895,16.454" transform="translate(-31.303 0)" fill="#fecb40"/>
        <path id="Path_161-16" data-name="Path 161" d="M629.965,418.49s-.939-1.837-5.056-4.743-5.281-10.436-.919-14.488c4.129-3.835,13.934-2.51,21.683,4.3,8.124,7.14,11.367,14.768,7.148,22.046s-12.169,1.811-14.224-.472a34.009,34.009,0,0,0-5.627-4.6" transform="translate(-9.23 -14.712)" fill="#fff"/>
        <path id="Path_162-16" data-name="Path 162" d="M622.9,449.881a11.146,11.146,0,0,1-6.976,5.036,7.5,7.5,0,0,0-2.076.215,8.112,8.112,0,0,0-5.715,9.82,7.862,7.862,0,0,0,9.472,6.007,8.036,8.036,0,0,0,5.939-8.131c.75-2.122,2.59-6.371,5.6-7.453,0,0,2.7-1.689-1.663-5.651-3.423-3.111-4.576.156-4.576.156" transform="translate(0 -50.216)" fill="#ffe87d"/>
      </g>
      <g id="Group_251-2" data-name="Group 251" transform="translate(1573.26 613.29) rotate(142)">
        <path id="Path_160-17" data-name="Path 160" d="M676.62,386.944a10.669,10.669,0,0,1-7.7,12.813,10.341,10.341,0,0,1-12.578-7.72,10.669,10.669,0,0,1,7.7-12.812,10.342,10.342,0,0,1,12.578,7.72m-23.165,5.816a13.282,13.282,0,0,0,16.153,9.914,13.7,13.7,0,0,0,9.9-16.454,13.281,13.281,0,0,0-16.154-9.914,13.7,13.7,0,0,0-9.895,16.454" transform="translate(-31.303 0)" fill="#fecb40"/>
        <path id="Path_161-17" data-name="Path 161" d="M629.965,418.49s-.939-1.837-5.056-4.743-5.281-10.436-.919-14.488c4.129-3.835,13.934-2.51,21.683,4.3,8.124,7.14,11.367,14.768,7.148,22.046s-12.169,1.811-14.224-.472a34.009,34.009,0,0,0-5.627-4.6" transform="translate(-9.23 -14.712)" fill="#fff"/>
        <path id="Path_162-17" data-name="Path 162" d="M622.9,449.881a11.146,11.146,0,0,1-6.976,5.036,7.5,7.5,0,0,0-2.076.215,8.112,8.112,0,0,0-5.715,9.82,7.862,7.862,0,0,0,9.472,6.007,8.036,8.036,0,0,0,5.939-8.131c.75-2.122,2.59-6.371,5.6-7.453,0,0,2.7-1.689-1.663-5.651-3.423-3.111-4.576.156-4.576.156" transform="translate(0 -50.216)" fill="#ffe87d"/>
      </g>
      <g id="Group_252-2" data-name="Group 252" transform="translate(1619.26 613.29) rotate(142)">
        <path id="Path_160-18" data-name="Path 160" d="M676.62,386.944a10.669,10.669,0,0,1-7.7,12.813,10.341,10.341,0,0,1-12.578-7.72,10.669,10.669,0,0,1,7.7-12.812,10.342,10.342,0,0,1,12.578,7.72m-23.165,5.816a13.282,13.282,0,0,0,16.153,9.914,13.7,13.7,0,0,0,9.9-16.454,13.281,13.281,0,0,0-16.154-9.914,13.7,13.7,0,0,0-9.895,16.454" transform="translate(-31.303 0)" fill="#fecb40"/>
        <path id="Path_161-18" data-name="Path 161" d="M629.965,418.49s-.939-1.837-5.056-4.743-5.281-10.436-.919-14.488c4.129-3.835,13.934-2.51,21.683,4.3,8.124,7.14,11.367,14.768,7.148,22.046s-12.169,1.811-14.224-.472a34.009,34.009,0,0,0-5.627-4.6" transform="translate(-9.23 -14.712)" fill="#fff"/>
        <path id="Path_162-18" data-name="Path 162" d="M622.9,449.881a11.146,11.146,0,0,1-6.976,5.036,7.5,7.5,0,0,0-2.076.215,8.112,8.112,0,0,0-5.715,9.82,7.862,7.862,0,0,0,9.472,6.007,8.036,8.036,0,0,0,5.939-8.131c.75-2.122,2.59-6.371,5.6-7.453,0,0,2.7-1.689-1.663-5.651-3.423-3.111-4.576.156-4.576.156" transform="translate(0 -50.216)" fill="#ffe87d"/>
      </g>
      <g id="Group_253-2" data-name="Group 253" transform="translate(1664.26 613.29) rotate(142)">
        <path id="Path_160-19" data-name="Path 160" d="M676.62,386.944a10.669,10.669,0,0,1-7.7,12.813,10.341,10.341,0,0,1-12.578-7.72,10.669,10.669,0,0,1,7.7-12.812,10.342,10.342,0,0,1,12.578,7.72m-23.165,5.816a13.282,13.282,0,0,0,16.153,9.914,13.7,13.7,0,0,0,9.9-16.454,13.281,13.281,0,0,0-16.154-9.914,13.7,13.7,0,0,0-9.895,16.454" transform="translate(-31.303 0)" fill="#fecb40"/>
        <path id="Path_161-19" data-name="Path 161" d="M629.965,418.49s-.939-1.837-5.056-4.743-5.281-10.436-.919-14.488c4.129-3.835,13.934-2.51,21.683,4.3,8.124,7.14,11.367,14.768,7.148,22.046s-12.169,1.811-14.224-.472a34.009,34.009,0,0,0-5.627-4.6" transform="translate(-9.23 -14.712)" fill="#fff"/>
        <path id="Path_162-19" data-name="Path 162" d="M622.9,449.881a11.146,11.146,0,0,1-6.976,5.036,7.5,7.5,0,0,0-2.076.215,8.112,8.112,0,0,0-5.715,9.82,7.862,7.862,0,0,0,9.472,6.007,8.036,8.036,0,0,0,5.939-8.131c.75-2.122,2.59-6.371,5.6-7.453,0,0,2.7-1.689-1.663-5.651-3.423-3.111-4.576.156-4.576.156" transform="translate(0 -50.216)" fill="#ffe87d"/>
      </g>
      <g id="Group_254-2" data-name="Group 254" transform="translate(1709.26 613.29) rotate(142)">
        <path id="Path_160-20" data-name="Path 160" d="M676.62,386.944a10.669,10.669,0,0,1-7.7,12.813,10.341,10.341,0,0,1-12.578-7.72,10.669,10.669,0,0,1,7.7-12.812,10.342,10.342,0,0,1,12.578,7.72m-23.165,5.816a13.282,13.282,0,0,0,16.153,9.914,13.7,13.7,0,0,0,9.9-16.454,13.281,13.281,0,0,0-16.154-9.914,13.7,13.7,0,0,0-9.895,16.454" transform="translate(-31.303 0)" fill="#fecb40"/>
        <path id="Path_161-20" data-name="Path 161" d="M629.965,418.49s-.939-1.837-5.056-4.743-5.281-10.436-.919-14.488c4.129-3.835,13.934-2.51,21.683,4.3,8.124,7.14,11.367,14.768,7.148,22.046s-12.169,1.811-14.224-.472a34.009,34.009,0,0,0-5.627-4.6" transform="translate(-9.23 -14.712)" fill="#fff"/>
        <path id="Path_162-20" data-name="Path 162" d="M622.9,449.881a11.146,11.146,0,0,1-6.976,5.036,7.5,7.5,0,0,0-2.076.215,8.112,8.112,0,0,0-5.715,9.82,7.862,7.862,0,0,0,9.472,6.007,8.036,8.036,0,0,0,5.939-8.131c.75-2.122,2.59-6.371,5.6-7.453,0,0,2.7-1.689-1.663-5.651-3.423-3.111-4.576.156-4.576.156" transform="translate(0 -50.216)" fill="#ffe87d"/>
      </g>
      <g id="Group_256-2" data-name="Group 256" transform="translate(1800.26 613.29) rotate(142)">
        <path id="Path_160-21" data-name="Path 160" d="M676.62,386.944a10.669,10.669,0,0,1-7.7,12.813,10.341,10.341,0,0,1-12.578-7.72,10.669,10.669,0,0,1,7.7-12.812,10.342,10.342,0,0,1,12.578,7.72m-23.165,5.816a13.282,13.282,0,0,0,16.153,9.914,13.7,13.7,0,0,0,9.9-16.454,13.281,13.281,0,0,0-16.154-9.914,13.7,13.7,0,0,0-9.895,16.454" transform="translate(-31.303 0)" fill="#fecb40"/>
        <path id="Path_161-21" data-name="Path 161" d="M629.965,418.49s-.939-1.837-5.056-4.743-5.281-10.436-.919-14.488c4.129-3.835,13.934-2.51,21.683,4.3,8.124,7.14,11.367,14.768,7.148,22.046s-12.169,1.811-14.224-.472a34.009,34.009,0,0,0-5.627-4.6" transform="translate(-9.23 -14.712)" fill="#fff"/>
        <path id="Path_162-21" data-name="Path 162" d="M622.9,449.881a11.146,11.146,0,0,1-6.976,5.036,7.5,7.5,0,0,0-2.076.215,8.112,8.112,0,0,0-5.715,9.82,7.862,7.862,0,0,0,9.472,6.007,8.036,8.036,0,0,0,5.939-8.131c.75-2.122,2.59-6.371,5.6-7.453,0,0,2.7-1.689-1.663-5.651-3.423-3.111-4.576.156-4.576.156" transform="translate(0 -50.216)" fill="#ffe87d"/>
      </g>
      <g id="Group_257-2" data-name="Group 257" transform="translate(1845.26 613.29) rotate(142)">
        <path id="Path_160-22" data-name="Path 160" d="M676.62,386.944a10.669,10.669,0,0,1-7.7,12.813,10.341,10.341,0,0,1-12.578-7.72,10.669,10.669,0,0,1,7.7-12.812,10.342,10.342,0,0,1,12.578,7.72m-23.165,5.816a13.282,13.282,0,0,0,16.153,9.914,13.7,13.7,0,0,0,9.9-16.454,13.281,13.281,0,0,0-16.154-9.914,13.7,13.7,0,0,0-9.895,16.454" transform="translate(-31.303 0)" fill="#fecb40"/>
        <path id="Path_161-22" data-name="Path 161" d="M629.965,418.49s-.939-1.837-5.056-4.743-5.281-10.436-.919-14.488c4.129-3.835,13.934-2.51,21.683,4.3,8.124,7.14,11.367,14.768,7.148,22.046s-12.169,1.811-14.224-.472a34.009,34.009,0,0,0-5.627-4.6" transform="translate(-9.23 -14.712)" fill="#fff"/>
        <path id="Path_162-22" data-name="Path 162" d="M622.9,449.881a11.146,11.146,0,0,1-6.976,5.036,7.5,7.5,0,0,0-2.076.215,8.112,8.112,0,0,0-5.715,9.82,7.862,7.862,0,0,0,9.472,6.007,8.036,8.036,0,0,0,5.939-8.131c.75-2.122,2.59-6.371,5.6-7.453,0,0,2.7-1.689-1.663-5.651-3.423-3.111-4.576.156-4.576.156" transform="translate(0 -50.216)" fill="#ffe87d"/>
      </g>
      <g id="Group_258-2" data-name="Group 258" transform="translate(1890.26 613.29) rotate(142)">
        <path id="Path_160-23" data-name="Path 160" d="M676.62,386.944a10.669,10.669,0,0,1-7.7,12.813,10.341,10.341,0,0,1-12.578-7.72,10.669,10.669,0,0,1,7.7-12.812,10.342,10.342,0,0,1,12.578,7.72m-23.165,5.816a13.282,13.282,0,0,0,16.153,9.914,13.7,13.7,0,0,0,9.9-16.454,13.281,13.281,0,0,0-16.154-9.914,13.7,13.7,0,0,0-9.895,16.454" transform="translate(-31.303 0)" fill="#fecb40"/>
        <path id="Path_161-23" data-name="Path 161" d="M629.965,418.49s-.939-1.837-5.056-4.743-5.281-10.436-.919-14.488c4.129-3.835,13.934-2.51,21.683,4.3,8.124,7.14,11.367,14.768,7.148,22.046s-12.169,1.811-14.224-.472a34.009,34.009,0,0,0-5.627-4.6" transform="translate(-9.23 -14.712)" fill="#fff"/>
        <path id="Path_162-23" data-name="Path 162" d="M622.9,449.881a11.146,11.146,0,0,1-6.976,5.036,7.5,7.5,0,0,0-2.076.215,8.112,8.112,0,0,0-5.715,9.82,7.862,7.862,0,0,0,9.472,6.007,8.036,8.036,0,0,0,5.939-8.131c.75-2.122,2.59-6.371,5.6-7.453,0,0,2.7-1.689-1.663-5.651-3.423-3.111-4.576.156-4.576.156" transform="translate(0 -50.216)" fill="#ffe87d"/>
      </g>
      <g id="Group_259-2" data-name="Group 259" transform="translate(1936.26 613.29) rotate(142)">
        <path id="Path_160-24" data-name="Path 160" d="M676.62,386.944a10.669,10.669,0,0,1-7.7,12.813,10.341,10.341,0,0,1-12.578-7.72,10.669,10.669,0,0,1,7.7-12.812,10.342,10.342,0,0,1,12.578,7.72m-23.165,5.816a13.282,13.282,0,0,0,16.153,9.914,13.7,13.7,0,0,0,9.9-16.454,13.281,13.281,0,0,0-16.154-9.914,13.7,13.7,0,0,0-9.895,16.454" transform="translate(-31.303 0)" fill="#fecb40"/>
        <path id="Path_161-24" data-name="Path 161" d="M629.965,418.49s-.939-1.837-5.056-4.743-5.281-10.436-.919-14.488c4.129-3.835,13.934-2.51,21.683,4.3,8.124,7.14,11.367,14.768,7.148,22.046s-12.169,1.811-14.224-.472a34.009,34.009,0,0,0-5.627-4.6" transform="translate(-9.23 -14.712)" fill="#fff"/>
        <path id="Path_162-24" data-name="Path 162" d="M622.9,449.881a11.146,11.146,0,0,1-6.976,5.036,7.5,7.5,0,0,0-2.076.215,8.112,8.112,0,0,0-5.715,9.82,7.862,7.862,0,0,0,9.472,6.007,8.036,8.036,0,0,0,5.939-8.131c.75-2.122,2.59-6.371,5.6-7.453,0,0,2.7-1.689-1.663-5.651-3.423-3.111-4.576.156-4.576.156" transform="translate(0 -50.216)" fill="#ffe87d"/>
      </g>
    </g>
    <g id="Group_263" data-name="Group 263" transform="translate(366 -252.32)">
      <g id="Group_249-3" data-name="Group 249" transform="translate(1483.26 613.29) rotate(142)">
        <path id="Path_160-25" data-name="Path 160" d="M676.62,386.944a10.669,10.669,0,0,1-7.7,12.813,10.341,10.341,0,0,1-12.578-7.72,10.669,10.669,0,0,1,7.7-12.812,10.342,10.342,0,0,1,12.578,7.72m-23.165,5.816a13.282,13.282,0,0,0,16.153,9.914,13.7,13.7,0,0,0,9.9-16.454,13.281,13.281,0,0,0-16.154-9.914,13.7,13.7,0,0,0-9.895,16.454" transform="translate(-31.303 0)" fill="#fecb40"/>
        <path id="Path_161-25" data-name="Path 161" d="M629.965,418.49s-.939-1.837-5.056-4.743-5.281-10.436-.919-14.488c4.129-3.835,13.934-2.51,21.683,4.3,8.124,7.14,11.367,14.768,7.148,22.046s-12.169,1.811-14.224-.472a34.009,34.009,0,0,0-5.627-4.6" transform="translate(-9.23 -14.712)" fill="#fff"/>
        <path id="Path_162-25" data-name="Path 162" d="M622.9,449.881a11.146,11.146,0,0,1-6.976,5.036,7.5,7.5,0,0,0-2.076.215,8.112,8.112,0,0,0-5.715,9.82,7.862,7.862,0,0,0,9.472,6.007,8.036,8.036,0,0,0,5.939-8.131c.75-2.122,2.59-6.371,5.6-7.453,0,0,2.7-1.689-1.663-5.651-3.423-3.111-4.576.156-4.576.156" transform="translate(0 -50.216)" fill="#ffe87d"/>
      </g>
      <g id="Group_252-3" data-name="Group 252" transform="translate(1619.26 613.29) rotate(142)">
        <path id="Path_160-26" data-name="Path 160" d="M676.62,386.944a10.669,10.669,0,0,1-7.7,12.813,10.341,10.341,0,0,1-12.578-7.72,10.669,10.669,0,0,1,7.7-12.812,10.342,10.342,0,0,1,12.578,7.72m-23.165,5.816a13.282,13.282,0,0,0,16.153,9.914,13.7,13.7,0,0,0,9.9-16.454,13.281,13.281,0,0,0-16.154-9.914,13.7,13.7,0,0,0-9.895,16.454" transform="translate(-31.303 0)" fill="#fecb40"/>
        <path id="Path_161-26" data-name="Path 161" d="M629.965,418.49s-.939-1.837-5.056-4.743-5.281-10.436-.919-14.488c4.129-3.835,13.934-2.51,21.683,4.3,8.124,7.14,11.367,14.768,7.148,22.046s-12.169,1.811-14.224-.472a34.009,34.009,0,0,0-5.627-4.6" transform="translate(-9.23 -14.712)" fill="#fff"/>
        <path id="Path_162-26" data-name="Path 162" d="M622.9,449.881a11.146,11.146,0,0,1-6.976,5.036,7.5,7.5,0,0,0-2.076.215,8.112,8.112,0,0,0-5.715,9.82,7.862,7.862,0,0,0,9.472,6.007,8.036,8.036,0,0,0,5.939-8.131c.75-2.122,2.59-6.371,5.6-7.453,0,0,2.7-1.689-1.663-5.651-3.423-3.111-4.576.156-4.576.156" transform="translate(0 -50.216)" fill="#ffe87d"/>
      </g>
      <g id="Group_253-3" data-name="Group 253" transform="translate(1664.26 613.29) rotate(142)">
        <path id="Path_160-27" data-name="Path 160" d="M676.62,386.944a10.669,10.669,0,0,1-7.7,12.813,10.341,10.341,0,0,1-12.578-7.72,10.669,10.669,0,0,1,7.7-12.812,10.342,10.342,0,0,1,12.578,7.72m-23.165,5.816a13.282,13.282,0,0,0,16.153,9.914,13.7,13.7,0,0,0,9.9-16.454,13.281,13.281,0,0,0-16.154-9.914,13.7,13.7,0,0,0-9.895,16.454" transform="translate(-31.303 0)" fill="#fecb40"/>
        <path id="Path_161-27" data-name="Path 161" d="M629.965,418.49s-.939-1.837-5.056-4.743-5.281-10.436-.919-14.488c4.129-3.835,13.934-2.51,21.683,4.3,8.124,7.14,11.367,14.768,7.148,22.046s-12.169,1.811-14.224-.472a34.009,34.009,0,0,0-5.627-4.6" transform="translate(-9.23 -14.712)" fill="#fff"/>
        <path id="Path_162-27" data-name="Path 162" d="M622.9,449.881a11.146,11.146,0,0,1-6.976,5.036,7.5,7.5,0,0,0-2.076.215,8.112,8.112,0,0,0-5.715,9.82,7.862,7.862,0,0,0,9.472,6.007,8.036,8.036,0,0,0,5.939-8.131c.75-2.122,2.59-6.371,5.6-7.453,0,0,2.7-1.689-1.663-5.651-3.423-3.111-4.576.156-4.576.156" transform="translate(0 -50.216)" fill="#ffe87d"/>
      </g>
      <g id="Group_254-3" data-name="Group 254" transform="translate(1709.26 613.29) rotate(142)">
        <path id="Path_160-28" data-name="Path 160" d="M676.62,386.944a10.669,10.669,0,0,1-7.7,12.813,10.341,10.341,0,0,1-12.578-7.72,10.669,10.669,0,0,1,7.7-12.812,10.342,10.342,0,0,1,12.578,7.72m-23.165,5.816a13.282,13.282,0,0,0,16.153,9.914,13.7,13.7,0,0,0,9.9-16.454,13.281,13.281,0,0,0-16.154-9.914,13.7,13.7,0,0,0-9.895,16.454" transform="translate(-31.303 0)" fill="#fecb40"/>
        <path id="Path_161-28" data-name="Path 161" d="M629.965,418.49s-.939-1.837-5.056-4.743-5.281-10.436-.919-14.488c4.129-3.835,13.934-2.51,21.683,4.3,8.124,7.14,11.367,14.768,7.148,22.046s-12.169,1.811-14.224-.472a34.009,34.009,0,0,0-5.627-4.6" transform="translate(-9.23 -14.712)" fill="#fff"/>
        <path id="Path_162-28" data-name="Path 162" d="M622.9,449.881a11.146,11.146,0,0,1-6.976,5.036,7.5,7.5,0,0,0-2.076.215,8.112,8.112,0,0,0-5.715,9.82,7.862,7.862,0,0,0,9.472,6.007,8.036,8.036,0,0,0,5.939-8.131c.75-2.122,2.59-6.371,5.6-7.453,0,0,2.7-1.689-1.663-5.651-3.423-3.111-4.576.156-4.576.156" transform="translate(0 -50.216)" fill="#ffe87d"/>
      </g>
      <g id="Group_257-3" data-name="Group 257" transform="translate(1845.26 613.29) rotate(142)">
        <path id="Path_160-29" data-name="Path 160" d="M676.62,386.944a10.669,10.669,0,0,1-7.7,12.813,10.341,10.341,0,0,1-12.578-7.72,10.669,10.669,0,0,1,7.7-12.812,10.342,10.342,0,0,1,12.578,7.72m-23.165,5.816a13.282,13.282,0,0,0,16.153,9.914,13.7,13.7,0,0,0,9.9-16.454,13.281,13.281,0,0,0-16.154-9.914,13.7,13.7,0,0,0-9.895,16.454" transform="translate(-31.303 0)" fill="#fecb40"/>
        <path id="Path_161-29" data-name="Path 161" d="M629.965,418.49s-.939-1.837-5.056-4.743-5.281-10.436-.919-14.488c4.129-3.835,13.934-2.51,21.683,4.3,8.124,7.14,11.367,14.768,7.148,22.046s-12.169,1.811-14.224-.472a34.009,34.009,0,0,0-5.627-4.6" transform="translate(-9.23 -14.712)" fill="#fff"/>
        <path id="Path_162-29" data-name="Path 162" d="M622.9,449.881a11.146,11.146,0,0,1-6.976,5.036,7.5,7.5,0,0,0-2.076.215,8.112,8.112,0,0,0-5.715,9.82,7.862,7.862,0,0,0,9.472,6.007,8.036,8.036,0,0,0,5.939-8.131c.75-2.122,2.59-6.371,5.6-7.453,0,0,2.7-1.689-1.663-5.651-3.423-3.111-4.576.156-4.576.156" transform="translate(0 -50.216)" fill="#ffe87d"/>
      </g>
    </g>
    <g id="Group_265" data-name="Group 265" transform="translate(-7645 -459.365)">
      <rect id="Rectangle_228" data-name="Rectangle 228" width="84" height="22" transform="translate(8900 1517.365)" fill="#fff"/>
      <rect id="Rectangle_230" data-name="Rectangle 230" width="48" height="21" transform="translate(8918 1496.365)" fill="#fff"/>
      <rect id="Rectangle_231" data-name="Rectangle 231" width="9" height="9" transform="translate(8938 1487.365)" fill="#fff"/>
    </g>
    <path id="Path_345" data-name="Path 345" d="M351.268,51.637s1.7-4.35,5.683-2.963.826,8.668-5.5,14.014c0,0-11.044-8.837-6.9-13.439,3.946-4.384,6.716,2.387,6.716,2.387" transform="translate(848.331 472.228)" fill="#ffdb28"/>
    <path id="Path_346" data-name="Path 346" d="M351.268,51.637s1.7-4.35,5.683-2.963.826,8.668-5.5,14.014c0,0-11.044-8.837-6.9-13.439,3.946-4.384,6.716,2.387,6.716,2.387" transform="translate(1078.331 633.228)" fill="#ffdb28"/>
    <path id="Path_347" data-name="Path 347" d="M351.268,51.637s1.7-4.35,5.683-2.963.826,8.668-5.5,14.014c0,0-11.044-8.837-6.9-13.439,3.946-4.384,6.716,2.387,6.716,2.387" transform="translate(668.331 399.228)" fill="#ffdb28"/>
    <path id="Path_348" data-name="Path 348" d="M351.268,51.637s1.7-4.35,5.683-2.963.826,8.668-5.5,14.014c0,0-11.044-8.837-6.9-13.439,3.946-4.384,6.716,2.387,6.716,2.387" transform="translate(945.331 735.228)" fill="#ffdb28"/>
    <path id="Path_349" data-name="Path 349" d="M351.268,51.637s1.7-4.35,5.683-2.963.826,8.668-5.5,14.014c0,0-11.044-8.837-6.9-13.439,3.946-4.384,6.716,2.387,6.716,2.387" transform="translate(945.331 801.228)" fill="#ffdb28"/>
    <path id="Path_350" data-name="Path 350" d="M351.268,51.637s1.7-4.35,5.683-2.963.826,8.668-5.5,14.014c0,0-11.044-8.837-6.9-13.439,3.946-4.384,6.716,2.387,6.716,2.387" transform="translate(945.331 867.228)" fill="#ffdb28"/>
    <path id="Path_351" data-name="Path 351" d="M351.268,51.637s1.7-4.35,5.683-2.963.826,8.668-5.5,14.014c0,0-11.044-8.837-6.9-13.439,3.946-4.384,6.716,2.387,6.716,2.387" transform="translate(945.331 933.228)" fill="#ffdb28"/>
  </g>
</svg>
