<svg height="810.5" viewBox="0 0 635.134 810.5" width="635.134" xmlns="http://www.w3.org/2000/svg"><path d="m676.62 386.944a10.669 10.669 0 0 1 -7.7 12.813 10.341 10.341 0 0 1 -12.578-7.72 10.669 10.669 0 0 1 7.7-12.812 10.342 10.342 0 0 1 12.578 7.72m-23.165 5.816a13.282 13.282 0 0 0 16.153 9.914 13.7 13.7 0 0 0 9.9-16.454 13.281 13.281 0 0 0 -16.154-9.914 13.7 13.7 0 0 0 -9.895 16.454" fill="#fecb40" transform="matrix(-.78801075 .61566148 -.61566148 -.78801075 788.502101 -61.802051)"/><path d="m629.965 418.49s-.939-1.837-5.056-4.743-5.281-10.436-.919-14.488c4.129-3.835 13.934-2.51 21.683 4.3 8.124 7.14 11.367 14.768 7.148 22.046s-12.169 1.811-14.224-.472a34.009 34.009 0 0 0 -5.627-4.6" fill="#fff" transform="matrix(-.78801075 .61566148 -.61566148 -.78801075 780.165951 -36.619341)"/><path d="m622.9 449.881a11.146 11.146 0 0 1 -6.976 5.036 7.5 7.5 0 0 0 -2.076.215 8.112 8.112 0 0 0 -5.715 9.82 7.862 7.862 0 0 0 9.472 6.007 8.036 8.036 0 0 0 5.939-8.131c.75-2.122 2.59-6.371 5.6-7.453 0 0 2.7-1.689-1.663-5.651-3.423-3.111-4.576.156-4.576.156" fill="#ffe87d" transform="matrix(-.78801075 .61566148 -.61566148 -.78801075 794.751057 -2.959252)"/><path d="m676.62 386.944a10.669 10.669 0 0 1 -7.7 12.813 10.341 10.341 0 0 1 -12.578-7.72 10.669 10.669 0 0 1 7.7-12.812 10.342 10.342 0 0 1 12.578 7.72m-23.165 5.816a13.282 13.282 0 0 0 16.153 9.914 13.7 13.7 0 0 0 9.9-16.454 13.281 13.281 0 0 0 -16.154-9.914 13.7 13.7 0 0 0 -9.895 16.454" fill="#fecb40" transform="matrix(-.78801075 .61566148 -.61566148 -.78801075 833.502101 -61.802051)"/><path d="m629.965 418.49s-.939-1.837-5.056-4.743-5.281-10.436-.919-14.488c4.129-3.835 13.934-2.51 21.683 4.3 8.124 7.14 11.367 14.768 7.148 22.046s-12.169 1.811-14.224-.472a34.009 34.009 0 0 0 -5.627-4.6" fill="#fff" transform="matrix(-.78801075 .61566148 -.61566148 -.78801075 825.165951 -36.619341)"/><path d="m622.9 449.881a11.146 11.146 0 0 1 -6.976 5.036 7.5 7.5 0 0 0 -2.076.215 8.112 8.112 0 0 0 -5.715 9.82 7.862 7.862 0 0 0 9.472 6.007 8.036 8.036 0 0 0 5.939-8.131c.75-2.122 2.59-6.371 5.6-7.453 0 0 2.7-1.689-1.663-5.651-3.423-3.111-4.576.156-4.576.156" fill="#ffe87d" transform="matrix(-.78801075 .61566148 -.61566148 -.78801075 839.751057 -2.959252)"/><path d="m676.62 386.944a10.669 10.669 0 0 1 -7.7 12.813 10.341 10.341 0 0 1 -12.578-7.72 10.669 10.669 0 0 1 7.7-12.812 10.342 10.342 0 0 1 12.578 7.72m-23.165 5.816a13.282 13.282 0 0 0 16.153 9.914 13.7 13.7 0 0 0 9.9-16.454 13.281 13.281 0 0 0 -16.154-9.914 13.7 13.7 0 0 0 -9.895 16.454" fill="#fecb40" transform="matrix(-.78801075 .61566148 -.61566148 -.78801075 879.502101 -61.802051)"/><path d="m629.965 418.49s-.939-1.837-5.056-4.743-5.281-10.436-.919-14.488c4.129-3.835 13.934-2.51 21.683 4.3 8.124 7.14 11.367 14.768 7.148 22.046s-12.169 1.811-14.224-.472a34.009 34.009 0 0 0 -5.627-4.6" fill="#fff" transform="matrix(-.78801075 .61566148 -.61566148 -.78801075 871.165951 -36.619341)"/><path d="m622.9 449.881a11.146 11.146 0 0 1 -6.976 5.036 7.5 7.5 0 0 0 -2.076.215 8.112 8.112 0 0 0 -5.715 9.82 7.862 7.862 0 0 0 9.472 6.007 8.036 8.036 0 0 0 5.939-8.131c.75-2.122 2.59-6.371 5.6-7.453 0 0 2.7-1.689-1.663-5.651-3.423-3.111-4.576.156-4.576.156" fill="#ffe87d" transform="matrix(-.78801075 .61566148 -.61566148 -.78801075 885.751057 -2.959252)"/><path d="m676.62 386.944a10.669 10.669 0 0 1 -7.7 12.813 10.341 10.341 0 0 1 -12.578-7.72 10.669 10.669 0 0 1 7.7-12.812 10.342 10.342 0 0 1 12.578 7.72m-23.165 5.816a13.282 13.282 0 0 0 16.153 9.914 13.7 13.7 0 0 0 9.9-16.454 13.281 13.281 0 0 0 -16.154-9.914 13.7 13.7 0 0 0 -9.895 16.454" fill="#fecb40" transform="matrix(-.78801075 .61566148 -.61566148 -.78801075 924.502101 -61.802051)"/><path d="m629.965 418.49s-.939-1.837-5.056-4.743-5.281-10.436-.919-14.488c4.129-3.835 13.934-2.51 21.683 4.3 8.124 7.14 11.367 14.768 7.148 22.046s-12.169 1.811-14.224-.472a34.009 34.009 0 0 0 -5.627-4.6" fill="#fff" transform="matrix(-.78801075 .61566148 -.61566148 -.78801075 916.165951 -36.619341)"/><path d="m622.9 449.881a11.146 11.146 0 0 1 -6.976 5.036 7.5 7.5 0 0 0 -2.076.215 8.112 8.112 0 0 0 -5.715 9.82 7.862 7.862 0 0 0 9.472 6.007 8.036 8.036 0 0 0 5.939-8.131c.75-2.122 2.59-6.371 5.6-7.453 0 0 2.7-1.689-1.663-5.651-3.423-3.111-4.576.156-4.576.156" fill="#ffe87d" transform="matrix(-.78801075 .61566148 -.61566148 -.78801075 930.751057 -2.959252)"/><path d="m676.62 386.944a10.669 10.669 0 0 1 -7.7 12.813 10.341 10.341 0 0 1 -12.578-7.72 10.669 10.669 0 0 1 7.7-12.812 10.342 10.342 0 0 1 12.578 7.72m-23.165 5.816a13.282 13.282 0 0 0 16.153 9.914 13.7 13.7 0 0 0 9.9-16.454 13.281 13.281 0 0 0 -16.154-9.914 13.7 13.7 0 0 0 -9.895 16.454" fill="#fecb40" transform="matrix(-.78801075 .61566148 -.61566148 -.78801075 969.502101 -61.802051)"/><path d="m629.965 418.49s-.939-1.837-5.056-4.743-5.281-10.436-.919-14.488c4.129-3.835 13.934-2.51 21.683 4.3 8.124 7.14 11.367 14.768 7.148 22.046s-12.169 1.811-14.224-.472a34.009 34.009 0 0 0 -5.627-4.6" fill="#fff" transform="matrix(-.78801075 .61566148 -.61566148 -.78801075 961.165951 -36.619341)"/><path d="m622.9 449.881a11.146 11.146 0 0 1 -6.976 5.036 7.5 7.5 0 0 0 -2.076.215 8.112 8.112 0 0 0 -5.715 9.82 7.862 7.862 0 0 0 9.472 6.007 8.036 8.036 0 0 0 5.939-8.131c.75-2.122 2.59-6.371 5.6-7.453 0 0 2.7-1.689-1.663-5.651-3.423-3.111-4.576.156-4.576.156" fill="#ffe87d" transform="matrix(-.78801075 .61566148 -.61566148 -.78801075 975.751057 -2.959252)"/><path d="m676.62 386.944a10.669 10.669 0 0 1 -7.7 12.813 10.341 10.341 0 0 1 -12.578-7.72 10.669 10.669 0 0 1 7.7-12.812 10.342 10.342 0 0 1 12.578 7.72m-23.165 5.816a13.282 13.282 0 0 0 16.153 9.914 13.7 13.7 0 0 0 9.9-16.454 13.281 13.281 0 0 0 -16.154-9.914 13.7 13.7 0 0 0 -9.895 16.454" fill="#fecb40" transform="matrix(-.78801075 .61566148 -.61566148 -.78801075 1015.502101 -61.802051)"/><path d="m629.965 418.49s-.939-1.837-5.056-4.743-5.281-10.436-.919-14.488c4.129-3.835 13.934-2.51 21.683 4.3 8.124 7.14 11.367 14.768 7.148 22.046s-12.169 1.811-14.224-.472a34.009 34.009 0 0 0 -5.627-4.6" fill="#fff" transform="matrix(-.78801075 .61566148 -.61566148 -.78801075 1007.165951 -36.619341)"/><path d="m622.9 449.881a11.146 11.146 0 0 1 -6.976 5.036 7.5 7.5 0 0 0 -2.076.215 8.112 8.112 0 0 0 -5.715 9.82 7.862 7.862 0 0 0 9.472 6.007 8.036 8.036 0 0 0 5.939-8.131c.75-2.122 2.59-6.371 5.6-7.453 0 0 2.7-1.689-1.663-5.651-3.423-3.111-4.576.156-4.576.156" fill="#ffe87d" transform="matrix(-.78801075 .61566148 -.61566148 -.78801075 1021.751057 -2.959252)"/><path d="m676.62 386.944a10.669 10.669 0 0 1 -7.7 12.813 10.341 10.341 0 0 1 -12.578-7.72 10.669 10.669 0 0 1 7.7-12.812 10.342 10.342 0 0 1 12.578 7.72m-23.165 5.816a13.282 13.282 0 0 0 16.153 9.914 13.7 13.7 0 0 0 9.9-16.454 13.281 13.281 0 0 0 -16.154-9.914 13.7 13.7 0 0 0 -9.895 16.454" fill="#fecb40" transform="matrix(-.78801075 .61566148 -.61566148 -.78801075 1060.502101 -61.802051)"/><path d="m629.965 418.49s-.939-1.837-5.056-4.743-5.281-10.436-.919-14.488c4.129-3.835 13.934-2.51 21.683 4.3 8.124 7.14 11.367 14.768 7.148 22.046s-12.169 1.811-14.224-.472a34.009 34.009 0 0 0 -5.627-4.6" fill="#fff" transform="matrix(-.78801075 .61566148 -.61566148 -.78801075 1052.165951 -36.619341)"/><path d="m622.9 449.881a11.146 11.146 0 0 1 -6.976 5.036 7.5 7.5 0 0 0 -2.076.215 8.112 8.112 0 0 0 -5.715 9.82 7.862 7.862 0 0 0 9.472 6.007 8.036 8.036 0 0 0 5.939-8.131c.75-2.122 2.59-6.371 5.6-7.453 0 0 2.7-1.689-1.663-5.651-3.423-3.111-4.576.156-4.576.156" fill="#ffe87d" transform="matrix(-.78801075 .61566148 -.61566148 -.78801075 1066.751057 -2.959252)"/><path d="m676.62 386.944a10.669 10.669 0 0 1 -7.7 12.813 10.341 10.341 0 0 1 -12.578-7.72 10.669 10.669 0 0 1 7.7-12.812 10.342 10.342 0 0 1 12.578 7.72m-23.165 5.816a13.282 13.282 0 0 0 16.153 9.914 13.7 13.7 0 0 0 9.9-16.454 13.281 13.281 0 0 0 -16.154-9.914 13.7 13.7 0 0 0 -9.895 16.454" fill="#fecb40" transform="matrix(-.78801075 .61566148 -.61566148 -.78801075 1105.502101 -61.802051)"/><path d="m629.965 418.49s-.939-1.837-5.056-4.743-5.281-10.436-.919-14.488c4.129-3.835 13.934-2.51 21.683 4.3 8.124 7.14 11.367 14.768 7.148 22.046s-12.169 1.811-14.224-.472a34.009 34.009 0 0 0 -5.627-4.6" fill="#fff" transform="matrix(-.78801075 .61566148 -.61566148 -.78801075 1097.165951 -36.619341)"/><path d="m622.9 449.881a11.146 11.146 0 0 1 -6.976 5.036 7.5 7.5 0 0 0 -2.076.215 8.112 8.112 0 0 0 -5.715 9.82 7.862 7.862 0 0 0 9.472 6.007 8.036 8.036 0 0 0 5.939-8.131c.75-2.122 2.59-6.371 5.6-7.453 0 0 2.7-1.689-1.663-5.651-3.423-3.111-4.576.156-4.576.156" fill="#ffe87d" transform="matrix(-.78801075 .61566148 -.61566148 -.78801075 1111.751057 -2.959252)"/><path d="m676.62 386.944a10.669 10.669 0 0 1 -7.7 12.813 10.341 10.341 0 0 1 -12.578-7.72 10.669 10.669 0 0 1 7.7-12.812 10.342 10.342 0 0 1 12.578 7.72m-23.165 5.816a13.282 13.282 0 0 0 16.153 9.914 13.7 13.7 0 0 0 9.9-16.454 13.281 13.281 0 0 0 -16.154-9.914 13.7 13.7 0 0 0 -9.895 16.454" fill="#fecb40" transform="matrix(-.78801075 .61566148 -.61566148 -.78801075 1150.502101 -61.802051)"/><path d="m629.965 418.49s-.939-1.837-5.056-4.743-5.281-10.436-.919-14.488c4.129-3.835 13.934-2.51 21.683 4.3 8.124 7.14 11.367 14.768 7.148 22.046s-12.169 1.811-14.224-.472a34.009 34.009 0 0 0 -5.627-4.6" fill="#fff" transform="matrix(-.78801075 .61566148 -.61566148 -.78801075 1142.165951 -36.619341)"/><path d="m622.9 449.881a11.146 11.146 0 0 1 -6.976 5.036 7.5 7.5 0 0 0 -2.076.215 8.112 8.112 0 0 0 -5.715 9.82 7.862 7.862 0 0 0 9.472 6.007 8.036 8.036 0 0 0 5.939-8.131c.75-2.122 2.59-6.371 5.6-7.453 0 0 2.7-1.689-1.663-5.651-3.423-3.111-4.576.156-4.576.156" fill="#ffe87d" transform="matrix(-.78801075 .61566148 -.61566148 -.78801075 1156.751057 -2.959252)"/><path d="m676.62 386.944a10.669 10.669 0 0 1 -7.7 12.813 10.341 10.341 0 0 1 -12.578-7.72 10.669 10.669 0 0 1 7.7-12.812 10.342 10.342 0 0 1 12.578 7.72m-23.165 5.816a13.282 13.282 0 0 0 16.153 9.914 13.7 13.7 0 0 0 9.9-16.454 13.281 13.281 0 0 0 -16.154-9.914 13.7 13.7 0 0 0 -9.895 16.454" fill="#fecb40" transform="matrix(-.78801075 .61566148 -.61566148 -.78801075 1196.502101 -61.802051)"/><path d="m629.965 418.49s-.939-1.837-5.056-4.743-5.281-10.436-.919-14.488c4.129-3.835 13.934-2.51 21.683 4.3 8.124 7.14 11.367 14.768 7.148 22.046s-12.169 1.811-14.224-.472a34.009 34.009 0 0 0 -5.627-4.6" fill="#fff" transform="matrix(-.78801075 .61566148 -.61566148 -.78801075 1188.165951 -36.619341)"/><path d="m622.9 449.881a11.146 11.146 0 0 1 -6.976 5.036 7.5 7.5 0 0 0 -2.076.215 8.112 8.112 0 0 0 -5.715 9.82 7.862 7.862 0 0 0 9.472 6.007 8.036 8.036 0 0 0 5.939-8.131c.75-2.122 2.59-6.371 5.6-7.453 0 0 2.7-1.689-1.663-5.651-3.423-3.111-4.576.156-4.576.156" fill="#ffe87d" transform="matrix(-.78801075 .61566148 -.61566148 -.78801075 1202.751057 -2.959252)"/><path d="m676.62 386.944a10.669 10.669 0 0 1 -7.7 12.813 10.341 10.341 0 0 1 -12.578-7.72 10.669 10.669 0 0 1 7.7-12.812 10.342 10.342 0 0 1 12.578 7.72m-23.165 5.816a13.282 13.282 0 0 0 16.153 9.914 13.7 13.7 0 0 0 9.9-16.454 13.281 13.281 0 0 0 -16.154-9.914 13.7 13.7 0 0 0 -9.895 16.454" fill="#fecb40" transform="matrix(-.78801075 .61566148 -.61566148 -.78801075 1241.502101 -61.802051)"/><path d="m629.965 418.49s-.939-1.837-5.056-4.743-5.281-10.436-.919-14.488c4.129-3.835 13.934-2.51 21.683 4.3 8.124 7.14 11.367 14.768 7.148 22.046s-12.169 1.811-14.224-.472a34.009 34.009 0 0 0 -5.627-4.6" fill="#fff" transform="matrix(-.78801075 .61566148 -.61566148 -.78801075 1233.165951 -36.619341)"/><path d="m622.9 449.881a11.146 11.146 0 0 1 -6.976 5.036 7.5 7.5 0 0 0 -2.076.215 8.112 8.112 0 0 0 -5.715 9.82 7.862 7.862 0 0 0 9.472 6.007 8.036 8.036 0 0 0 5.939-8.131c.75-2.122 2.59-6.371 5.6-7.453 0 0 2.7-1.689-1.663-5.651-3.423-3.111-4.576.156-4.576.156" fill="#ffe87d" transform="matrix(-.78801075 .61566148 -.61566148 -.78801075 1247.751057 -2.959252)"/><path d="m676.62 386.944a10.669 10.669 0 0 1 -7.7 12.813 10.341 10.341 0 0 1 -12.578-7.72 10.669 10.669 0 0 1 7.7-12.812 10.342 10.342 0 0 1 12.578 7.72m-23.165 5.816a13.282 13.282 0 0 0 16.153 9.914 13.7 13.7 0 0 0 9.9-16.454 13.281 13.281 0 0 0 -16.154-9.914 13.7 13.7 0 0 0 -9.895 16.454" fill="#fecb40" transform="matrix(-.78801075 .61566148 -.61566148 -.78801075 1286.502101 -61.802051)"/><path d="m629.965 418.49s-.939-1.837-5.056-4.743-5.281-10.436-.919-14.488c4.129-3.835 13.934-2.51 21.683 4.3 8.124 7.14 11.367 14.768 7.148 22.046s-12.169 1.811-14.224-.472a34.009 34.009 0 0 0 -5.627-4.6" fill="#fff" transform="matrix(-.78801075 .61566148 -.61566148 -.78801075 1278.165951 -36.619341)"/><path d="m622.9 449.881a11.146 11.146 0 0 1 -6.976 5.036 7.5 7.5 0 0 0 -2.076.215 8.112 8.112 0 0 0 -5.715 9.82 7.862 7.862 0 0 0 9.472 6.007 8.036 8.036 0 0 0 5.939-8.131c.75-2.122 2.59-6.371 5.6-7.453 0 0 2.7-1.689-1.663-5.651-3.423-3.111-4.576.156-4.576.156" fill="#ffe87d" transform="matrix(-.78801075 .61566148 -.61566148 -.78801075 1292.751057 -2.959252)"/><path d="m676.62 386.944a10.669 10.669 0 0 1 -7.7 12.813 10.341 10.341 0 0 1 -12.578-7.72 10.669 10.669 0 0 1 7.7-12.812 10.342 10.342 0 0 1 12.578 7.72m-23.165 5.816a13.282 13.282 0 0 0 16.153 9.914 13.7 13.7 0 0 0 9.9-16.454 13.281 13.281 0 0 0 -16.154-9.914 13.7 13.7 0 0 0 -9.895 16.454" fill="#fecb40" transform="matrix(-.78801075 .61566148 -.61566148 -.78801075 1332.502101 -61.802051)"/><path d="m629.965 418.49s-.939-1.837-5.056-4.743-5.281-10.436-.919-14.488c4.129-3.835 13.934-2.51 21.683 4.3 8.124 7.14 11.367 14.768 7.148 22.046s-12.169 1.811-14.224-.472a34.009 34.009 0 0 0 -5.627-4.6" fill="#fff" transform="matrix(-.78801075 .61566148 -.61566148 -.78801075 1324.165951 -36.619341)"/><path d="m622.9 449.881a11.146 11.146 0 0 1 -6.976 5.036 7.5 7.5 0 0 0 -2.076.215 8.112 8.112 0 0 0 -5.715 9.82 7.862 7.862 0 0 0 9.472 6.007 8.036 8.036 0 0 0 5.939-8.131c.75-2.122 2.59-6.371 5.6-7.453 0 0 2.7-1.689-1.663-5.651-3.423-3.111-4.576.156-4.576.156" fill="#ffe87d" transform="matrix(-.78801075 .61566148 -.61566148 -.78801075 1338.751057 -2.959252)"/><path d="m676.62 386.944a10.669 10.669 0 0 1 -7.7 12.813 10.341 10.341 0 0 1 -12.578-7.72 10.669 10.669 0 0 1 7.7-12.812 10.342 10.342 0 0 1 12.578 7.72m-23.165 5.816a13.282 13.282 0 0 0 16.153 9.914 13.7 13.7 0 0 0 9.9-16.454 13.281 13.281 0 0 0 -16.154-9.914 13.7 13.7 0 0 0 -9.895 16.454" fill="#fecb40" transform="matrix(-.78801075 .61566148 -.61566148 -.78801075 1377.502101 -61.802051)"/><path d="m629.965 418.49s-.939-1.837-5.056-4.743-5.281-10.436-.919-14.488c4.129-3.835 13.934-2.51 21.683 4.3 8.124 7.14 11.367 14.768 7.148 22.046s-12.169 1.811-14.224-.472a34.009 34.009 0 0 0 -5.627-4.6" fill="#fff" transform="matrix(-.78801075 .61566148 -.61566148 -.78801075 1369.165951 -36.619341)"/><path d="m622.9 449.881a11.146 11.146 0 0 1 -6.976 5.036 7.5 7.5 0 0 0 -2.076.215 8.112 8.112 0 0 0 -5.715 9.82 7.862 7.862 0 0 0 9.472 6.007 8.036 8.036 0 0 0 5.939-8.131c.75-2.122 2.59-6.371 5.6-7.453 0 0 2.7-1.689-1.663-5.651-3.423-3.111-4.576.156-4.576.156" fill="#ffe87d" transform="matrix(-.78801075 .61566148 -.61566148 -.78801075 1383.751057 -2.959252)"/><path d="m676.62 386.944a10.669 10.669 0 0 1 -7.7 12.813 10.341 10.341 0 0 1 -12.578-7.72 10.669 10.669 0 0 1 7.7-12.812 10.342 10.342 0 0 1 12.578 7.72m-23.165 5.816a13.282 13.282 0 0 0 16.153 9.914 13.7 13.7 0 0 0 9.9-16.454 13.281 13.281 0 0 0 -16.154-9.914 13.7 13.7 0 0 0 -9.895 16.454" fill="#fecb40" transform="matrix(-.78801075 .61566148 -.61566148 -.78801075 833.502101 5.197949)"/><path d="m629.965 418.49s-.939-1.837-5.056-4.743-5.281-10.436-.919-14.488c4.129-3.835 13.934-2.51 21.683 4.3 8.124 7.14 11.367 14.768 7.148 22.046s-12.169 1.811-14.224-.472a34.009 34.009 0 0 0 -5.627-4.6" fill="#fff" transform="matrix(-.78801075 .61566148 -.61566148 -.78801075 825.165951 30.380659)"/><path d="m622.9 449.881a11.146 11.146 0 0 1 -6.976 5.036 7.5 7.5 0 0 0 -2.076.215 8.112 8.112 0 0 0 -5.715 9.82 7.862 7.862 0 0 0 9.472 6.007 8.036 8.036 0 0 0 5.939-8.131c.75-2.122 2.59-6.371 5.6-7.453 0 0 2.7-1.689-1.663-5.651-3.423-3.111-4.576.156-4.576.156" fill="#ffe87d" transform="matrix(-.78801075 .61566148 -.61566148 -.78801075 839.751057 64.040748)"/><path d="m676.62 386.944a10.669 10.669 0 0 1 -7.7 12.813 10.341 10.341 0 0 1 -12.578-7.72 10.669 10.669 0 0 1 7.7-12.812 10.342 10.342 0 0 1 12.578 7.72m-23.165 5.816a13.282 13.282 0 0 0 16.153 9.914 13.7 13.7 0 0 0 9.9-16.454 13.281 13.281 0 0 0 -16.154-9.914 13.7 13.7 0 0 0 -9.895 16.454" fill="#fecb40" transform="matrix(-.78801075 .61566148 -.61566148 -.78801075 879.502101 5.197949)"/><path d="m629.965 418.49s-.939-1.837-5.056-4.743-5.281-10.436-.919-14.488c4.129-3.835 13.934-2.51 21.683 4.3 8.124 7.14 11.367 14.768 7.148 22.046s-12.169 1.811-14.224-.472a34.009 34.009 0 0 0 -5.627-4.6" fill="#fff" transform="matrix(-.78801075 .61566148 -.61566148 -.78801075 871.165951 30.380659)"/><path d="m622.9 449.881a11.146 11.146 0 0 1 -6.976 5.036 7.5 7.5 0 0 0 -2.076.215 8.112 8.112 0 0 0 -5.715 9.82 7.862 7.862 0 0 0 9.472 6.007 8.036 8.036 0 0 0 5.939-8.131c.75-2.122 2.59-6.371 5.6-7.453 0 0 2.7-1.689-1.663-5.651-3.423-3.111-4.576.156-4.576.156" fill="#ffe87d" transform="matrix(-.78801075 .61566148 -.61566148 -.78801075 885.751057 64.040748)"/><path d="m676.62 386.944a10.669 10.669 0 0 1 -7.7 12.813 10.341 10.341 0 0 1 -12.578-7.72 10.669 10.669 0 0 1 7.7-12.812 10.342 10.342 0 0 1 12.578 7.72m-23.165 5.816a13.282 13.282 0 0 0 16.153 9.914 13.7 13.7 0 0 0 9.9-16.454 13.281 13.281 0 0 0 -16.154-9.914 13.7 13.7 0 0 0 -9.895 16.454" fill="#fecb40" transform="matrix(-.78801075 .61566148 -.61566148 -.78801075 969.502101 5.197949)"/><path d="m629.965 418.49s-.939-1.837-5.056-4.743-5.281-10.436-.919-14.488c4.129-3.835 13.934-2.51 21.683 4.3 8.124 7.14 11.367 14.768 7.148 22.046s-12.169 1.811-14.224-.472a34.009 34.009 0 0 0 -5.627-4.6" fill="#fff" transform="matrix(-.78801075 .61566148 -.61566148 -.78801075 961.165951 30.380659)"/><path d="m622.9 449.881a11.146 11.146 0 0 1 -6.976 5.036 7.5 7.5 0 0 0 -2.076.215 8.112 8.112 0 0 0 -5.715 9.82 7.862 7.862 0 0 0 9.472 6.007 8.036 8.036 0 0 0 5.939-8.131c.75-2.122 2.59-6.371 5.6-7.453 0 0 2.7-1.689-1.663-5.651-3.423-3.111-4.576.156-4.576.156" fill="#ffe87d" transform="matrix(-.78801075 .61566148 -.61566148 -.78801075 975.751057 64.040748)"/><path d="m676.62 386.944a10.669 10.669 0 0 1 -7.7 12.813 10.341 10.341 0 0 1 -12.578-7.72 10.669 10.669 0 0 1 7.7-12.812 10.342 10.342 0 0 1 12.578 7.72m-23.165 5.816a13.282 13.282 0 0 0 16.153 9.914 13.7 13.7 0 0 0 9.9-16.454 13.281 13.281 0 0 0 -16.154-9.914 13.7 13.7 0 0 0 -9.895 16.454" fill="#fecb40" transform="matrix(-.78801075 .61566148 -.61566148 -.78801075 1015.502101 5.197949)"/><path d="m629.965 418.49s-.939-1.837-5.056-4.743-5.281-10.436-.919-14.488c4.129-3.835 13.934-2.51 21.683 4.3 8.124 7.14 11.367 14.768 7.148 22.046s-12.169 1.811-14.224-.472a34.009 34.009 0 0 0 -5.627-4.6" fill="#fff" transform="matrix(-.78801075 .61566148 -.61566148 -.78801075 1007.165951 30.380659)"/><path d="m622.9 449.881a11.146 11.146 0 0 1 -6.976 5.036 7.5 7.5 0 0 0 -2.076.215 8.112 8.112 0 0 0 -5.715 9.82 7.862 7.862 0 0 0 9.472 6.007 8.036 8.036 0 0 0 5.939-8.131c.75-2.122 2.59-6.371 5.6-7.453 0 0 2.7-1.689-1.663-5.651-3.423-3.111-4.576.156-4.576.156" fill="#ffe87d" transform="matrix(-.78801075 .61566148 -.61566148 -.78801075 1021.751057 64.040748)"/><path d="m676.62 386.944a10.669 10.669 0 0 1 -7.7 12.813 10.341 10.341 0 0 1 -12.578-7.72 10.669 10.669 0 0 1 7.7-12.812 10.342 10.342 0 0 1 12.578 7.72m-23.165 5.816a13.282 13.282 0 0 0 16.153 9.914 13.7 13.7 0 0 0 9.9-16.454 13.281 13.281 0 0 0 -16.154-9.914 13.7 13.7 0 0 0 -9.895 16.454" fill="#fecb40" transform="matrix(-.78801075 .61566148 -.61566148 -.78801075 1060.502101 5.197949)"/><path d="m629.965 418.49s-.939-1.837-5.056-4.743-5.281-10.436-.919-14.488c4.129-3.835 13.934-2.51 21.683 4.3 8.124 7.14 11.367 14.768 7.148 22.046s-12.169 1.811-14.224-.472a34.009 34.009 0 0 0 -5.627-4.6" fill="#fff" transform="matrix(-.78801075 .61566148 -.61566148 -.78801075 1052.165951 30.380659)"/><path d="m622.9 449.881a11.146 11.146 0 0 1 -6.976 5.036 7.5 7.5 0 0 0 -2.076.215 8.112 8.112 0 0 0 -5.715 9.82 7.862 7.862 0 0 0 9.472 6.007 8.036 8.036 0 0 0 5.939-8.131c.75-2.122 2.59-6.371 5.6-7.453 0 0 2.7-1.689-1.663-5.651-3.423-3.111-4.576.156-4.576.156" fill="#ffe87d" transform="matrix(-.78801075 .61566148 -.61566148 -.78801075 1066.751057 64.040748)"/><path d="m676.62 386.944a10.669 10.669 0 0 1 -7.7 12.813 10.341 10.341 0 0 1 -12.578-7.72 10.669 10.669 0 0 1 7.7-12.812 10.342 10.342 0 0 1 12.578 7.72m-23.165 5.816a13.282 13.282 0 0 0 16.153 9.914 13.7 13.7 0 0 0 9.9-16.454 13.281 13.281 0 0 0 -16.154-9.914 13.7 13.7 0 0 0 -9.895 16.454" fill="#fecb40" transform="matrix(-.78801075 .61566148 -.61566148 -.78801075 1105.502101 5.197949)"/><path d="m629.965 418.49s-.939-1.837-5.056-4.743-5.281-10.436-.919-14.488c4.129-3.835 13.934-2.51 21.683 4.3 8.124 7.14 11.367 14.768 7.148 22.046s-12.169 1.811-14.224-.472a34.009 34.009 0 0 0 -5.627-4.6" fill="#fff" transform="matrix(-.78801075 .61566148 -.61566148 -.78801075 1097.165951 30.380659)"/><path d="m622.9 449.881a11.146 11.146 0 0 1 -6.976 5.036 7.5 7.5 0 0 0 -2.076.215 8.112 8.112 0 0 0 -5.715 9.82 7.862 7.862 0 0 0 9.472 6.007 8.036 8.036 0 0 0 5.939-8.131c.75-2.122 2.59-6.371 5.6-7.453 0 0 2.7-1.689-1.663-5.651-3.423-3.111-4.576.156-4.576.156" fill="#ffe87d" transform="matrix(-.78801075 .61566148 -.61566148 -.78801075 1111.751057 64.040748)"/><path d="m676.62 386.944a10.669 10.669 0 0 1 -7.7 12.813 10.341 10.341 0 0 1 -12.578-7.72 10.669 10.669 0 0 1 7.7-12.812 10.342 10.342 0 0 1 12.578 7.72m-23.165 5.816a13.282 13.282 0 0 0 16.153 9.914 13.7 13.7 0 0 0 9.9-16.454 13.281 13.281 0 0 0 -16.154-9.914 13.7 13.7 0 0 0 -9.895 16.454" fill="#fecb40" transform="matrix(-.78801075 .61566148 -.61566148 -.78801075 1196.502101 5.197949)"/><path d="m629.965 418.49s-.939-1.837-5.056-4.743-5.281-10.436-.919-14.488c4.129-3.835 13.934-2.51 21.683 4.3 8.124 7.14 11.367 14.768 7.148 22.046s-12.169 1.811-14.224-.472a34.009 34.009 0 0 0 -5.627-4.6" fill="#fff" transform="matrix(-.78801075 .61566148 -.61566148 -.78801075 1188.165951 30.380659)"/><path d="m622.9 449.881a11.146 11.146 0 0 1 -6.976 5.036 7.5 7.5 0 0 0 -2.076.215 8.112 8.112 0 0 0 -5.715 9.82 7.862 7.862 0 0 0 9.472 6.007 8.036 8.036 0 0 0 5.939-8.131c.75-2.122 2.59-6.371 5.6-7.453 0 0 2.7-1.689-1.663-5.651-3.423-3.111-4.576.156-4.576.156" fill="#ffe87d" transform="matrix(-.78801075 .61566148 -.61566148 -.78801075 1202.751057 64.040748)"/><path d="m676.62 386.944a10.669 10.669 0 0 1 -7.7 12.813 10.341 10.341 0 0 1 -12.578-7.72 10.669 10.669 0 0 1 7.7-12.812 10.342 10.342 0 0 1 12.578 7.72m-23.165 5.816a13.282 13.282 0 0 0 16.153 9.914 13.7 13.7 0 0 0 9.9-16.454 13.281 13.281 0 0 0 -16.154-9.914 13.7 13.7 0 0 0 -9.895 16.454" fill="#fecb40" transform="matrix(-.78801075 .61566148 -.61566148 -.78801075 1241.502101 5.197949)"/><path d="m629.965 418.49s-.939-1.837-5.056-4.743-5.281-10.436-.919-14.488c4.129-3.835 13.934-2.51 21.683 4.3 8.124 7.14 11.367 14.768 7.148 22.046s-12.169 1.811-14.224-.472a34.009 34.009 0 0 0 -5.627-4.6" fill="#fff" transform="matrix(-.78801075 .61566148 -.61566148 -.78801075 1233.165951 30.380659)"/><path d="m622.9 449.881a11.146 11.146 0 0 1 -6.976 5.036 7.5 7.5 0 0 0 -2.076.215 8.112 8.112 0 0 0 -5.715 9.82 7.862 7.862 0 0 0 9.472 6.007 8.036 8.036 0 0 0 5.939-8.131c.75-2.122 2.59-6.371 5.6-7.453 0 0 2.7-1.689-1.663-5.651-3.423-3.111-4.576.156-4.576.156" fill="#ffe87d" transform="matrix(-.78801075 .61566148 -.61566148 -.78801075 1247.751057 64.040748)"/><path d="m676.62 386.944a10.669 10.669 0 0 1 -7.7 12.813 10.341 10.341 0 0 1 -12.578-7.72 10.669 10.669 0 0 1 7.7-12.812 10.342 10.342 0 0 1 12.578 7.72m-23.165 5.816a13.282 13.282 0 0 0 16.153 9.914 13.7 13.7 0 0 0 9.9-16.454 13.281 13.281 0 0 0 -16.154-9.914 13.7 13.7 0 0 0 -9.895 16.454" fill="#fecb40" transform="matrix(-.78801075 .61566148 -.61566148 -.78801075 1286.502101 5.197949)"/><path d="m629.965 418.49s-.939-1.837-5.056-4.743-5.281-10.436-.919-14.488c4.129-3.835 13.934-2.51 21.683 4.3 8.124 7.14 11.367 14.768 7.148 22.046s-12.169 1.811-14.224-.472a34.009 34.009 0 0 0 -5.627-4.6" fill="#fff" transform="matrix(-.78801075 .61566148 -.61566148 -.78801075 1278.165951 30.380659)"/><path d="m622.9 449.881a11.146 11.146 0 0 1 -6.976 5.036 7.5 7.5 0 0 0 -2.076.215 8.112 8.112 0 0 0 -5.715 9.82 7.862 7.862 0 0 0 9.472 6.007 8.036 8.036 0 0 0 5.939-8.131c.75-2.122 2.59-6.371 5.6-7.453 0 0 2.7-1.689-1.663-5.651-3.423-3.111-4.576.156-4.576.156" fill="#ffe87d" transform="matrix(-.78801075 .61566148 -.61566148 -.78801075 1292.751057 64.040748)"/><path d="m676.62 386.944a10.669 10.669 0 0 1 -7.7 12.813 10.341 10.341 0 0 1 -12.578-7.72 10.669 10.669 0 0 1 7.7-12.812 10.342 10.342 0 0 1 12.578 7.72m-23.165 5.816a13.282 13.282 0 0 0 16.153 9.914 13.7 13.7 0 0 0 9.9-16.454 13.281 13.281 0 0 0 -16.154-9.914 13.7 13.7 0 0 0 -9.895 16.454" fill="#fecb40" transform="matrix(-.78801075 .61566148 -.61566148 -.78801075 1332.502101 5.197949)"/><path d="m629.965 418.49s-.939-1.837-5.056-4.743-5.281-10.436-.919-14.488c4.129-3.835 13.934-2.51 21.683 4.3 8.124 7.14 11.367 14.768 7.148 22.046s-12.169 1.811-14.224-.472a34.009 34.009 0 0 0 -5.627-4.6" fill="#fff" transform="matrix(-.78801075 .61566148 -.61566148 -.78801075 1324.165951 30.380659)"/><path d="m622.9 449.881a11.146 11.146 0 0 1 -6.976 5.036 7.5 7.5 0 0 0 -2.076.215 8.112 8.112 0 0 0 -5.715 9.82 7.862 7.862 0 0 0 9.472 6.007 8.036 8.036 0 0 0 5.939-8.131c.75-2.122 2.59-6.371 5.6-7.453 0 0 2.7-1.689-1.663-5.651-3.423-3.111-4.576.156-4.576.156" fill="#ffe87d" transform="matrix(-.78801075 .61566148 -.61566148 -.78801075 1338.751057 64.040748)"/><path d="m676.62 386.944a10.669 10.669 0 0 1 -7.7 12.813 10.341 10.341 0 0 1 -12.578-7.72 10.669 10.669 0 0 1 7.7-12.812 10.342 10.342 0 0 1 12.578 7.72m-23.165 5.816a13.282 13.282 0 0 0 16.153 9.914 13.7 13.7 0 0 0 9.9-16.454 13.281 13.281 0 0 0 -16.154-9.914 13.7 13.7 0 0 0 -9.895 16.454" fill="#fecb40" transform="matrix(-.78801075 .61566148 -.61566148 -.78801075 879.502101 72.197949)"/><path d="m629.965 418.49s-.939-1.837-5.056-4.743-5.281-10.436-.919-14.488c4.129-3.835 13.934-2.51 21.683 4.3 8.124 7.14 11.367 14.768 7.148 22.046s-12.169 1.811-14.224-.472a34.009 34.009 0 0 0 -5.627-4.6" fill="#fff" transform="matrix(-.78801075 .61566148 -.61566148 -.78801075 871.165951 97.380659)"/><path d="m622.9 449.881a11.146 11.146 0 0 1 -6.976 5.036 7.5 7.5 0 0 0 -2.076.215 8.112 8.112 0 0 0 -5.715 9.82 7.862 7.862 0 0 0 9.472 6.007 8.036 8.036 0 0 0 5.939-8.131c.75-2.122 2.59-6.371 5.6-7.453 0 0 2.7-1.689-1.663-5.651-3.423-3.111-4.576.156-4.576.156" fill="#ffe87d" transform="matrix(-.78801075 .61566148 -.61566148 -.78801075 885.751057 131.040748)"/><path d="m676.62 386.944a10.669 10.669 0 0 1 -7.7 12.813 10.341 10.341 0 0 1 -12.578-7.72 10.669 10.669 0 0 1 7.7-12.812 10.342 10.342 0 0 1 12.578 7.72m-23.165 5.816a13.282 13.282 0 0 0 16.153 9.914 13.7 13.7 0 0 0 9.9-16.454 13.281 13.281 0 0 0 -16.154-9.914 13.7 13.7 0 0 0 -9.895 16.454" fill="#fecb40" transform="matrix(-.78801075 .61566148 -.61566148 -.78801075 1015.502101 72.197949)"/><path d="m629.965 418.49s-.939-1.837-5.056-4.743-5.281-10.436-.919-14.488c4.129-3.835 13.934-2.51 21.683 4.3 8.124 7.14 11.367 14.768 7.148 22.046s-12.169 1.811-14.224-.472a34.009 34.009 0 0 0 -5.627-4.6" fill="#fff" transform="matrix(-.78801075 .61566148 -.61566148 -.78801075 1007.165951 97.380659)"/><path d="m622.9 449.881a11.146 11.146 0 0 1 -6.976 5.036 7.5 7.5 0 0 0 -2.076.215 8.112 8.112 0 0 0 -5.715 9.82 7.862 7.862 0 0 0 9.472 6.007 8.036 8.036 0 0 0 5.939-8.131c.75-2.122 2.59-6.371 5.6-7.453 0 0 2.7-1.689-1.663-5.651-3.423-3.111-4.576.156-4.576.156" fill="#ffe87d" transform="matrix(-.78801075 .61566148 -.61566148 -.78801075 1021.751057 131.040748)"/><path d="m676.62 386.944a10.669 10.669 0 0 1 -7.7 12.813 10.341 10.341 0 0 1 -12.578-7.72 10.669 10.669 0 0 1 7.7-12.812 10.342 10.342 0 0 1 12.578 7.72m-23.165 5.816a13.282 13.282 0 0 0 16.153 9.914 13.7 13.7 0 0 0 9.9-16.454 13.281 13.281 0 0 0 -16.154-9.914 13.7 13.7 0 0 0 -9.895 16.454" fill="#fecb40" transform="matrix(-.78801075 .61566148 -.61566148 -.78801075 1060.502101 72.197949)"/><path d="m629.965 418.49s-.939-1.837-5.056-4.743-5.281-10.436-.919-14.488c4.129-3.835 13.934-2.51 21.683 4.3 8.124 7.14 11.367 14.768 7.148 22.046s-12.169 1.811-14.224-.472a34.009 34.009 0 0 0 -5.627-4.6" fill="#fff" transform="matrix(-.78801075 .61566148 -.61566148 -.78801075 1052.165951 97.380659)"/><path d="m622.9 449.881a11.146 11.146 0 0 1 -6.976 5.036 7.5 7.5 0 0 0 -2.076.215 8.112 8.112 0 0 0 -5.715 9.82 7.862 7.862 0 0 0 9.472 6.007 8.036 8.036 0 0 0 5.939-8.131c.75-2.122 2.59-6.371 5.6-7.453 0 0 2.7-1.689-1.663-5.651-3.423-3.111-4.576.156-4.576.156" fill="#ffe87d" transform="matrix(-.78801075 .61566148 -.61566148 -.78801075 1066.751057 131.040748)"/><path d="m676.62 386.944a10.669 10.669 0 0 1 -7.7 12.813 10.341 10.341 0 0 1 -12.578-7.72 10.669 10.669 0 0 1 7.7-12.812 10.342 10.342 0 0 1 12.578 7.72m-23.165 5.816a13.282 13.282 0 0 0 16.153 9.914 13.7 13.7 0 0 0 9.9-16.454 13.281 13.281 0 0 0 -16.154-9.914 13.7 13.7 0 0 0 -9.895 16.454" fill="#fecb40" transform="matrix(-.78801075 .61566148 -.61566148 -.78801075 1105.502101 72.197949)"/><path d="m629.965 418.49s-.939-1.837-5.056-4.743-5.281-10.436-.919-14.488c4.129-3.835 13.934-2.51 21.683 4.3 8.124 7.14 11.367 14.768 7.148 22.046s-12.169 1.811-14.224-.472a34.009 34.009 0 0 0 -5.627-4.6" fill="#fff" transform="matrix(-.78801075 .61566148 -.61566148 -.78801075 1097.165951 97.380659)"/><path d="m622.9 449.881a11.146 11.146 0 0 1 -6.976 5.036 7.5 7.5 0 0 0 -2.076.215 8.112 8.112 0 0 0 -5.715 9.82 7.862 7.862 0 0 0 9.472 6.007 8.036 8.036 0 0 0 5.939-8.131c.75-2.122 2.59-6.371 5.6-7.453 0 0 2.7-1.689-1.663-5.651-3.423-3.111-4.576.156-4.576.156" fill="#ffe87d" transform="matrix(-.78801075 .61566148 -.61566148 -.78801075 1111.751057 131.040748)"/><path d="m676.62 386.944a10.669 10.669 0 0 1 -7.7 12.813 10.341 10.341 0 0 1 -12.578-7.72 10.669 10.669 0 0 1 7.7-12.812 10.342 10.342 0 0 1 12.578 7.72m-23.165 5.816a13.282 13.282 0 0 0 16.153 9.914 13.7 13.7 0 0 0 9.9-16.454 13.281 13.281 0 0 0 -16.154-9.914 13.7 13.7 0 0 0 -9.895 16.454" fill="#fecb40" transform="matrix(-.78801075 .61566148 -.61566148 -.78801075 1241.502101 72.197949)"/><path d="m629.965 418.49s-.939-1.837-5.056-4.743-5.281-10.436-.919-14.488c4.129-3.835 13.934-2.51 21.683 4.3 8.124 7.14 11.367 14.768 7.148 22.046s-12.169 1.811-14.224-.472a34.009 34.009 0 0 0 -5.627-4.6" fill="#fff" transform="matrix(-.78801075 .61566148 -.61566148 -.78801075 1233.165951 97.380659)"/><path d="m622.9 449.881a11.146 11.146 0 0 1 -6.976 5.036 7.5 7.5 0 0 0 -2.076.215 8.112 8.112 0 0 0 -5.715 9.82 7.862 7.862 0 0 0 9.472 6.007 8.036 8.036 0 0 0 5.939-8.131c.75-2.122 2.59-6.371 5.6-7.453 0 0 2.7-1.689-1.663-5.651-3.423-3.111-4.576.156-4.576.156" fill="#ffe87d" transform="matrix(-.78801075 .61566148 -.61566148 -.78801075 1247.751057 131.040748)"/><g fill="#fff"><path d="m260.575 788.5h84v22h-84z"/><path d="m278.575 767.5h48v21h-48z"/><path d="m298.575 758.5h9v9h-9z"/></g><g fill="#ffdb28"><path d="m351.268 51.637s1.7-4.35 5.683-2.963.826 8.668-5.5 14.014c0 0-11.044-8.837-6.9-13.439 3.946-4.384 6.716 2.387 6.716 2.387" transform="translate(-146.094 202.728)"/><path d="m351.268 51.637s1.7-4.35 5.683-2.963.826 8.668-5.5 14.014c0 0-11.044-8.837-6.9-13.439 3.946-4.384 6.716 2.387 6.716 2.387" transform="translate(83.906 363.728)"/><path d="m351.268 51.637s1.7-4.35 5.683-2.963.826 8.668-5.5 14.014c0 0-11.044-8.837-6.9-13.439 3.946-4.384 6.716 2.387 6.716 2.387" transform="translate(-326.094 129.728)"/><path d="m351.268 51.637s1.7-4.35 5.683-2.963.826 8.668-5.5 14.014c0 0-11.044-8.837-6.9-13.439 3.946-4.384 6.716 2.387 6.716 2.387" transform="translate(-49.094 465.728)"/><path d="m351.268 51.637s1.7-4.35 5.683-2.963.826 8.668-5.5 14.014c0 0-11.044-8.837-6.9-13.439 3.946-4.384 6.716 2.387 6.716 2.387" transform="translate(-49.094 531.728)"/><path d="m351.268 51.637s1.7-4.35 5.683-2.963.826 8.668-5.5 14.014c0 0-11.044-8.837-6.9-13.439 3.946-4.384 6.716 2.387 6.716 2.387" transform="translate(-49.094 597.728)"/><path d="m351.268 51.637s1.7-4.35 5.683-2.963.826 8.668-5.5 14.014c0 0-11.044-8.837-6.9-13.439 3.946-4.384 6.716 2.387 6.716 2.387" transform="translate(-49.094 663.728)"/></g></svg>