<svg enable-background="new 0 0 140 125" viewBox="0 0 140 125" xmlns="http://www.w3.org/2000/svg"><g fill="#e1001a"><path d="m19.9 105.2v.2c0 .1-.1.1-.1.2s-.1.1-.1.2c-.1.1-.1.2-.1.4s-.1.4-.1.5-.1.3-.1.4-.1.3-.1.4v.5.9c0 .3 0 .6-.1.9 0 .3-.1.6-.1 1 0 .3-.1.7-.1 1.1-.1.6-.1 1.2-.2 1.8s-.1 1.3-.1 2v.6.8.8c0 .3 0 .6.1.8 0 0 .1.1.1.1s.1 0 .1.1c.3.2.4.3.6.4.1.1.2.3.2.5 0 .1 0 .3-.1.4-.1.2-.2.3-.4.4s-.3.2-.5.3-.4.1-.6.1c-.4 0-.8-.1-1-.4-.3-.2-.5-.5-.6-.9-.2-.4-.3-.8-.3-1.3-.1-.5-.1-.9-.1-1.4v-.4c0-.2 0-.5.1-.9 0-.4.1-.8.2-1.3s.1-1 .2-1.6c.1-.5.2-1.1.2-1.6.1-.5.2-1 .2-1.5.1-.5.1-.8.2-1.1-.1.1-.2.2-.4.4s-.3.4-.5.6-.4.5-.6.7c-.2.3-.4.5-.6.8-.2.2-.4.5-.6.7s-.3.4-.4.6c-.3.3-.5.7-.8 1s-.5.7-.8 1.1c0 0-.1.1-.1.1 0 .1-.1.1-.2.2s-.1.2-.2.2c-.1.1-.1.1-.2.2-.5.6-1.1 1-1.7 1.2-.4-.1-.7-.2-.9-.4-.2-.1-.4-.3-.6-.4-.2-.2-.3-.3-.4-.5s-.2-.4-.4-.6c-.1-.2-.3-.4-.4-.6s-.2-.4-.3-.5c-.2-.3-.4-.6-.5-1-.2-.3-.3-.7-.5-1.1-.1-.3-.2-.6-.3-.8s-.1-.4-.2-.6-.1-.4-.2-.6-.1-.4-.2-.7c0 0 0 .2-.1.3 0 .2-.1.4-.2.7s-.1.6-.2.9-.2.7-.2 1c-.1.3-.2.7-.2 1-.1.3-.1.6-.2.9s-.1.5-.2.6c0 .2-.1.3-.1.3-.1.5-.2 1-.2 1.5v.5.7.7.5c0 .1 0 .2-.1.4-.1.1-.2.3-.3.4s-.2.2-.4.3-.3.1-.5.1-.4 0-.6 0-.3-.1-.4-.1c-.1-.1-.2-.1-.3-.3-.1-.1-.2-.3-.3-.4 0-.1-.1-.1-.1-.2s0-.2 0-.3 0-.2 0-.4 0-.4 0-.6c0-.1 0-.2.1-.4s.1-.5.2-.8.2-.7.3-1c.1-.4.2-.7.3-1.1.1-.3.2-.7.3-1s.2-.6.2-.8c.1-.3.2-.7.3-1 .1-.4.2-.7.3-1.1s.2-.7.3-1.1.2-.7.3-1c0-.3.1-.6.1-.7 0-.2.1-.4.2-.6l.3-.6c.1-.2.2-.3.4-.4.1-.1.3-.2.5-.2.6 0 1.1.1 1.4.2.4.1.6.3.8.6.2.2.4.6.5 1s.3.9.4 1.4c0 .2.1.3.1.4.1.1.1.2.2.4.2.7.5 1.4.9 2.1s.8 1.4 1.2 2c.2-.1.4-.3.5-.5.2-.2.3-.5.5-.8s.3-.5.5-.8c.2-.2.4-.5.6-.7.1-.1.2-.2.4-.4s.4-.4.6-.7.5-.5.7-.8c.3-.3.5-.6.7-.8.2-.3.4-.5.6-.7l.4-.4c.1-.1.1-.2.2-.2 0 0 .1-.1.2-.2s.2-.3.4-.5.4-.5.6-.7.4-.5.6-.7.3-.4.4-.5.3-.2.6-.2c.2 0 .3 0 .5.1s.3.2.5.3c.1.1.3.2.4.4-.3.4-.3.5-.3.6z"/><path d="m39.6 113.3v.3c0 .1-.1.2-.1.3-.1.1-.1.2-.2.3s-.1.2-.2.3c0 0-.1.1-.2.2s-.2.2-.3.3-.2.2-.3.3-.3.2-.4.4c-.4.4-.8.7-1.3 1.1-.4.4-.9.7-1.4.9-.5.3-1 .5-1.5.7s-1.1.3-1.6.3c-.2 0-.5-.1-.7-.2-.3-.1-.5-.2-.7-.4s-.4-.4-.6-.6-.3-.5-.3-.8c-.1.2-.3.4-.5.6s-.4.5-.7.7c-.2.2-.5.4-.8.6s-.5.4-.7.5-.4.2-.6.3-.5.2-.7.3c-.3.1-.5.2-.8.2-.3.1-.5.1-.7.1-.3 0-.7-.1-.9-.3-.3-.2-.5-.4-.6-.7-.2-.3-.3-.5-.4-.8s-.1-.6-.1-.8c0-.4.1-.9.2-1.3.1-.5.3-.9.5-1.3s.5-.8.7-1.2c.3-.4.5-.7.8-1.1.3-.3.6-.6 1-1 .4-.3.8-.6 1.2-.9s.8-.5 1.2-.6c.4-.2.8-.2 1.1-.2h.5.5c.2 0 .4.1.5.1.2 0 .3.1.4.1.1.1.2.1.3.3.1.1.2.3.3.4.1.2.2.3.2.5.1.2.1.3.1.4 0 .2 0 .4-.1.7s-.1.5-.2.8-.1.6-.2.9-.1.6-.1.8 0 .4.1.6.1.4.2.5c.1.2.2.3.4.4s.3.2.5.2c.4 0 .8-.1 1.3-.2.4-.1.8-.3 1.3-.6.4-.3.8-.6 1.3-.9.4-.4.8-.7 1.3-1.1 0 0 .1 0 .2-.1s.2-.2.4-.3c.1-.1.3-.2.4-.3.2-.1.3-.1.4-.1.2 0 .3.1.4.2.1-.2.2 0 .2.2zm-9.9-1c0-.1 0-.1 0-.2s-.1-.2-.1-.2c0-.1-.1-.1-.1-.2-.1 0-.1-.1-.1-.1-.5 0-.9.1-1.3.4-.4.2-.8.6-1.2 1-.2.2-.5.5-.8.9s-.5.8-.8 1.2c-.2.4-.4.8-.6 1.3-.2.4-.2.8-.2 1.1v.2c0 .1 0 .1.1.2 0 .1.1.1.1.1.1 0 .1.1.2.1.3 0 .6-.1.9-.2.3-.2.7-.4 1-.6.3-.3.7-.6 1-.9s.6-.7.8-1.1c.3-.4.5-.9.7-1.4.3-.6.4-1.1.4-1.6z"/><path d="m40 111c.1 0 .2 0 .3.1.1 0 .2.1.3.2s.2.1.3.2l.2.2c.1.1.1.2.1.3v.3.5c0 .2 0 .3-.1.4 0 .2-.1.4-.2.6s-.1.4-.2.7c-.1.2-.1.5-.2.8 0 .3-.1.5-.1.8.1-.3.3-.6.4-.9.2-.4.4-.7.6-1.1s.4-.7.7-1.1c.2-.4.5-.7.7-.9s.4-.4.6-.5c.2-.2.4-.3.7-.5.2-.1.5-.2.8-.3s.5-.1.8-.1c.2 0 .4 0 .6.1s.4.1.6.2.3.2.4.4c.1.1.2.3.2.5 0 .1 0 .2-.1.3 0 .1-.1.2-.2.4-.1.1-.2.2-.3.3s-.3.1-.4.1-.2 0-.4 0c-.1 0-.3 0-.4 0-.3 0-.6.1-.9.2-.3.2-.6.4-.8.7-.2.2-.4.5-.6.8s-.4.7-.6 1c-.2.4-.4.8-.6 1.2s-.4.8-.5 1.2c-.1.2-.2.4-.2.6-.1.2-.1.5-.2.7s-.1.5-.2.7-.1.5-.1.7c0 .1-.1.1-.2.2s-.2.2-.4.2c-.1.1-.3.1-.4.2-.1 0-.2.1-.3.1-.3 0-.5-.1-.7-.2-.2-.2-.3-.4-.4-.6s-.2-.5-.2-.8-.1-.6-.1-.8 0-.4 0-.7 0-.6 0-.9 0-.6 0-.9 0-.6 0-.9 0-.5 0-.8c0-.2 0-.4 0-.5v-1.2c0-.1 0-.2 0-.2 0-.1 0-.2 0-.2 0-.2.1-.4.2-.5.1-.2.2-.3.3-.4s.3-.2.5-.3c.4-.6.6-.6.7-.6zm20.6.3c0 .1 0 .3-.1.4 0 .1-.1.2-.2.3s-.2.1-.3.2-.2.1-.3.2c-.3.1-.7.3-1.1.4s-.8.2-1.2.3-.8.1-1.2.2-.7.1-1 .1c-.2 0-.4.1-.6.1s-.4 0-.6.1c-.2 0-.4 0-.6.1-.2 0-.3 0-.5.1-.1.6-.3 1.1-.4 1.6s-.2 1-.3 1.5c0 .1-.1.3-.1.5s-.1.5-.1.7c0 .3-.1.5-.1.7v.5c0 .2 0 .4.1.5s.2.2.2.3c.1.1.2.2.2.3.1.1.1.2.1.4 0 .1-.1.3-.2.4s-.2.2-.4.3-.3.2-.5.2c-.2.1-.3.1-.5.1-.3 0-.5-.1-.7-.2s-.4-.3-.5-.5c-.2-.2-.3-.4-.3-.7-.1-.3-.1-.5-.1-.8 0-.4 0-.9.1-1.4s.2-1 .3-1.6c.1-.2.1-.5.2-.8s.1-.6.2-.8c.1-.3.1-.5.2-.7 0-.2.1-.4.1-.5-.2 0-.3 0-.5 0-.1 0-.3 0-.5 0s-.4 0-.5-.1-.3-.1-.4-.3c-.1-.1-.2-.2-.2-.4-.1-.1-.1-.3-.1-.5 0-.1 0-.3.1-.4s.2-.2.3-.3.3-.1.5-.2c.2 0 .3-.1.5-.1h.5.5s.1-.1.1-.2c.1-.1.1-.3.2-.5s.1-.4.2-.7c.1-.2.1-.5.2-.7s.1-.4.1-.6.1-.3.1-.4c.1-.3.2-.6.3-1s.2-.7.4-1c.1-.3.3-.6.6-.8.2-.2.5-.3.9-.3h.4c.1 0 .2.1.2.2.1.1.1.2.1.3v.6c0 .2 0 .4-.1.6 0 .2-.1.4-.2.7-.2.5-.3.9-.4 1.4-.1.4-.2.8-.3 1.1s-.2.6-.2.8-.1.3-.1.4h.8c.3 0 .6 0 .8-.1.3 0 .6 0 .9-.1.3 0 .6-.1 1-.1s.8-.1 1.1-.1.6-.1.8-.1.4-.1.6-.1h.5.2c.1 0 .1 0 .2.1 0 0 .1.1.1.2.5 0 .5.1.5.2z"/><path d="m69.4 113.6c0 .2-.1.3-.2.6-.1.2-.3.5-.5.8s-.5.6-.8.9-.6.7-1 1c-.4.4-.8.8-1.2 1.1-.4.4-.9.7-1.4 1.1-.5.3-1 .6-1.5.8s-.9.3-1.4.3-.9-.1-1.3-.2c-.4-.2-.7-.4-1-.6-.3-.3-.5-.6-.6-.9-.2-.4-.3-.7-.4-1.1s-.2-.8-.2-1.2-.1-.8-.1-1.1c0-.1 0-.4 0-.6 0-.3.1-.6.1-.9s.1-.6.1-.9.1-.5.1-.7c.1-.3.4-.6.7-.9.4-.3.8-.4 1.3-.4s.7.3.7.8c0 .2 0 .5-.1.8 0 .3-.1.5-.2.8-.1.5-.2.9-.2 1.3s-.1.7-.1 1 0 .7.1 1c0 .3.1.6.2.9.1.2.2.5.3.6.1.2.3.2.4.2.2 0 .4 0 .7-.1.2 0 .5-.1.8-.3.6-.3 1.3-.7 2-1.3.2-.2.5-.4.8-.7s.6-.5.9-.8.6-.5.9-.8.5-.5.7-.7c0 0 .1-.1.1-.1 0-.1.1-.1.1-.2.1-.1.1-.1.2-.1s.1-.1.2-.1h.3c.1 0 .1.1.2.3.3.2.3.3.3.4zm-6.7-8.2c0 .2 0 .4-.1.6s-.2.4-.3.6c-.3.4-.7.5-1.3.5-.2 0-.4 0-.6-.1-.2 0-.4-.1-.6-.1-.2-.1-.3-.1-.4-.2s-.2-.2-.2-.3c0-.2.1-.4.2-.7.1-.2.3-.4.4-.6.2-.2.4-.4.6-.5s.4-.2.6-.2h.7c.2 0 .4.1.5.2s.2.2.3.3.2.3.2.5z"/><path d="m86.6 112.9c0 .1 0 .3-.1.4 0 .1-.1.3-.2.4s-.2.3-.2.4c-.1.1-.2.2-.3.3-.2.3-.5.5-.8.8s-.6.6-.9.9-.6.6-1 .8c-.3.3-.7.5-1 .7s-.5.3-.7.4-.5.3-.7.4-.5.2-.8.3-.6.1-.9.1c-.5 0-1-.1-1.4-.3s-.6-.5-.9-.8c-.2-.3-.4-.7-.5-1.1s-.2-.9-.3-1.3c-.1-.6-.2-1.1-.3-1.5s-.3-.6-.4-.6-.3 0-.4.1-.3.2-.5.4-.5.5-.8.9-.7.9-1.2 1.6c-.2.2-.4.5-.6.8s-.5.6-.8.8c-.3.3-.5.5-.8.7s-.5.3-.8.4c-.9-.2-1.4-1-1.4-2.4 0-.4 0-.9.1-1.6 0-.3.1-.6.1-1 .1-.3.1-.7.2-1 .1-.4.2-.7.3-1s.2-.6.4-.9c.1-.2.2-.3.3-.4s.2-.2.3-.2.2-.1.4-.1h.4c.1 0 .2 0 .3.1.1 0 .2.1.3.2s.1.2.2.3c0 .1.1.3.1.5v.4c0 .1-.1.3-.1.4-.1.1-.1.3-.2.5s-.1.4-.2.6c0 .1-.1.3-.2.5s-.1.4-.2.7c-.1.2-.1.5-.2.7s-.1.4-.1.6l.5-.5c.2-.2.3-.4.5-.7.2-.2.4-.5.6-.7.2-.3.4-.5.6-.7.3-.3.5-.6.7-.8.2-.3.5-.5.8-.7s.6-.3.9-.5c.3-.1.7-.2 1.1-.2.5 0 .9.1 1.2.3s.5.4.7.7.3.7.4 1.1.2.9.2 1.4c0 .3.1.5.1.8s.1.5.2.7.2.4.4.5.3.2.6.2.7-.1 1.1-.2c.4-.2.8-.4 1.2-.7s.9-.6 1.3-1c.5-.4.9-.8 1.4-1.2l.4-.4.4-.4c.1-.1.2-.2.4-.3.1-.1.2-.1.3-.1h.2c.1 0 .1 0 .2.1.1 0 .1.1.1.1z"/><path d="m96.6 113.6c0 .2-.1.3-.2.6-.1.2-.3.5-.5.8s-.5.6-.8.9-.6.7-1 1c-.4.4-.8.8-1.2 1.1-.4.4-.9.7-1.4 1.1-.5.3-1 .6-1.5.8s-.9.3-1.4.3-.9-.1-1.3-.2c-.4-.2-.7-.4-1-.6-.3-.3-.5-.6-.6-.9-.2-.4-.3-.7-.4-1.1s-.2-.8-.2-1.2-.1-.8-.1-1.1c0-.1 0-.4 0-.6 0-.3.1-.6.1-.9s.1-.6.1-.9.1-.5.1-.7c.1-.3.4-.6.7-.9.4-.3.8-.4 1.3-.4s.7.3.7.8c0 .2 0 .5-.1.8 0 .3-.1.5-.2.8-.1.5-.2.9-.2 1.3s-.1.7-.1 1 0 .7.1 1c0 .3.1.6.2.9.1.2.2.5.3.6.1.2.3.2.5.2s.4 0 .7-.1c.2 0 .5-.1.8-.3.6-.3 1.3-.7 2-1.3.2-.2.5-.4.8-.7s.6-.5.9-.8.6-.5.9-.8.5-.5.7-.7c0 0 .1-.1.1-.1 0-.1.1-.1.1-.2.1-.1.1-.1.2-.1s.1-.1.2-.1h.3c.1 0 .1.1.2.3.2.2.2.3.2.4zm-6.7-8.2c0 .2 0 .4-.1.6s-.2.4-.3.6c-.3.4-.7.5-1.3.5-.2 0-.4 0-.6-.1-.2 0-.4-.1-.6-.1-.2-.1-.3-.1-.4-.2s-.2-.2-.2-.3c0-.2.1-.4.2-.7.1-.2.3-.4.5-.6s.4-.4.6-.5.4-.2.6-.2h.7c.2 0 .4.1.5.2l.3.3c0 .1.1.3.1.5z"/><path d="m111.1 113.5c0 .3-.1.7-.4 1.1s-.7.8-1.1 1.3c-.5.5-1 1-1.5 1.5-.6.5-1.2 1-1.7 1.6 0 0-.2.1-.4.3s-.4.4-.7.7-.6.5-.9.8-.6.6-.9.8c-.3.3-.5.5-.7.7s-.3.3-.3.3c-.1.1-.2.2-.3.3s-.1.1-.2.2-.1.1-.1.2-.1.2-.1.3c-.1.2-.1.3-.2.5s-.1.3-.2.4-.2.3-.3.4-.2.2-.3.2c-.2 0-.3-.1-.5-.2s-.4-.2-.6-.3-.3-.2-.4-.4c-.1-.1-.2-.3-.2-.5 0-.1 0-.3.1-.6s.1-.6.2-.9.2-.7.3-1c.1-.4.2-.7.4-1.1 0-.1.1-.2.2-.4s.2-.4.3-.7c.1-.2.2-.5.3-.8s.2-.5.3-.8c.1-.2.2-.5.2-.6.1-.2.1-.3.2-.4-.3.3-.7.5-1 .9-.4.3-.8.6-1.3.9-.4.3-.9.5-1.4.7s-1 .3-1.4.3c-.6 0-1-.2-1.4-.5-.3-.4-.5-.9-.5-1.6s.3-1.6.8-2.5c.2-.4.5-.9.8-1.3s.7-.9 1.1-1.3.8-.8 1.2-1.2c.4-.3.9-.7 1.3-.9.5-.3.9-.5 1.4-.6s.9-.2 1.3-.2c.2 0 .5 0 .7.1s.4.2.6.3.3.3.4.5.2.4.2.6c-.1.1-.1.3-.1.4v.3c0 .1.1.2.1.3.1.2.2.3.2.5 0 .1.1.3.1.4s0 .2-.1.4c0 .2-.1.4-.2.6s-.1.4-.2.6-.1.3-.1.4c-.1.2-.2.6-.3 1.1s-.3 1.1-.6 1.9c0 .1-.1.2-.1.4-.1.2-.1.4-.2.6s-.1.4-.2.7c-.1.2-.1.4-.2.6s-.1.4-.2.5c0 .1-.1.2-.1.3.3-.2.5-.4.8-.7.3-.2.6-.4.9-.7.3-.2.6-.4.8-.6.3-.2.5-.4.7-.5.7-.5 1.3-1.1 1.9-1.6s1.2-1 1.7-1.5c.2-.2.4-.3.6-.5s.5-.5.8-.8c.1-.1.2-.2.3-.2s.2-.1.3-.1h.1s.1 0 .1.1c0 0 .1.1.1.2-.2-.4-.2-.3-.2-.2zm-9.4.5c.2-.2.3-.4.4-.7s.2-.6.2-.9c-.2-.1-.3-.2-.4-.3s-.2-.3-.2-.5c0-.1 0-.3.1-.5 0-.2.1-.3.1-.3 0-.1 0-.1-.1-.1-.2 0-.6.1-1 .4-.5.3-1 .7-1.6 1.2-.1.1-.2.2-.4.4s-.3.4-.5.6-.4.5-.6.8-.4.6-.5.8c-.2.3-.3.5-.4.8s-.1.5-.1.7 0 .4.1.5.2.1.3.1.3 0 .4-.1c.2-.1.4-.1.6-.2s.4-.2.6-.3.4-.2.5-.3.3-.2.6-.4c.2-.2.5-.4.8-.6s.5-.4.7-.6c.1-.2.3-.4.4-.5z"/><path d="m128.8 112c0 .4-.1.8-.4 1.2-.3.5-.7.9-1.1 1.4-.5.5-1 .9-1.5 1.3-.6.4-1.1.8-1.7 1.1s-1.1.6-1.6.8-.9.3-1.3.3c-.5 0-.9-.1-1.2-.3s-.6-.4-.8-.7-.4-.7-.5-1c-.1-.4-.2-.8-.3-1.2-.1.2-.3.5-.4.8-.2.3-.4.6-.6.8-.2.3-.4.5-.6.8-.2.2-.4.5-.6.6-.3.2-.5.5-.8.7s-.6.4-1 .6c-.3.2-.7.3-1.1.4s-.8.2-1.2.2-.7-.1-.9-.2c-.3-.1-.5-.3-.7-.5s-.3-.5-.4-.8-.1-.6-.1-.9 0-.5.1-.8c0-.3.1-.5.2-.8s.1-.6.2-.8c.1-.3.1-.5.1-.8 0-.2 0-.4 0-.6s0-.4 0-.7c0-.2 0-.4.1-.7 0-.2.1-.4.1-.6 0-.1.1-.3.1-.4.1-.1.1-.2.2-.3s.2-.2.4-.2c.2-.1.3-.1.6-.1.5 0 .8.1 1 .4s.3.6.3 1.1v.5c0 .2 0 .4-.1.6 0 .2-.1.4-.1.7 0 .2-.1.4-.2.6-.1.4-.2.9-.3 1.3s-.2.8-.2 1.1c0 .2 0 .4.1.5s.2.2.3.2c.3 0 .6-.1 1-.3.3-.2.7-.4 1-.7s.6-.5.9-.9c.3-.3.5-.6.7-.9.2-.2.4-.5.6-.9s.4-.7.6-1.1.4-.8.5-1.2c.2-.4.3-.7.5-1 .2-.4.4-.7.7-.9.2-.2.5-.3.7-.3.3 0 .5.1.6.2s.2.3.2.5v.5c0 .2-.1.5-.1.7s-.1.5-.1.7v.5.4.5.5c0 .2 0 .3.1.4 0 .1.1.3.1.4.1.2.1.4.2.5.1.2.2.3.3.4s.2.2.4.2c.4 0 .8-.1 1.2-.3s.9-.4 1.3-.7.9-.6 1.3-1 .9-.7 1.3-1.1c.2-.2.3-.3.5-.5s.3-.3.5-.4.3-.2.4-.3.3-.1.4-.1.2 0 .3.1c-.3.4-.2.5-.2.5z"/><path d="m140 113.1c0 .1-.1.3-.3.7-.4.5-.8 1-1.3 1.5s-.9 1-1.5 1.4c-.5.4-1.1.9-1.6 1.2-.6.4-1.1.7-1.7 1s-1.2.5-1.7.6c-.6.2-1.1.2-1.7.2-1.2 0-2.2-.3-2.9-1-.7-.6-1-1.6-1-2.9 0-.5 0-1 .1-1.5s.2-1 .4-1.5.4-1 .7-1.4c.3-.5.7-.9 1.1-1.4.2-.2.3-.3.6-.5.2-.2.4-.3.7-.4.2-.1.5-.2.8-.3s.5-.1.8-.1c.4 0 .7.1 1 .2s.5.3.7.5.3.5.4.8.1.6.1.9c0 .6-.2 1.2-.7 1.8s-1.1 1.3-2 2c-.3.2-.6.4-1 .7s-.8.5-1.2.8c0 .2.1.3.2.5.1.1.2.3.4.4s.3.2.6.3c.2.1.5.1.7.1.4 0 .7 0 1.1-.1s.8-.2 1.2-.3.8-.3 1.1-.5c.4-.2.7-.4 1-.6.5-.4 1-.7 1.5-1.1s1-.8 1.4-1.3l.6-.5c.4-.3.7-.5 1-.5.1 0 .2 0 .3.1s.1.2.1.2zm-8.5-1.8c0-.1 0-.3 0-.4s-.1-.2-.2-.3c-.2 0-.5.1-.8.3s-.5.5-.8.8c-.3.4-.5.8-.7 1.3s-.3 1.1-.4 1.7c.3-.2.7-.5 1-.7.3-.3.7-.5.9-.8.3-.3.5-.6.7-.9.3-.3.3-.7.3-1z"/><path d="m41.4 1.8-38.2 37c-2 1.6-3.2 3.5-3.2 6.2s1.2 4.6 3.1 6.3l38.2 37c.2.3.5.4.7.4.4 0 .6-.3.6-.7 0-.2-.1-.5-.3-.7-9-11.2-15.5-23.9-15.5-42s6.5-31.1 15.5-42.3c.2-.2.3-.5.3-.7 0-.4-.2-.7-.6-.7-.2-.1-.4 0-.6.2"/></g><path d="m70.8-1.3c-15 0-20.8 21.2-20.8 46.5s5.8 46.2 20.8 46.2c9 0 16.6-5.3 16.7-9.6 0-.9-.4-1.9-1.2-2.6-4.3-4.1-5.9-8.2-5.9-11.9 0-6.9 6-12.1 11.5-12.1 7.6 0 12.1 6 12.1 13.7 0 7.3-3.1 13.5-6.5 18.4-.1.2-.2.4-.2.6 0 .4.2.7.6.7.2 0 .4-.1.7-.4l38.2-37c1.9-1.6 3.1-3.5 3.1-6.3 0-2.7-1.2-4.6-3.1-6.3l-38.2-37c-.3-.3-.5-.4-.7-.4-.3 0-.6.3-.6.7 0 .2.1.4.2.6 3.4 4.9 6.5 11 6.5 18.4 0 7.7-4.5 13.7-12.1 13.7-5.5 0-11.6-5.2-11.5-12.1 0-3.6 1.7-7.7 5.9-11.9.8-.8 1.2-1.7 1.2-2.6-.1-4.1-7.8-9.3-16.7-9.3" fill="#00519c"/></svg>