<?xml version="1.0" encoding="utf-8"?>
<!-- Generator: Adobe Illustrator 25.1.0, SVG Export Plug-In . SVG Version: 6.00 Build 0)  -->
<svg version="1.1" id="Layer_1" xmlns="http://www.w3.org/2000/svg" xmlns:xlink="http://www.w3.org/1999/xlink" x="0px" y="0px"
	 viewBox="0 0 140 125" style="enable-background:new 0 0 140 125;" xml:space="preserve">
<style type="text/css">
	.st0{fill:#E1001A;}
	.st1{fill:#00519C;}
</style>
<g>
	<path class="st0" d="M19.9,105.2c0,0.1,0,0.2,0,0.2c0,0.1-0.1,0.1-0.1,0.2c0,0.1-0.1,0.1-0.1,0.2c-0.1,0.1-0.1,0.2-0.1,0.4
		c0,0.2-0.1,0.4-0.1,0.5c0,0.1-0.1,0.3-0.1,0.4c0,0.1-0.1,0.3-0.1,0.4c0,0.1,0,0.3,0,0.5c0,0.3,0,0.6,0,0.9c0,0.3,0,0.6-0.1,0.9
		c0,0.3-0.1,0.6-0.1,1c0,0.3-0.1,0.7-0.1,1.1c-0.1,0.6-0.1,1.2-0.2,1.8c-0.1,0.6-0.1,1.3-0.1,2c0,0.2,0,0.4,0,0.6c0,0.2,0,0.5,0,0.8
		c0,0.3,0,0.6,0,0.8c0,0.3,0,0.6,0.1,0.8c0,0,0.1,0.1,0.1,0.1c0,0,0.1,0,0.1,0.1c0.3,0.2,0.4,0.3,0.6,0.4c0.1,0.1,0.2,0.3,0.2,0.5
		c0,0.1,0,0.3-0.1,0.4c-0.1,0.2-0.2,0.3-0.4,0.4c-0.2,0.1-0.3,0.2-0.5,0.3c-0.2,0.1-0.4,0.1-0.6,0.1c-0.4,0-0.8-0.1-1-0.4
		c-0.3-0.2-0.5-0.5-0.6-0.9c-0.2-0.4-0.3-0.8-0.3-1.3c-0.1-0.5-0.1-0.9-0.1-1.4v-0.4c0-0.2,0-0.5,0.1-0.9c0-0.4,0.1-0.8,0.2-1.3
		c0.1-0.5,0.1-1,0.2-1.6c0.1-0.5,0.2-1.1,0.2-1.6c0.1-0.5,0.2-1,0.2-1.5c0.1-0.5,0.1-0.8,0.2-1.1c-0.1,0.1-0.2,0.2-0.4,0.4
		c-0.2,0.2-0.3,0.4-0.5,0.6c-0.2,0.2-0.4,0.5-0.6,0.7c-0.2,0.3-0.4,0.5-0.6,0.8c-0.2,0.2-0.4,0.5-0.6,0.7c-0.2,0.2-0.3,0.4-0.4,0.6
		c-0.3,0.3-0.5,0.7-0.8,1c-0.3,0.3-0.5,0.7-0.8,1.1c0,0-0.1,0.1-0.1,0.1c0,0.1-0.1,0.1-0.2,0.2c-0.1,0.1-0.1,0.2-0.2,0.2
		c-0.1,0.1-0.1,0.1-0.2,0.2c-0.5,0.6-1.1,1-1.7,1.2c-0.4-0.1-0.7-0.2-0.9-0.4c-0.2-0.1-0.4-0.3-0.6-0.4c-0.2-0.2-0.3-0.3-0.4-0.5
		c-0.1-0.2-0.2-0.4-0.4-0.6c-0.1-0.2-0.3-0.4-0.4-0.6c-0.1-0.2-0.2-0.4-0.3-0.5c-0.2-0.3-0.4-0.6-0.5-1c-0.2-0.3-0.3-0.7-0.5-1.1
		c-0.1-0.3-0.2-0.6-0.3-0.8c-0.1-0.2-0.1-0.4-0.2-0.6c-0.1-0.2-0.1-0.4-0.2-0.6c-0.1-0.2-0.1-0.4-0.2-0.7c0,0,0,0.2-0.1,0.3
		c0,0.2-0.1,0.4-0.2,0.7c-0.1,0.3-0.1,0.6-0.2,0.9c-0.1,0.3-0.2,0.7-0.2,1c-0.1,0.3-0.2,0.7-0.2,1c-0.1,0.3-0.1,0.6-0.2,0.9
		c-0.1,0.3-0.1,0.5-0.2,0.6c0,0.2-0.1,0.3-0.1,0.3c-0.1,0.5-0.2,1-0.2,1.5c0,0.1,0,0.3,0,0.5c0,0.2,0,0.4,0,0.7c0,0.2,0,0.5,0,0.7
		c0,0.2,0,0.4,0,0.5c0,0.1,0,0.2-0.1,0.4c-0.1,0.1-0.2,0.3-0.3,0.4c-0.1,0.1-0.2,0.2-0.4,0.3c-0.2,0.1-0.3,0.1-0.5,0.1
		c-0.2,0-0.4,0-0.6,0c-0.2,0-0.3-0.1-0.4-0.1c-0.1-0.1-0.2-0.1-0.3-0.3c-0.1-0.1-0.2-0.3-0.3-0.4c0-0.1-0.1-0.1-0.1-0.2
		c0-0.1,0-0.2,0-0.3c0-0.1,0-0.2,0-0.4c0-0.2,0-0.4,0-0.6c0-0.1,0-0.2,0.1-0.4c0.1-0.2,0.1-0.5,0.2-0.8c0.1-0.3,0.2-0.7,0.3-1
		c0.1-0.4,0.2-0.7,0.3-1.1c0.1-0.3,0.2-0.7,0.3-1c0.1-0.3,0.2-0.6,0.2-0.8c0.1-0.3,0.2-0.7,0.3-1c0.1-0.4,0.2-0.7,0.3-1.1
		c0.1-0.4,0.2-0.7,0.3-1.1c0.1-0.4,0.2-0.7,0.3-1c0-0.3,0.1-0.6,0.1-0.7c0-0.2,0.1-0.4,0.2-0.6c0.1-0.2,0.2-0.4,0.3-0.6
		c0.1-0.2,0.2-0.3,0.4-0.4c0.1-0.1,0.3-0.2,0.5-0.2c0.6,0,1.1,0.1,1.4,0.2c0.4,0.1,0.6,0.3,0.8,0.6c0.2,0.2,0.4,0.6,0.5,1
		c0.1,0.4,0.3,0.9,0.4,1.4c0,0.2,0.1,0.3,0.1,0.4c0.1,0.1,0.1,0.2,0.2,0.4c0.2,0.7,0.5,1.4,0.9,2.1c0.4,0.7,0.8,1.4,1.2,2
		c0.2-0.1,0.4-0.3,0.5-0.5c0.2-0.2,0.3-0.5,0.5-0.8c0.2-0.3,0.3-0.5,0.5-0.8c0.2-0.2,0.4-0.5,0.6-0.7c0.1-0.1,0.2-0.2,0.4-0.4
		c0.2-0.2,0.4-0.4,0.6-0.7c0.2-0.3,0.5-0.5,0.7-0.8c0.3-0.3,0.5-0.6,0.7-0.8c0.2-0.3,0.4-0.5,0.6-0.7c0.2-0.2,0.3-0.3,0.4-0.4
		c0.1-0.1,0.1-0.2,0.2-0.2c0,0,0.1-0.1,0.2-0.2c0.1-0.1,0.2-0.3,0.4-0.5c0.2-0.2,0.4-0.5,0.6-0.7c0.2-0.2,0.4-0.5,0.6-0.7
		c0.2-0.2,0.3-0.4,0.4-0.5c0.1-0.1,0.3-0.2,0.6-0.2c0.2,0,0.3,0,0.5,0.1c0.2,0.1,0.3,0.2,0.5,0.3c0.1,0.1,0.3,0.2,0.4,0.4
		C19.9,105,19.9,105.1,19.9,105.2L19.9,105.2z"/>
	<path class="st0" d="M39.6,113.3c0,0.1,0,0.2,0,0.3c0,0.1-0.1,0.2-0.1,0.3c-0.1,0.1-0.1,0.2-0.2,0.3c-0.1,0.1-0.1,0.2-0.2,0.3
		c0,0-0.1,0.1-0.2,0.2c-0.1,0.1-0.2,0.2-0.3,0.3c-0.1,0.1-0.2,0.2-0.3,0.3c-0.1,0.1-0.3,0.2-0.4,0.4c-0.4,0.4-0.8,0.7-1.3,1.1
		c-0.4,0.4-0.9,0.7-1.4,0.9c-0.5,0.3-1,0.5-1.5,0.7c-0.5,0.2-1.1,0.3-1.6,0.3c-0.2,0-0.5-0.1-0.7-0.2c-0.3-0.1-0.5-0.2-0.7-0.4
		c-0.2-0.2-0.4-0.4-0.6-0.6c-0.2-0.2-0.3-0.5-0.3-0.8c-0.1,0.2-0.3,0.4-0.5,0.6c-0.2,0.2-0.4,0.5-0.7,0.7c-0.2,0.2-0.5,0.4-0.8,0.6
		c-0.3,0.2-0.5,0.4-0.7,0.5c-0.2,0.1-0.4,0.2-0.6,0.3c-0.2,0.1-0.5,0.2-0.7,0.3c-0.3,0.1-0.5,0.2-0.8,0.2c-0.3,0.1-0.5,0.1-0.7,0.1
		c-0.3,0-0.7-0.1-0.9-0.3c-0.3-0.2-0.5-0.4-0.6-0.7c-0.2-0.3-0.3-0.5-0.4-0.8c-0.1-0.3-0.1-0.6-0.1-0.8c0-0.4,0.1-0.9,0.2-1.3
		c0.1-0.5,0.3-0.9,0.5-1.3c0.2-0.4,0.5-0.8,0.7-1.2c0.3-0.4,0.5-0.7,0.8-1.1c0.3-0.3,0.6-0.6,1-1c0.4-0.3,0.8-0.6,1.2-0.9
		c0.4-0.3,0.8-0.5,1.2-0.6c0.4-0.2,0.8-0.2,1.1-0.2c0.2,0,0.4,0,0.5,0c0.2,0,0.4,0,0.5,0c0.2,0,0.4,0.1,0.5,0.1
		c0.2,0,0.3,0.1,0.4,0.1c0.1,0.1,0.2,0.1,0.3,0.3c0.1,0.1,0.2,0.3,0.3,0.4c0.1,0.2,0.2,0.3,0.2,0.5c0.1,0.2,0.1,0.3,0.1,0.4
		c0,0.2,0,0.4-0.1,0.7c-0.1,0.3-0.1,0.5-0.2,0.8c-0.1,0.3-0.1,0.6-0.2,0.9c-0.1,0.3-0.1,0.6-0.1,0.8c0,0.2,0,0.4,0.1,0.6
		c0.1,0.2,0.1,0.4,0.2,0.5c0.1,0.2,0.2,0.3,0.4,0.4c0.2,0.1,0.3,0.2,0.5,0.2c0.4,0,0.8-0.1,1.3-0.2c0.4-0.1,0.8-0.3,1.3-0.6
		c0.4-0.3,0.8-0.6,1.3-0.9c0.4-0.4,0.8-0.7,1.3-1.1c0,0,0.1,0,0.2-0.1c0.1-0.1,0.2-0.2,0.4-0.3c0.1-0.1,0.3-0.2,0.4-0.3
		c0.2-0.1,0.3-0.1,0.4-0.1c0.2,0,0.3,0.1,0.4,0.2C39.5,112.9,39.6,113.1,39.6,113.3z M29.7,112.3c0-0.1,0-0.1,0-0.2
		c0-0.1-0.1-0.2-0.1-0.2c0-0.1-0.1-0.1-0.1-0.2c-0.1,0-0.1-0.1-0.1-0.1c-0.5,0-0.9,0.1-1.3,0.4c-0.4,0.2-0.8,0.6-1.2,1
		c-0.2,0.2-0.5,0.5-0.8,0.9c-0.3,0.4-0.5,0.8-0.8,1.2c-0.2,0.4-0.4,0.8-0.6,1.3c-0.2,0.4-0.2,0.8-0.2,1.1c0,0.1,0,0.2,0,0.2
		c0,0.1,0,0.1,0.1,0.2c0,0.1,0.1,0.1,0.1,0.1c0.1,0,0.1,0.1,0.2,0.1c0.3,0,0.6-0.1,0.9-0.2c0.3-0.2,0.7-0.4,1-0.6
		c0.3-0.3,0.7-0.6,1-0.9c0.3-0.3,0.6-0.7,0.8-1.1c0.3-0.4,0.5-0.9,0.7-1.4C29.6,113.3,29.7,112.8,29.7,112.3z"/>
	<path class="st0" d="M40,111c0.1,0,0.2,0,0.3,0.1c0.1,0,0.2,0.1,0.3,0.2c0.1,0.1,0.2,0.1,0.3,0.2c0.1,0.1,0.1,0.1,0.2,0.2
		c0.1,0.1,0.1,0.2,0.1,0.3c0,0.1,0,0.2,0,0.3c0,0.2,0,0.3,0,0.5c0,0.2,0,0.3-0.1,0.4c0,0.2-0.1,0.4-0.2,0.6
		c-0.1,0.2-0.1,0.4-0.2,0.7c-0.1,0.2-0.1,0.5-0.2,0.8c0,0.3-0.1,0.5-0.1,0.8c0.1-0.3,0.3-0.6,0.4-0.9c0.2-0.4,0.4-0.7,0.6-1.1
		c0.2-0.4,0.4-0.7,0.7-1.1c0.2-0.4,0.5-0.7,0.7-0.9c0.2-0.2,0.4-0.4,0.6-0.5c0.2-0.2,0.4-0.3,0.7-0.5c0.2-0.1,0.5-0.2,0.8-0.3
		c0.3-0.1,0.5-0.1,0.8-0.1c0.2,0,0.4,0,0.6,0.1c0.2,0.1,0.4,0.1,0.6,0.2c0.2,0.1,0.3,0.2,0.4,0.4c0.1,0.1,0.2,0.3,0.2,0.5
		c0,0.1,0,0.2-0.1,0.3c0,0.1-0.1,0.2-0.2,0.4c-0.1,0.1-0.2,0.2-0.3,0.3c-0.1,0.1-0.3,0.1-0.4,0.1c-0.1,0-0.2,0-0.4,0
		c-0.1,0-0.3,0-0.4,0c-0.3,0-0.6,0.1-0.9,0.2c-0.3,0.2-0.6,0.4-0.8,0.7c-0.2,0.2-0.4,0.5-0.6,0.8c-0.2,0.3-0.4,0.7-0.6,1
		c-0.2,0.4-0.4,0.8-0.6,1.2c-0.2,0.4-0.4,0.8-0.5,1.2c-0.1,0.2-0.2,0.4-0.2,0.6c-0.1,0.2-0.1,0.5-0.2,0.7c-0.1,0.2-0.1,0.5-0.2,0.7
		c-0.1,0.2-0.1,0.5-0.1,0.7c0,0.1-0.1,0.1-0.2,0.2c-0.1,0.1-0.2,0.2-0.4,0.2c-0.1,0.1-0.3,0.1-0.4,0.2c-0.1,0-0.2,0.1-0.3,0.1
		c-0.3,0-0.5-0.1-0.7-0.2c-0.2-0.2-0.3-0.4-0.4-0.6c-0.1-0.2-0.2-0.5-0.2-0.8c0-0.3-0.1-0.6-0.1-0.8c0-0.2,0-0.4,0-0.7
		c0-0.3,0-0.6,0-0.9c0-0.3,0-0.6,0-0.9c0-0.3,0-0.6,0-0.9c0-0.3,0-0.5,0-0.8c0-0.2,0-0.4,0-0.5v-1.2c0-0.1,0-0.2,0-0.2
		c0-0.1,0-0.2,0-0.2c0-0.2,0.1-0.4,0.2-0.5c0.1-0.2,0.2-0.3,0.3-0.4c0.1-0.1,0.3-0.2,0.5-0.3C39.7,111,39.9,111,40,111z M60.6,111.3
		c0,0.1,0,0.3-0.1,0.4c0,0.1-0.1,0.2-0.2,0.3c-0.1,0.1-0.2,0.1-0.3,0.2c-0.1,0.1-0.2,0.1-0.3,0.2c-0.3,0.1-0.7,0.3-1.1,0.4
		c-0.4,0.1-0.8,0.2-1.2,0.3c-0.4,0.1-0.8,0.1-1.2,0.2c-0.4,0.1-0.7,0.1-1,0.1c-0.2,0-0.4,0.1-0.6,0.1c-0.2,0-0.4,0-0.6,0.1
		c-0.2,0-0.4,0-0.6,0.1c-0.2,0-0.3,0-0.5,0.1c-0.1,0.6-0.3,1.1-0.4,1.6c-0.1,0.5-0.2,1-0.3,1.5c0,0.1-0.1,0.3-0.1,0.5
		c0,0.2-0.1,0.5-0.1,0.7c0,0.3-0.1,0.5-0.1,0.7c0,0.2,0,0.4,0,0.5c0,0.2,0,0.4,0.1,0.5c0.1,0.1,0.2,0.2,0.2,0.3
		c0.1,0.1,0.2,0.2,0.2,0.3c0.1,0.1,0.1,0.2,0.1,0.4c0,0.1-0.1,0.3-0.2,0.4c-0.1,0.1-0.2,0.2-0.4,0.3c-0.2,0.1-0.3,0.2-0.5,0.2
		c-0.2,0.1-0.3,0.1-0.5,0.1c-0.3,0-0.5-0.1-0.7-0.2c-0.2-0.1-0.4-0.3-0.5-0.5c-0.2-0.2-0.3-0.4-0.3-0.7c-0.1-0.3-0.1-0.5-0.1-0.8
		c0-0.4,0-0.9,0.1-1.4c0.1-0.5,0.2-1,0.3-1.6c0.1-0.2,0.1-0.5,0.2-0.8c0.1-0.3,0.1-0.6,0.2-0.8c0.1-0.3,0.1-0.5,0.2-0.7
		c0-0.2,0.1-0.4,0.1-0.5c-0.2,0-0.3,0-0.5,0c-0.1,0-0.3,0-0.5,0c-0.2,0-0.4,0-0.5-0.1c-0.1-0.1-0.3-0.1-0.4-0.3
		c-0.1-0.1-0.2-0.2-0.2-0.4c-0.1-0.1-0.1-0.3-0.1-0.5c0-0.1,0-0.3,0.1-0.4c0.1-0.1,0.2-0.2,0.3-0.3c0.1-0.1,0.3-0.1,0.5-0.2
		c0.2,0,0.3-0.1,0.5-0.1c0.1,0,0.3,0,0.5,0c0.2,0,0.4,0,0.5,0c0,0,0.1-0.1,0.1-0.2c0.1-0.1,0.1-0.3,0.2-0.5c0.1-0.2,0.1-0.4,0.2-0.7
		c0.1-0.2,0.1-0.5,0.2-0.7c0.1-0.2,0.1-0.4,0.1-0.6c0-0.2,0.1-0.3,0.1-0.4c0.1-0.3,0.2-0.6,0.3-1c0.1-0.4,0.2-0.7,0.4-1
		c0.1-0.3,0.3-0.6,0.6-0.8c0.2-0.2,0.5-0.3,0.9-0.3c0.2,0,0.3,0,0.4,0c0.1,0,0.2,0.1,0.2,0.2c0.1,0.1,0.1,0.2,0.1,0.3
		c0,0.1,0,0.3,0,0.6c0,0.2,0,0.4-0.1,0.6c0,0.2-0.1,0.4-0.2,0.7c-0.2,0.5-0.3,0.9-0.4,1.4c-0.1,0.4-0.2,0.8-0.3,1.1
		c-0.1,0.3-0.2,0.6-0.2,0.8c0,0.2-0.1,0.3-0.1,0.4c0.3,0,0.6,0,0.8,0c0.3,0,0.6,0,0.8-0.1c0.3,0,0.6,0,0.9-0.1c0.3,0,0.6-0.1,1-0.1
		c0.4,0,0.8-0.1,1.1-0.1c0.3,0,0.6-0.1,0.8-0.1c0.2,0,0.4-0.1,0.6-0.1c0.2,0,0.4,0,0.5,0c0.1,0,0.1,0,0.2,0c0.1,0,0.1,0,0.2,0.1
		c0,0,0.1,0.1,0.1,0.2C60.6,111.1,60.6,111.2,60.6,111.3z"/>
	<path class="st0" d="M69.4,113.6c0,0.2-0.1,0.3-0.2,0.6c-0.1,0.2-0.3,0.5-0.5,0.8c-0.2,0.3-0.5,0.6-0.8,0.9c-0.3,0.3-0.6,0.7-1,1
		c-0.4,0.4-0.8,0.8-1.2,1.1c-0.4,0.4-0.9,0.7-1.4,1.1c-0.5,0.3-1,0.6-1.5,0.8c-0.5,0.2-0.9,0.3-1.4,0.3c-0.5,0-0.9-0.1-1.3-0.2
		c-0.4-0.2-0.7-0.4-1-0.6c-0.3-0.3-0.5-0.6-0.6-0.9c-0.2-0.4-0.3-0.7-0.4-1.1c-0.1-0.4-0.2-0.8-0.2-1.2c0-0.4-0.1-0.8-0.1-1.1
		c0-0.1,0-0.4,0-0.6c0-0.3,0.1-0.6,0.1-0.9c0-0.3,0.1-0.6,0.1-0.9c0-0.3,0.1-0.5,0.1-0.7c0.1-0.3,0.4-0.6,0.7-0.9
		c0.4-0.3,0.8-0.4,1.3-0.4c0.5,0,0.7,0.3,0.7,0.8c0,0.2,0,0.5-0.1,0.8c0,0.3-0.1,0.5-0.2,0.8c-0.1,0.5-0.2,0.9-0.2,1.3
		c0,0.4-0.1,0.7-0.1,1c0,0.3,0,0.7,0.1,1c0,0.3,0.1,0.6,0.2,0.9c0.1,0.2,0.2,0.5,0.3,0.6c0.1,0.2,0.3,0.2,0.4,0.2
		c0.2,0,0.4,0,0.7-0.1c0.2,0,0.5-0.1,0.8-0.3c0.6-0.3,1.3-0.7,2-1.3c0.2-0.2,0.5-0.4,0.8-0.7c0.3-0.3,0.6-0.5,0.9-0.8
		c0.3-0.3,0.6-0.5,0.9-0.8c0.3-0.3,0.5-0.5,0.7-0.7c0,0,0.1-0.1,0.1-0.1c0-0.1,0.1-0.1,0.1-0.2c0.1-0.1,0.1-0.1,0.2-0.1
		c0.1,0,0.1-0.1,0.2-0.1c0.1,0,0.2,0,0.3,0c0.1,0,0.1,0.1,0.2,0.3C69.4,113.4,69.4,113.5,69.4,113.6z M62.7,105.4
		c0,0.2,0,0.4-0.1,0.6c-0.1,0.2-0.2,0.4-0.3,0.6c-0.3,0.4-0.7,0.5-1.3,0.5c-0.2,0-0.4,0-0.6-0.1c-0.2,0-0.4-0.1-0.6-0.1
		c-0.2-0.1-0.3-0.1-0.4-0.2c-0.1-0.1-0.2-0.2-0.2-0.3c0-0.2,0.1-0.4,0.2-0.7c0.1-0.2,0.3-0.4,0.4-0.6c0.2-0.2,0.4-0.4,0.6-0.5
		c0.2-0.1,0.4-0.2,0.6-0.2c0.3,0,0.5,0,0.7,0c0.2,0,0.4,0.1,0.5,0.2c0.1,0.1,0.2,0.2,0.3,0.3C62.6,105,62.7,105.2,62.7,105.4z"/>
	<path class="st0" d="M86.6,112.9c0,0.1,0,0.3-0.1,0.4c0,0.1-0.1,0.3-0.2,0.4c-0.1,0.1-0.2,0.3-0.2,0.4c-0.1,0.1-0.2,0.2-0.3,0.3
		c-0.2,0.3-0.5,0.5-0.8,0.8c-0.3,0.3-0.6,0.6-0.9,0.9c-0.3,0.3-0.6,0.6-1,0.8c-0.3,0.3-0.7,0.5-1,0.7c-0.3,0.2-0.5,0.3-0.7,0.4
		c-0.2,0.1-0.5,0.3-0.7,0.4c-0.2,0.1-0.5,0.2-0.8,0.3c-0.3,0.1-0.6,0.1-0.9,0.1c-0.5,0-1-0.1-1.4-0.3c-0.4-0.2-0.6-0.5-0.9-0.8
		c-0.2-0.3-0.4-0.7-0.5-1.1c-0.1-0.4-0.2-0.9-0.3-1.3c-0.1-0.6-0.2-1.1-0.3-1.5c-0.1-0.4-0.3-0.6-0.4-0.6c-0.1,0-0.3,0-0.4,0.1
		c-0.1,0.1-0.3,0.2-0.5,0.4c-0.2,0.2-0.5,0.5-0.8,0.9c-0.3,0.4-0.7,0.9-1.2,1.6c-0.2,0.2-0.4,0.5-0.6,0.8c-0.2,0.3-0.5,0.6-0.8,0.8
		c-0.3,0.3-0.5,0.5-0.8,0.7c-0.3,0.2-0.5,0.3-0.8,0.4c-0.9-0.2-1.4-1-1.4-2.4c0-0.4,0-0.9,0.1-1.6c0-0.3,0.1-0.6,0.1-1
		c0.1-0.3,0.1-0.7,0.2-1c0.1-0.4,0.2-0.7,0.3-1c0.1-0.3,0.2-0.6,0.4-0.9c0.1-0.2,0.2-0.3,0.3-0.4c0.1-0.1,0.2-0.2,0.3-0.2
		c0.1,0,0.2-0.1,0.4-0.1c0.1,0,0.2,0,0.4,0c0.1,0,0.2,0,0.3,0.1c0.1,0,0.2,0.1,0.3,0.2c0.1,0.1,0.1,0.2,0.2,0.3
		c0,0.1,0.1,0.3,0.1,0.5c0,0.2,0,0.3,0,0.4c0,0.1-0.1,0.3-0.1,0.4c-0.1,0.1-0.1,0.3-0.2,0.5c-0.1,0.2-0.1,0.4-0.2,0.6
		c0,0.1-0.1,0.3-0.2,0.5c-0.1,0.2-0.1,0.4-0.2,0.7c-0.1,0.2-0.1,0.5-0.2,0.7c-0.1,0.2-0.1,0.4-0.1,0.6c0.1-0.1,0.3-0.3,0.5-0.5
		c0.2-0.2,0.3-0.4,0.5-0.7c0.2-0.2,0.4-0.5,0.6-0.7c0.2-0.3,0.4-0.5,0.6-0.7c0.3-0.3,0.5-0.6,0.7-0.8c0.2-0.3,0.5-0.5,0.8-0.7
		c0.3-0.2,0.6-0.3,0.9-0.5c0.3-0.1,0.7-0.2,1.1-0.2c0.5,0,0.9,0.1,1.2,0.3c0.3,0.2,0.5,0.4,0.7,0.7c0.2,0.3,0.3,0.7,0.4,1.1
		c0.1,0.4,0.2,0.9,0.2,1.4c0,0.3,0.1,0.5,0.1,0.8c0,0.3,0.1,0.5,0.2,0.7c0.1,0.2,0.2,0.4,0.4,0.5c0.2,0.1,0.3,0.2,0.6,0.2
		c0.3,0,0.7-0.1,1.1-0.2c0.4-0.2,0.8-0.4,1.2-0.7c0.4-0.3,0.9-0.6,1.3-1c0.5-0.4,0.9-0.8,1.4-1.2c0.1-0.1,0.3-0.3,0.4-0.4
		c0.1-0.1,0.3-0.3,0.4-0.4c0.1-0.1,0.2-0.2,0.4-0.3c0.1-0.1,0.2-0.1,0.3-0.1c0,0,0.1,0,0.2,0c0.1,0,0.1,0,0.2,0.1
		c0.1,0,0.1,0.1,0.1,0.1C86.6,112.7,86.6,112.8,86.6,112.9z"/>
	<path class="st0" d="M96.6,113.6c0,0.2-0.1,0.3-0.2,0.6c-0.1,0.2-0.3,0.5-0.5,0.8c-0.2,0.3-0.5,0.6-0.8,0.9c-0.3,0.3-0.6,0.7-1,1
		c-0.4,0.4-0.8,0.8-1.2,1.1c-0.4,0.4-0.9,0.7-1.4,1.1c-0.5,0.3-1,0.6-1.5,0.8c-0.5,0.2-0.9,0.3-1.4,0.3c-0.5,0-0.9-0.1-1.3-0.2
		c-0.4-0.2-0.7-0.4-1-0.6c-0.3-0.3-0.5-0.6-0.6-0.9c-0.2-0.4-0.3-0.7-0.4-1.1c-0.1-0.4-0.2-0.8-0.2-1.2c0-0.4-0.1-0.8-0.1-1.1
		c0-0.1,0-0.4,0-0.6c0-0.3,0.1-0.6,0.1-0.9c0-0.3,0.1-0.6,0.1-0.9c0-0.3,0.1-0.5,0.1-0.7c0.1-0.3,0.4-0.6,0.7-0.9
		c0.4-0.3,0.8-0.4,1.3-0.4c0.5,0,0.7,0.3,0.7,0.8c0,0.2,0,0.5-0.1,0.8c0,0.3-0.1,0.5-0.2,0.8c-0.1,0.5-0.2,0.9-0.2,1.3
		c0,0.4-0.1,0.7-0.1,1c0,0.3,0,0.7,0.1,1c0,0.3,0.1,0.6,0.2,0.9c0.1,0.2,0.2,0.5,0.3,0.6c0.1,0.2,0.3,0.2,0.5,0.2
		c0.2,0,0.4,0,0.7-0.1c0.2,0,0.5-0.1,0.8-0.3c0.6-0.3,1.3-0.7,2-1.3c0.2-0.2,0.5-0.4,0.8-0.7c0.3-0.3,0.6-0.5,0.9-0.8
		c0.3-0.3,0.6-0.5,0.9-0.8c0.3-0.3,0.5-0.5,0.7-0.7c0,0,0.1-0.1,0.1-0.1c0-0.1,0.1-0.1,0.1-0.2c0.1-0.1,0.1-0.1,0.2-0.1
		c0.1,0,0.1-0.1,0.2-0.1c0.1,0,0.2,0,0.3,0c0.1,0,0.1,0.1,0.2,0.3C96.6,113.4,96.6,113.5,96.6,113.6z M89.9,105.4
		c0,0.2,0,0.4-0.1,0.6c-0.1,0.2-0.2,0.4-0.3,0.6c-0.3,0.4-0.7,0.5-1.3,0.5c-0.2,0-0.4,0-0.6-0.1c-0.2,0-0.4-0.1-0.6-0.1
		c-0.2-0.1-0.3-0.1-0.4-0.2c-0.1-0.1-0.2-0.2-0.2-0.3c0-0.2,0.1-0.4,0.2-0.7c0.1-0.2,0.3-0.4,0.5-0.6c0.2-0.2,0.4-0.4,0.6-0.5
		c0.2-0.1,0.4-0.2,0.6-0.2c0.3,0,0.5,0,0.7,0c0.2,0,0.4,0.1,0.5,0.2c0.1,0.1,0.2,0.2,0.3,0.3C89.8,105,89.9,105.2,89.9,105.4z"/>
	<path class="st0" d="M111.1,113.5c0,0.3-0.1,0.7-0.4,1.1c-0.3,0.4-0.7,0.8-1.1,1.3c-0.5,0.5-1,1-1.5,1.5c-0.6,0.5-1.2,1-1.7,1.6
		c0,0-0.2,0.1-0.4,0.3c-0.2,0.2-0.4,0.4-0.7,0.7c-0.3,0.3-0.6,0.5-0.9,0.8c-0.3,0.3-0.6,0.6-0.9,0.8c-0.3,0.3-0.5,0.5-0.7,0.7
		c-0.2,0.2-0.3,0.3-0.3,0.3c-0.1,0.1-0.2,0.2-0.3,0.3c-0.1,0.1-0.1,0.1-0.2,0.2c-0.1,0.1-0.1,0.1-0.1,0.2c0,0.1-0.1,0.2-0.1,0.3
		c-0.1,0.2-0.1,0.3-0.2,0.5c-0.1,0.2-0.1,0.3-0.2,0.4c-0.1,0.1-0.2,0.3-0.3,0.4c-0.1,0.1-0.2,0.2-0.3,0.2c-0.2,0-0.3-0.1-0.5-0.2
		c-0.2-0.1-0.4-0.2-0.6-0.3c-0.2-0.1-0.3-0.2-0.4-0.4c-0.1-0.1-0.2-0.3-0.2-0.5c0-0.1,0-0.3,0.1-0.6c0.1-0.3,0.1-0.6,0.2-0.9
		c0.1-0.3,0.2-0.7,0.3-1c0.1-0.4,0.2-0.7,0.4-1.1c0-0.1,0.1-0.2,0.2-0.4c0.1-0.2,0.2-0.4,0.3-0.7c0.1-0.2,0.2-0.5,0.3-0.8
		c0.1-0.3,0.2-0.5,0.3-0.8c0.1-0.2,0.2-0.5,0.2-0.6c0.1-0.2,0.1-0.3,0.2-0.4c-0.3,0.3-0.7,0.5-1,0.9c-0.4,0.3-0.8,0.6-1.3,0.9
		c-0.4,0.3-0.9,0.5-1.4,0.7c-0.5,0.2-1,0.3-1.4,0.3c-0.6,0-1-0.2-1.4-0.5c-0.3-0.4-0.5-0.9-0.5-1.6c0-0.7,0.3-1.6,0.8-2.5
		c0.2-0.4,0.5-0.9,0.8-1.3c0.3-0.4,0.7-0.9,1.1-1.3c0.4-0.4,0.8-0.8,1.2-1.2c0.4-0.3,0.9-0.7,1.3-0.9c0.5-0.3,0.9-0.5,1.4-0.6
		c0.5-0.1,0.9-0.2,1.3-0.2c0.2,0,0.5,0,0.7,0.1c0.2,0.1,0.4,0.2,0.6,0.3c0.2,0.1,0.3,0.3,0.4,0.5c0.1,0.2,0.2,0.4,0.2,0.6
		c-0.1,0.1-0.1,0.3-0.1,0.4c0,0.1,0,0.2,0,0.3c0,0.1,0.1,0.2,0.1,0.3c0.1,0.2,0.2,0.3,0.2,0.5c0,0.1,0.1,0.3,0.1,0.4
		c0,0.1,0,0.2-0.1,0.4c0,0.2-0.1,0.4-0.2,0.6c-0.1,0.2-0.1,0.4-0.2,0.6c-0.1,0.2-0.1,0.3-0.1,0.4c-0.1,0.2-0.2,0.6-0.3,1.1
		c-0.1,0.5-0.3,1.1-0.6,1.9c0,0.1-0.1,0.2-0.1,0.4c-0.1,0.2-0.1,0.4-0.2,0.6c-0.1,0.2-0.1,0.4-0.2,0.7c-0.1,0.2-0.1,0.4-0.2,0.6
		c-0.1,0.2-0.1,0.4-0.2,0.5c0,0.1-0.1,0.2-0.1,0.3c0.3-0.2,0.5-0.4,0.8-0.7c0.3-0.2,0.6-0.4,0.9-0.7c0.3-0.2,0.6-0.4,0.8-0.6
		c0.3-0.2,0.5-0.4,0.7-0.5c0.7-0.5,1.3-1.1,1.9-1.6c0.6-0.5,1.2-1,1.7-1.5c0.2-0.2,0.4-0.3,0.6-0.5c0.2-0.2,0.5-0.5,0.8-0.8
		c0.1-0.1,0.2-0.2,0.3-0.2c0.1,0,0.2-0.1,0.3-0.1c0,0,0.1,0,0.1,0c0,0,0.1,0,0.1,0.1c0,0,0.1,0.1,0.1,0.2
		C111.1,113.3,111.1,113.4,111.1,113.5z M101.7,114c0.2-0.2,0.3-0.4,0.4-0.7c0.1-0.3,0.2-0.6,0.2-0.9c-0.2-0.1-0.3-0.2-0.4-0.3
		c-0.1-0.1-0.2-0.3-0.2-0.5c0-0.1,0-0.3,0.1-0.5c0-0.2,0.1-0.3,0.1-0.3c0-0.1,0-0.1-0.1-0.1c-0.2,0-0.6,0.1-1,0.4
		c-0.5,0.3-1,0.7-1.6,1.2c-0.1,0.1-0.2,0.2-0.4,0.4c-0.2,0.2-0.3,0.4-0.5,0.6c-0.2,0.2-0.4,0.5-0.6,0.8c-0.2,0.3-0.4,0.6-0.5,0.8
		c-0.2,0.3-0.3,0.5-0.4,0.8c-0.1,0.3-0.1,0.5-0.1,0.7c0,0.2,0,0.4,0.1,0.5c0.1,0.1,0.2,0.1,0.3,0.1c0.1,0,0.3,0,0.4-0.1
		c0.2-0.1,0.4-0.1,0.6-0.2c0.2-0.1,0.4-0.2,0.6-0.3c0.2-0.1,0.4-0.2,0.5-0.3c0.1-0.1,0.3-0.2,0.6-0.4c0.2-0.2,0.5-0.4,0.8-0.6
		c0.3-0.2,0.5-0.4,0.7-0.6C101.4,114.3,101.6,114.1,101.7,114z"/>
	<path class="st0" d="M128.8,112c0,0.4-0.1,0.8-0.4,1.2c-0.3,0.5-0.7,0.9-1.1,1.4c-0.5,0.5-1,0.9-1.5,1.3c-0.6,0.4-1.1,0.8-1.7,1.1
		c-0.6,0.3-1.1,0.6-1.6,0.8c-0.5,0.2-0.9,0.3-1.3,0.3c-0.5,0-0.9-0.1-1.2-0.3c-0.3-0.2-0.6-0.4-0.8-0.7c-0.2-0.3-0.4-0.7-0.5-1
		c-0.1-0.4-0.2-0.8-0.3-1.2c-0.1,0.2-0.3,0.5-0.4,0.8c-0.2,0.3-0.4,0.6-0.6,0.8c-0.2,0.3-0.4,0.5-0.6,0.8c-0.2,0.2-0.4,0.5-0.6,0.6
		c-0.3,0.2-0.5,0.5-0.8,0.7c-0.3,0.2-0.6,0.4-1,0.6c-0.3,0.2-0.7,0.3-1.1,0.4c-0.4,0.1-0.8,0.2-1.2,0.2c-0.4,0-0.7-0.1-0.9-0.2
		c-0.3-0.1-0.5-0.3-0.7-0.5c-0.2-0.2-0.3-0.5-0.4-0.8c-0.1-0.3-0.1-0.6-0.1-0.9c0-0.3,0-0.5,0.1-0.8c0-0.3,0.1-0.5,0.2-0.8
		c0.1-0.3,0.1-0.6,0.2-0.8c0.1-0.3,0.1-0.5,0.1-0.8c0-0.2,0-0.4,0-0.6c0-0.2,0-0.4,0-0.7c0-0.2,0-0.4,0.1-0.7c0-0.2,0.1-0.4,0.1-0.6
		c0-0.1,0.1-0.3,0.1-0.4c0.1-0.1,0.1-0.2,0.2-0.3c0.1-0.1,0.2-0.2,0.4-0.2c0.2-0.1,0.3-0.1,0.6-0.1c0.5,0,0.8,0.1,1,0.4
		c0.2,0.3,0.3,0.6,0.3,1.1c0,0.2,0,0.3,0,0.5c0,0.2,0,0.4-0.1,0.6c0,0.2-0.1,0.4-0.1,0.7c0,0.2-0.1,0.4-0.2,0.6
		c-0.1,0.4-0.2,0.9-0.3,1.3c-0.1,0.4-0.2,0.8-0.2,1.1c0,0.2,0,0.4,0.1,0.5c0.1,0.1,0.2,0.2,0.3,0.2c0.3,0,0.6-0.1,1-0.3
		c0.3-0.2,0.7-0.4,1-0.7c0.3-0.3,0.6-0.5,0.9-0.9c0.3-0.3,0.5-0.6,0.7-0.9c0.2-0.2,0.4-0.5,0.6-0.9c0.2-0.4,0.4-0.7,0.6-1.1
		c0.2-0.4,0.4-0.8,0.5-1.2c0.2-0.4,0.3-0.7,0.5-1c0.2-0.4,0.4-0.7,0.7-0.9c0.2-0.2,0.5-0.3,0.7-0.3c0.3,0,0.5,0.1,0.6,0.2
		c0.1,0.1,0.2,0.3,0.2,0.5c0,0.1,0,0.3,0,0.5c0,0.2-0.1,0.5-0.1,0.7c0,0.2-0.1,0.5-0.1,0.7c0,0.2,0,0.4,0,0.5c0,0.1,0,0.2,0,0.4
		c0,0.2,0,0.3,0,0.5c0,0.2,0,0.3,0,0.5c0,0.2,0,0.3,0.1,0.4c0,0.1,0.1,0.3,0.1,0.4c0.1,0.2,0.1,0.4,0.2,0.5c0.1,0.2,0.2,0.3,0.3,0.4
		c0.1,0.1,0.2,0.2,0.4,0.2c0.4,0,0.8-0.1,1.2-0.3c0.4-0.2,0.9-0.4,1.3-0.7c0.4-0.3,0.9-0.6,1.3-1c0.4-0.4,0.9-0.7,1.3-1.1
		c0.2-0.2,0.3-0.3,0.5-0.5c0.2-0.2,0.3-0.3,0.5-0.4c0.2-0.1,0.3-0.2,0.4-0.3c0.1-0.1,0.3-0.1,0.4-0.1c0.1,0,0.2,0,0.3,0.1
		C128.7,111.9,128.8,112,128.8,112z"/>
	<path class="st0" d="M140,113.1c0,0.1-0.1,0.3-0.3,0.7c-0.4,0.5-0.8,1-1.3,1.5c-0.5,0.5-0.9,1-1.5,1.4c-0.5,0.4-1.1,0.9-1.6,1.2
		c-0.6,0.4-1.1,0.7-1.7,1c-0.6,0.3-1.2,0.5-1.7,0.6c-0.6,0.2-1.1,0.2-1.7,0.2c-1.2,0-2.2-0.3-2.9-1c-0.7-0.6-1-1.6-1-2.9
		c0-0.5,0-1,0.1-1.5c0.1-0.5,0.2-1,0.4-1.5c0.2-0.5,0.4-1,0.7-1.4c0.3-0.5,0.7-0.9,1.1-1.4c0.2-0.2,0.3-0.3,0.6-0.5
		c0.2-0.2,0.4-0.3,0.7-0.4c0.2-0.1,0.5-0.2,0.8-0.3c0.3-0.1,0.5-0.1,0.8-0.1c0.4,0,0.7,0.1,1,0.2c0.3,0.1,0.5,0.3,0.7,0.5
		c0.2,0.2,0.3,0.5,0.4,0.8c0.1,0.3,0.1,0.6,0.1,0.9c0,0.6-0.2,1.2-0.7,1.8c-0.5,0.6-1.1,1.3-2,2c-0.3,0.2-0.6,0.4-1,0.7
		c-0.4,0.3-0.8,0.5-1.2,0.8c0,0.2,0.1,0.3,0.2,0.5c0.1,0.1,0.2,0.3,0.4,0.4c0.2,0.1,0.3,0.2,0.6,0.3c0.2,0.1,0.5,0.1,0.7,0.1
		c0.4,0,0.7,0,1.1-0.1c0.4-0.1,0.8-0.2,1.2-0.3c0.4-0.1,0.8-0.3,1.1-0.5c0.4-0.2,0.7-0.4,1-0.6c0.5-0.4,1-0.7,1.5-1.1
		c0.5-0.4,1-0.8,1.4-1.3l0.6-0.5c0.4-0.3,0.7-0.5,1-0.5c0.1,0,0.2,0,0.3,0.1C140,113,140,113.1,140,113.1z M131.5,111.3
		c0-0.1,0-0.3,0-0.4c0-0.1-0.1-0.2-0.2-0.3c-0.2,0-0.5,0.1-0.8,0.3c-0.3,0.2-0.5,0.5-0.8,0.8c-0.3,0.4-0.5,0.8-0.7,1.3
		c-0.2,0.5-0.3,1.1-0.4,1.7c0.3-0.2,0.7-0.5,1-0.7c0.3-0.3,0.7-0.5,0.9-0.8c0.3-0.3,0.5-0.6,0.7-0.9
		C131.5,112,131.5,111.6,131.5,111.3z"/>
</g>
<g>
	<g>
		<path class="st0" d="M41.4,1.8l-38.2,37C1.2,40.4,0,42.3,0,45c0,2.7,1.2,4.6,3.1,6.3l38.2,37c0.2,0.3,0.5,0.4,0.7,0.4
			c0.4,0,0.6-0.3,0.6-0.7c0-0.2-0.1-0.5-0.3-0.7c-9-11.2-15.5-23.9-15.5-42c0-18.1,6.5-31.1,15.5-42.3c0.2-0.2,0.3-0.5,0.3-0.7
			c0-0.4-0.2-0.7-0.6-0.7C41.8,1.5,41.6,1.6,41.4,1.8"/>
	</g>
	<g>
		<path class="st1" d="M70.8-1.3c-15,0-20.8,21.2-20.8,46.5c0,25.3,5.8,46.2,20.8,46.2c9,0,16.6-5.3,16.7-9.6c0-0.9-0.4-1.9-1.2-2.6
			c-4.3-4.1-5.9-8.2-5.9-11.9c0-6.9,6-12.1,11.5-12.1c7.6,0,12.1,6,12.1,13.7c0,7.3-3.1,13.5-6.5,18.4c-0.1,0.2-0.2,0.4-0.2,0.6
			c0,0.4,0.2,0.7,0.6,0.7c0.2,0,0.4-0.1,0.7-0.4l38.2-37c1.9-1.6,3.1-3.5,3.1-6.3c0-2.7-1.2-4.6-3.1-6.3l-38.2-37
			c-0.3-0.3-0.5-0.4-0.7-0.4c-0.3,0-0.6,0.3-0.6,0.7c0,0.2,0.1,0.4,0.2,0.6c3.4,4.9,6.5,11,6.5,18.4c0,7.7-4.5,13.7-12.1,13.7
			c-5.5,0-11.6-5.2-11.5-12.1c0-3.6,1.7-7.7,5.9-11.9c0.8-0.8,1.2-1.7,1.2-2.6C87.4,3.9,79.7-1.3,70.8-1.3"/>
	</g>
</g>
</svg>
