<svg viewBox="0 0 300 33" xmlns="http://www.w3.org/2000/svg"><g fill="#fff"><path d="m143.9 4.9-9.1 8.8c-.5.4-.7.8-.7 1.5 0 .6.3 1.1.7 1.5l9.1 8.8c.1.1.1.1.2.1s.1-.1.1-.2 0-.1-.1-.2c-2.1-2.6-3.7-5.7-3.7-10s1.6-7.4 3.7-10c.1-.1.1-.1.1-.2s-.1-.2-.1-.2c-.1 0-.2 0-.2.1m6.9-.7c-3.6 0-4.9 5-4.9 11s1.4 11 4.9 11c2.1 0 4-1.2 4-2.3 0-.2-.1-.4-.3-.6-1-1-1.4-2-1.4-2.8 0-1.6 1.4-2.9 2.7-2.9 1.8 0 2.9 1.4 2.9 3.3 0 1.7-.7 3.2-1.6 4.4v.1c0 .1.1.2.1.2s.1 0 .2-.1l9.1-8.8c.5-.4.7-.8.7-1.5 0-.6-.3-1.1-.7-1.5l-9.1-8.8c-.1-.1-.1-.1-.2-.1s-.1.1-.1.2v.1c.8 1.2 1.6 2.6 1.6 4.4s-1.1 3.3-2.9 3.3c-1.3 0-2.7-1.2-2.7-2.9 0-.9.4-1.8 1.4-2.8.2-.2.3-.4.3-.6 0-1.1-1.8-2.3-4-2.3m-96.1 2.5c-1.2 0-2.4.7-3.2 1.8-.3-.9-1.1-1.7-2.2-1.7-.3 0-.7.1-1 .2-.9.3-2.3 1-2.3 2.3 0 .2 0 .5.1.7l.1.3.3-.1c.2 0 .5-.1.6-.1.4 0 .6.1.7.2.1.2.2.5.2.9v6c0 1.2-.1 1.5-.4 1.8-.3.2-.7.3-.9.4h-.2l-.1.2c-.1.2-.2.5-.2.7 0 .6.5 1 1.2 1.2s1.6.3 2.8.3 2-.1 2.7-.2c.6-.2 1.1-.6 1.1-1.2 0-.3-.1-.5-.2-.8l-.1-.2h-.2c-.3 0-1-.2-1.2-.4-.3-.2-.4-.6-.5-1.7v-3.6c0-2.6.8-3.5 1.3-3.7.3.8 1.1 1.4 2 1.4 1.3 0 2.1-1.2 2.1-2.3.1-1.6-1.2-2.4-2.5-2.4zm-11.7 0c-1.2 0-2.4.7-3.2 1.8-.4-.9-1.1-1.7-2.2-1.7-.3 0-.7.1-1 .2-.9.3-2.3.9-2.4 2.3 0 .2 0 .5.1.7l.1.3.3-.1c.2 0 .5-.1.6-.1.4 0 .6.1.7.2.1.2.2.5.2.9v6c0 1.2-.1 1.5-.4 1.8-.3.2-.7.3-.9.4h-.2l-.1.2c-.1.2-.2.5-.2.7 0 .6.5 1 1.2 1.2s1.6.3 2.8.3 2-.1 2.7-.2c.6-.2 1.1-.6 1.1-1.2 0-.3-.1-.5-.2-.8h-.2c-.3 0-1-.2-1.2-.4-.3-.2-.4-.6-.5-1.7v-3.6c0-2.6.8-3.5 1.3-3.7.3.8 1.1 1.4 2 1.4 1.3 0 2.1-1.2 2.1-2.3.1-1.8-1.2-2.6-2.5-2.6zm-10.7 12.4c-.2-.2-.4-.4-.4-.9v-5.2c0-2 0-3.5-.8-4.5-.9-1.2-2.5-1.8-5.1-1.8-3.2 0-5.7 1.3-5.8 3.5 0 1.2.9 2.1 2 2.1.6 0 1.2-.2 1.5-.7.4-.4.5-1 .5-1.5 0-.2 0-.4-.1-.6.6-.2 1.2-.2 1.5-.2.9 0 1.4.2 1.7.6s.5 1 .5 1.7v1.4c-.8-.3-1.8-.4-2.7-.4-1.7 0-3.3.4-4.4 1.2s-1.8 2-1.8 3.5c0 2.8 2.3 4.9 5.3 4.9 1.9 0 3.3-.9 4.1-1.5.6 1 1.6 1.5 2.7 1.5h.3c1.1-.1 2.3-.7 2.4-2.2v-.3h-.3c-.4-.3-.9-.4-1.1-.6zm-4.3-1.1c-.6.7-1.5 1.2-2.3 1.2-1.4 0-2.2-.8-2.2-2.1s.9-2 2.4-2c.7 0 1.3.2 1.6.4.4.2.5.5.5.6zm95.2-11.3c-1.2 0-2.4.7-3.2 1.9-.3-1-1-1.7-2.2-1.7-.3 0-.7.1-1 .2-.9.3-2.3.9-2.4 2.3 0 .2 0 .5.1.7l.1.3.3-.1c.2 0 .5-.1.6-.1.4 0 .6.1.7.2.1.2.2.5.2.9v6c0 1.2-.1 1.5-.4 1.8-.3.2-.7.4-.9.4h-.2l-.1.2c-.1.2-.2.5-.2.7 0 .6.5 1 1.2 1.2s1.6.3 2.8.3 2-.1 2.7-.2c.6-.2 1.1-.6 1.1-1.2 0-.3-.1-.5-.2-.8l-.1-.2h-.2c-.2 0-.9-.2-1.2-.4s-.4-.6-.4-1.7v-3.6c0-2.6.7-3.5 1.3-3.7.3.8 1.1 1.4 2 1.4 1.3 0 2.1-1.2 2.1-2.3 0-1.7-1.3-2.5-2.5-2.5zm-34.3 0c-4 0-7.6 3.1-7.6 7.7 0 2.3.8 4.2 2.2 5.6s3.2 2.1 5.3 2.1c2.2 0 4.1-.8 5.5-2.1 1.4-1.4 2.2-3.3 2.2-5.6s-.8-4.2-2.1-5.5c-1.4-1.4-3.3-2.2-5.5-2.2zm.1 12.7c-1.5 0-3.2-1.5-3.2-5.4 0-3 1.2-4.7 3-4.7.9 0 1.7.5 2.3 1.3.6.9 1 2.2 1 3.9-.1 3.4-1.4 4.9-3.1 4.9zm-18.8-4.9c.3-.6.5-1.4.5-2.1 0-1.3-.5-2.7-1.5-3.8s-2.5-1.9-4.6-1.9c-2.2 0-4.1.8-5.5 2.2-1.3 1.4-2.1 3.4-2.1 5.7 0 4.2 3.3 7.4 7.4 7.5 3.9 0 5.8-2 5.8-3.6 0-.7-.3-1.1-.6-1.3l-.3-.2-.2.3c-.4.5-1.7 1.5-3.4 1.5-2.7 0-4.2-1.6-4.4-4h8.8zm-3.6-2.3-.2.1h-5c.2-1.5 1-2.9 2.8-2.9 1.5 0 2.5 1.2 2.5 2.4-.1.2-.1.4-.1.4zm47.1 6.8h-.6c-.5 0-.8-.1-.9-.3-.2-.2-.3-.6-.3-1.1v-2.8-5.3c0-.7-.1-1.4-.6-1.9-.4-.5-1.1-.8-1.9-.8-.3 0-.7.1-1 .1-1 .2-2.7.9-2.8 2.4 0 .2 0 .4.1.6l.1.3h.7c.5 0 .7.1.9.3s.3.5.3 1v3.7c0 .9-.2 1.9-.6 2.5-.4.7-1 1.1-2.1 1.1-1 0-1.4-.3-1.8-1.1-.3-.7-.5-2-.5-3.6v-4.5c0-.7-.1-1.4-.5-1.9s-1.1-.8-1.9-.8c-.3 0-.6.1-1 .1-1 .2-2.7.9-2.8 2.4 0 .2 0 .4.1.6l.1.3h.7c.5 0 .7.1.9.3s.3.5.3 1v2.6c0 2.7 0 4.7 1.3 6.3.9 1 2.2 1.6 3.8 1.6 1.5 0 2.8-.6 3.7-1.5l.3-.3c.1.4.2.8.5 1.1.3.5.9.8 1.7.8.3 0 .6-.1.9-.1.5-.1 1.2-.3 1.7-.6s1.1-.8 1.1-1.5c0-.2 0-.4-.1-.6z"/><path d="m79 9.8h.8c.8-.1 1.5-.8 1.4-1.6 0-.3-.1-.5-.2-.8v-.3h-3.6v-2.1c0-.8.1-1.5.4-1.9s.6-.7 1.4-.7c.4 0 .8.1 1.1.3-.2.3-.2.6-.2 1 0 1.1 1 2 2.1 2 1.4 0 2.1-1.2 2.1-2.2 0-2.2-2.5-3.5-5.2-3.5-2.2 0-3.7.9-4.6 2.2-.6.8-1 2.1-1 4.2v.7h-.7c-.4 0-.8.1-1.1.4s-.5.7-.5 1.1c0 .3.1.5.2.8l.1.2 2 .1v7.7c0 1.2-.1 1.5-.4 1.8-.3.2-.7.3-.9.4h-.2v.1c-.1.2-.2.5-.2.7 0 .6.5 1 1.2 1.2s1.6.3 2.8.3 2.2-.1 2.9-.3 1.2-.6 1.2-1.3c0-.2-.1-.4-.2-.7l-.1-.2h-.2c-.3 0-1.2-.2-1.4-.4-.3-.3-.5-.6-.5-1.7v-7.5zm-63.7 3.7c-.7 0-1.3.2-1.8.7-.5.4-.8 1.1-.8 1.9s.4 1.4.7 1.7c-.6.9-1.6 1.6-3.3 1.6-1.5 0-2.7-.7-3.6-2.1s-1.5-3.4-1.5-5.8.5-4.3 1.4-5.7 2.1-2.1 3.6-2.1c1.6 0 2.7.7 3.3 1.6-.3.4-.7.9-.7 1.7s.3 1.4.8 1.9c.5.4 1.1.7 1.8.7 1.4 0 2.4-1.3 2.4-2.8 0-2.9-3.3-6.1-7.9-6.1-5.1 0-9.7 4.4-9.7 10.9 0 3.3 1.2 6.1 3 7.9 1.8 1.9 4.3 2.9 6.8 2.9 4.6 0 7.8-3.2 7.9-6.1 0-1.6-1-2.8-2.4-2.8zm160.1 13.6c-.7 0-1.3-.1-1.9-.3s-1.1-.5-1.5-1l2.5-2.8c.1.2.3.3.5.4s.4.1.7.1c.4 0 .7-.1 1-.4.3-.2.5-.6.6-1l3.1-13.8h4.4l-3 13.5c-.2.8-.5 1.5-.9 2.1-.4.7-.9 1.2-1.5 1.7s-1.2.8-1.9 1.1-1.4.4-2.1.4zm6.2-24h4.4l-.9 3.7h-4.4zm6.4 5.9 1.4-3.3h-1.2l.9-3.8h4.5l-.9 3.9-1.8 3.2zm9.2 13.2c-.8 0-1.5-.1-2.2-.4-.6-.3-1.2-.7-1.6-1.1-.4-.5-.8-1.1-1-1.7-.2-.7-.3-1.4-.3-2.2 0-1.1.2-2.2.6-3.3.4-1 1-2 1.7-2.7.7-.8 1.6-1.4 2.5-1.9 1-.5 2-.7 3-.7.9 0 1.7.2 2.4.7.7.4 1.1 1.1 1.4 1.8l.5-2.1h4.4l-2 8.8v.5c0 .4.2.6.7.6l-.8 3.5c-.4.1-.8.1-1.1.2h-.8c-.7 0-1.3-.1-1.7-.4s-.6-.7-.6-1.3c0-.2 0-.4.1-.7-.7.8-1.5 1.5-2.4 1.9-1 .3-1.9.5-2.8.5zm2-3.5c.6 0 1.1-.2 1.7-.5s1.1-.8 1.5-1.4l.6-2.8c-.1-.7-.4-1.3-.8-1.7-.5-.4-1-.7-1.6-.7-.5 0-1 .1-1.5.4-.5.2-.9.6-1.2 1-.4.4-.6.9-.9 1.4-.2.5-.3 1.1-.3 1.6 0 .8.2 1.4.6 1.9.5.5 1.1.8 1.9.8zm12.9-10.3h4.4l-3.1 13.6h-4.4zm1.2-5.3h4.4l-.9 3.7h-4.4zm16.1 19.1c-1 0-1.9-.2-2.7-.5s-1.4-.7-1.9-1.2-.9-1.1-1.1-1.8-.4-1.4-.4-2.2c0-1 .2-2.1.7-3.1s1.1-1.9 1.9-2.7 1.8-1.4 2.9-1.9 2.4-.7 3.7-.7c1.6 0 2.9.3 3.8 1s1.6 1.5 1.9 2.6l-4.6 1.2c-.4-.9-1-1.3-2-1.3-.5 0-.9.1-1.4.3s-.9.5-1.2.9c-.4.4-.6.8-.9 1.4-.2.5-.3 1.1-.3 1.8 0 .8.2 1.5.6 1.9.4.5.9.7 1.6.7.5 0 1-.1 1.4-.4.5-.2.9-.6 1.1-1l4 1.2c-.8 1.1-1.8 1.9-3 2.6-1.1.8-2.5 1.2-4.1 1.2zm12.8-19.1h4.4l-1.7 7.6c.7-.8 1.5-1.4 2.4-1.9.9-.4 1.9-.7 2.9-.7.7 0 1.2.1 1.6.3s.8.4 1.1.7.5.6.6 1 .2.8.2 1.2c0 .3 0 .7-.1 1 0 .3-.1.7-.2 1l-2 8.7h-4.4l1.7-7.6c0-.2.1-.4.1-.5v-.5c0-.5-.1-.9-.4-1.2-.3-.2-.6-.4-1-.4-.2 0-.5.1-.8.2s-.6.3-.9.5-.6.5-.9.8-.5.6-.7 1l-1.8 7.8h-4.4zm18.6 19.1c-1 0-1.9-.2-2.7-.5s-1.4-.7-1.9-1.2-.9-1.1-1.1-1.8-.4-1.4-.4-2.2c0-1.1.2-2.1.7-3.1.4-1 1.1-1.9 1.9-2.7s1.8-1.4 2.9-1.9 2.4-.7 3.8-.7c1 0 1.9.2 2.6.5.8.3 1.4.7 1.9 1.2s.9 1.1 1.1 1.8.4 1.4.4 2.2c0 1.1-.2 2.1-.7 3.1-.4 1-1.1 1.9-1.9 2.7s-1.8 1.4-2.9 1.9c-1 .4-2.3.7-3.7.7zm.8-3.5c.5 0 1-.1 1.4-.3.5-.2.9-.5 1.2-.9s.6-.9.8-1.4.3-1.1.3-1.7c0-.8-.2-1.5-.6-1.9-.4-.5-.9-.7-1.6-.7-.5 0-1 .1-1.4.3-.5.2-.9.5-1.2.9-.4.4-.6.9-.8 1.4s-.3 1.1-.3 1.7c0 .8.2 1.5.6 1.9s1 .7 1.6.7zm12.1-10.3h4.4l-3.1 13.5h-4.4zm1.1-5.3h4.4l-.9 3.7h-4.3zm8.6 19.1c-1.2 0-2.3-.2-3.3-.6-1.1-.4-1.9-.9-2.6-1.6l2.1-2.5c.7.6 1.4 1 2.2 1.3.7.3 1.5.5 2.2.5.6 0 1-.1 1.3-.3s.4-.5.4-.9c0-.3-.2-.5-.5-.7s-.8-.4-1.6-.6-1.4-.4-1.9-.7c-.5-.2-1-.4-1.3-.7-.4-.2-.6-.5-.8-.8s-.2-.6-.2-1c0-.8.2-1.5.5-2.1.4-.6.8-1.2 1.5-1.7.6-.5 1.3-.8 2.1-1.1s1.7-.4 2.6-.4c1 0 2 .1 2.8.4s1.6.8 2.3 1.5l-2.3 2.5c-.7-.5-1.3-.9-1.9-1.2-.6-.2-1.1-.4-1.7-.4-.5 0-.9.1-1.2.3s-.5.6-.5 1c0 .3.2.5.5.7s.8.4 1.5.6c1.6.4 2.7.9 3.4 1.4s1 1.2 1 2-.2 1.5-.5 2.1-.8 1.2-1.4 1.6c-.6.5-1.3.8-2.1 1.1-.6.1-1.6.3-2.6.3zm11-13.8h4.4l-3.1 13.6h-4.4zm1.2-5.3h4.4l-.9 3.7h-4.4z"/><path d="m9 25.2c0 .1 0 .1 0 0 0 .1 0 .1-.1.2 0 0 0 .1-.1.1 0 0 0 .1-.1.2v2c0 .1 0 .3-.1.4 0 .2-.1.5-.1.7v1.9c.1.1.2.1.2.2 0 0 .1.1.1.2s0 .1-.1.2c0 .1-.1.1-.1.2-.1.1-.1.1-.2.1s-.2.1-.2.1c-.2 0-.3 0-.4-.1s-.2-.2-.3-.4c-.1-.1-.1-.3-.1-.5v-.6-.3c0-.1 0-.3.1-.5 0-.2.1-.4.1-.6s.1-.4.1-.6.1-.4.1-.6.1-.3.1-.4c0 0-.1.1-.1.2-.1.1-.1.2-.2.3s-.2.2-.2.3c-.1.1-.2.2-.2.3-.1.1-.2.2-.2.3-.1.1-.1.2-.2.2-.1.1-.2.3-.3.4-.3-.4-.4-.3-.5-.1v.1s0 .1-.1.1c0 0 0 .1-.1.1 0 0 0 .1-.1.1-.2.2-.4.4-.7.5-.2 0-.3-.1-.4-.1-.1-.1-.2-.1-.2-.2l-.2-.2c0-.1-.1-.2-.1-.2-.1-.1-.1-.2-.2-.2 0-.1-.1-.1-.1-.2-.1-.1-.1-.3-.2-.4s-.1-.3-.2-.4c0-.1-.1-.2-.1-.3s-.1-.2-.1-.2c0-.1-.1-.1-.1-.2s-.1-.2-.1-.3v.1c0 .1 0 .2-.1.3 0 .1-.1.2-.1.4 0 .1-.1.3-.1.4s-.1.3-.1.4-.1.2-.1.3 0 .2-.1.3v.1c-.1.2-.1.4-.1.6v1.1c0 .1-.1.1-.1.2s-.1.1-.2.1c.2-.3.1-.3.1-.3h-.4l-.1-.1s-.1-.1-.1-.2v-.1-.1-.2-.2-.2c0-.1 0-.2.1-.3 0-.1.1-.3.1-.4s.1-.3.1-.4.1-.3.1-.4.1-.2.1-.3c-.1-.1 0-.3 0-.4s.1-.3.1-.4.1-.3.1-.4.1-.3.1-.4 0-.2.1-.3c0-.1 0-.1.1-.2 0-.1.1-.2.1-.2 0-.1.1-.1.1-.2.1 0 .1-.1.2-.1.2 0 .4 0 .6.1.1 0 .2.1.3.2.1 0 .2.2.2.3 0 .2.1.3.1.6 0 .1 0 .1.1.2 0 0 0 .1.1.2.1.3.2.5.4.8.1.3.3.5.5.8l.2-.2c.1-.1.1-.2.2-.3s.1-.2.2-.3.1-.2.2-.3c0 0 .1-.1.1-.2.1-.1.1-.2.2-.3l.3-.3.3-.3c.1-.1.2-.2.2-.3.1-.2.2-.2.2-.2l.1-.1.1-.1.2-.2c.1-.1.1-.2.2-.3 0-.1.1-.2.1-.2.1-.1.1-.2.2-.2 0-.1.1-.1.2-.1h.2c.1 0 .1.1.2.1l.2.2zm7.7 3.2v.2s0 .1-.1.1c0 0 0 .1-.1.1l-.1.1-.1.1-.1.1s-.1.1-.2.1c-.2.1-.3.3-.5.4s-.3.3-.5.4l-.6.3c-.2.1-.4.1-.6.1-.1 0-.2 0-.3-.1-.1 0-.2-.1-.3-.2l-.2-.2c-.1-.1-.1-.2-.1-.3-.1.1-.1.2-.2.3l-.3.3-.3.3c-.1.1-.2.1-.3.2-.1 0-.1.1-.2.1s-.2.1-.3.1c-.1.1-.2.1-.3.1h-.3c-.1 0-.3 0-.4-.1l-.3-.3v-.3-.3c0-.2 0-.3.1-.5s.1-.4.2-.5c.1-.2.2-.3.3-.5s.2-.3.3-.4.2-.3.4-.4.3-.2.5-.3.3-.2.5-.2c.2-.1.3-.1.4-.1h.6c.1 0 .1 0 .2.1l.1.1c0 .1.1.1.1.2s.1.1.1.2v.4c0 .1-.1.2-.1.3s-.1.2-.1.3v.5c0 .1.1.1.1.2s.1.1.2.2c.1 0 .1.1.2.1.2 0 .3 0 .5-.1s.3-.1.5-.2.3-.2.5-.4c.2-.1.3-.3.5-.4l.1-.1.1-.1c.1 0 .1-.1.2-.1s.1-.1.2-.1.1 0 .2.1c-.2 0-.2 0-.2.1zm-3.8-.4c0-.1 0-.1-.1-.2 0 0 0-.1-.1-.1h-.1c-.2 0-.4 0-.5.1-.2.1-.3.2-.5.4-.1.1-.2.2-.3.4-.1.1-.2.3-.3.5s-.2.3-.2.5c-.1.2-.1.3-.1.4v.2l.1.1h.1c.1 0 .2 0 .4-.1.1-.1.3-.1.4-.3.1-.1.3-.2.4-.4.1-.1.2-.3.3-.4.1-.2.2-.4.3-.5.1-.2.2-.4.2-.6z"/><path d="m16.9 27.5h.1s.1 0 .1.1l.1.1s0 .1.1.1v.6c0 .1 0 .1-.1.2s0 .2-.1.3c0 .1 0 .2-.1.3v.3c0-.1.1-.2.2-.4.1-.1.1-.3.2-.4s.2-.3.3-.4.2-.3.3-.4l.2-.2c.1-.1.2-.1.3-.2s.2-.1.3-.1h.5c.1 0 .2.1.2.1.1 0 .1.1.2.1 0 .1.1.1.1.2v.1s0 .1-.1.1l-.1.1h-.2-.3c-.1 0-.2 0-.3.1l-.3.3c-.1.1-.1.2-.2.3s-.2.3-.2.4c-.1.1-.2.3-.2.5-.1.2-.1.3-.2.5 0 .1-.1.2-.1.2 0 .1-.1.2-.1.3s0 .2-.1.3c0 .1 0 .2-.1.3 0 0 0 .1-.1.1l-.1.1c-.1 0-.1 0-.2.1h-.1c-.1 0-.2 0-.3-.1l-.2-.2c0-.1-.1-.2-.1-.3v-.3-.3-.3-.4-.4-.3-.7-.1-.1c0-.1 0-.1.1-.2 0-.1.1-.1.1-.2.1 0 .1-.1.2-.1.2-.1.2-.1.3-.1zm8.1.1v.1s0 .1-.1.1l-.1.1s-.1 0-.1.1c-.1.1-.3.1-.4.1-.2 0-.3.1-.5.1s-.3.1-.5.1c-.1 0-.3 0-.4.1h-.8c-.1.2-.1.4-.2.6s-.1.4-.1.6v1.2l.1.1.1.1v.2c0 .1 0 .1-.1.1l-.1.1c-.1 0-.1.1-.2.1h-.2c-.1 0-.2 0-.3-.1-.1 0-.2-.1-.2-.2-.1-.1-.1-.2-.1-.3v-.3c0-.2 0-.4.1-.6 0-.2.1-.4.1-.6 0-.1 0-.2.1-.3 0-.1.1-.2.1-.3s0-.2.1-.3v-.2h-.6c-.1 0-.1-.1-.1-.1l-.1-.1v-.2c0-.1 0-.1.1-.1l.1-.1c.1 0 .1-.1.2-.1h.6l.1-.1c0-.1 0-.1.1-.2 0-.1 0-.2.1-.3 0-.1 0-.2.1-.3 0-.1 0-.2.1-.2v-.1c0-.1.1-.3.1-.4s.1-.3.1-.4c.1-.1.1-.2.2-.3s.2-.1.4-.1h.2s.1 0 .1.1v.5c0 .1 0 .2-.1.3-.1.2-.1.4-.2.5 0 .2-.1.3-.1.4s-.1.2-.1.3v.2h1.4c.2 0 .3 0 .4-.1.1 0 .2 0 .3-.1h.6v.1c-.3.1-.3.2-.3.2z"/><path d="m28.5 28.5c0 .1 0 .1-.1.2 0 .1-.1.2-.2.3s-.2.2-.3.4c-.1.1-.2.3-.4.4s-.3.3-.5.4-.4.3-.6.4l-.6.3c-.2.1-.4.1-.5.1-.2 0-.4 0-.5-.1s-.3-.1-.4-.3c-.1-.1-.2-.2-.3-.4 0 .1-.1-.1-.1-.2 0-.2-.1-.3-.1-.5v-.4-.2-.3c0-.1 0-.2.1-.4 0-.1 0-.2.1-.3 0-.1.1-.3.3-.4.1-.1.3-.2.5-.2s.3.1.3.3v.3c0 .1 0 .2-.1.3 0 .2-.1.4-.1.5v.8c0 .1 0 .2.1.3 0 .1.1.2.1.2 0 .1.1.1.2.1h.3c.1 0 .2-.1.3-.1.2-.1.5-.3.8-.5l.3-.3c.1-.1.2-.2.4-.3l.3-.3.3-.3.1-.1.1-.1h.2l.1.1c-.2.2-.1.3-.1.3zm-2.7-3.2v.2c0 .1-.1.2-.1.2-.1.1-.3.2-.5.2h-.2c-.1 0-.2 0-.2-.1-.1 0-.1-.1-.2-.1l-.1-.1c0-.1 0-.2.1-.3 0-.1.1-.2.2-.3s.2-.1.2-.2c.1-.1.2-.1.2-.1h.3c.1 0 .1 0 .2.1.1 0 .1.1.1.1z"/><path d="m35.2 28.2v.2c0 .1 0 .1-.1.2 0 .1-.1.1-.1.2s-.1.1-.1.1l-.3.3-.4.4c-.1.1-.2.2-.4.3-.1.1-.3.2-.4.3s-.2.1-.3.2-.2.1-.3.1-.2.1-.3.1h-.4c-.2 0-.4 0-.5-.1s-.3-.2-.3-.3c-.1-.1-.2-.3-.2-.5s-.1-.3-.1-.5-.1-.4-.1-.6c0-.1-.1-.2-.2-.2h-.2c-.1 0-.1.1-.2.2s-.2.2-.3.4-.3.4-.5.6c-.1.1-.2.2-.2.3l-.3.3-.3.3c-.1.1-.2.1-.3.2-.4-.1-.5-.4-.5-.9 0-.1 0-.4.1-.6 0-.1 0-.3.1-.4 0-.1 0-.3.1-.4 0-.1.1-.3.1-.4s.1-.3.2-.4c0-.1.1-.1.1-.1l.1-.1h.3s.1 0 .1.1l.1.1v.6c0 .1 0 .1-.1.2 0 .1 0 .1-.1.2 0 .1 0 .1-.1.2 0 .1-.1.2-.1.3s-.1.2-.1.3v.2l.2-.2c.1-.1.1-.2.2-.3s.1-.2.2-.3.2-.2.2-.3l.3-.3.3-.3c.1-.1.2-.1.3-.2.1 0 .3-.1.4-.1.2 0 .3 0 .5.1l.3.3c.1.1.1.3.2.4 0 .2.1.4.1.6v.3c0 .1 0 .2.1.3 0 .1.1.2.1.2.1.1.1.1.2.1s.3 0 .4-.1c.2-.1.3-.2.5-.3s.3-.2.5-.4c.2-.1.4-.3.5-.5l.2-.2c.1-.1.1-.1.2-.1l.1-.1h.3c.2-.1.2-.1.2 0z"/><path d="m39.1 28.5c0 .1 0 .1-.1.2 0 .1-.1.2-.2.3s-.2.2-.3.4c-.1.1-.2.3-.4.4s-.3.3-.5.4-.4.3-.6.4l-.6.3c-.2.1-.4.1-.5.1-.2 0-.4 0-.5-.1s-.3-.1-.4-.3c-.1-.1-.2-.2-.3-.4-.1-.1-.1-.3-.2-.4 0-.2-.1-.3-.1-.5v-.4-.2-.3c0-.1 0-.2.1-.4 0-.1 0-.2.1-.3 0-.1.1-.3.3-.4.1-.1.3-.2.5-.2s.3.1.3.3v.3c0 .1 0 .2-.1.3 0 .2-.1.4-.1.5v.8c0 .1 0 .2.1.3s.1.2.1.2c0 .1.1.1.2.1h.3c.1 0 .2-.1.3-.1.2-.1.5-.3.8-.5l.3-.3c.1-.1.2-.2.4-.3l.3-.3.3-.3.1-.1.1-.1h.2l.1.1zm-2.6-3.2v.2c0 .1-.1.2-.1.2-.1.1-.3.2-.5.2h-.2c-.1 0-.2 0-.2-.1-.1 0-.1-.1-.2-.1l-.1-.1c0-.1 0-.2.1-.3 0-.1.1-.2.2-.3s.2-.1.2-.2c.1-.1.2-.1.2-.1h.3c.1 0 .1 0 .2.1.1 0 .1.1.1.1z"/><path d="m44.9 28.5c0 .1-.1.3-.2.4-.1.2-.3.3-.4.5l-.6.6c-.2.2-.5.4-.7.6l-.1.1-.3.3c-.1.1-.2.2-.4.3-.1.1-.2.2-.4.3l-.3.3-.1.1-.1.1s-.1 0-.1.1l-.1.1s0 .1-.1.1c0 .1 0 .1-.1.2 0 .1-.1.1-.1.2s-.1.1-.1.1l-.1.1c-.1 0-.1 0-.2-.1-.1 0-.2-.1-.2-.1-.1 0-.1-.1-.2-.2 0-.1-.1-.1-.1-.2v-.2c0-.1.1-.2.1-.3s.1-.3.1-.4.1-.3.1-.4c0 0 0-.1.1-.2 0-.1.1-.2.1-.3s.1-.2.1-.3.1-.2.1-.3.1-.2.1-.3 0-.1.1-.2c-.1.1-.3.2-.4.3-.2.1-.3.2-.5.3s-.4.2-.5.3c-.2.1-.4.1-.6.1s-.4-.1-.5-.2-.2-.4-.2-.6c0-.3.1-.6.3-1 .1-.2.2-.4.3-.5.1-.2.3-.3.4-.5l.5-.5c.2-.1.3-.3.5-.4s.4-.2.5-.2c.2-.1.4-.1.5-.1h.3c.1 0 .2.1.2.1l.2.2c0 .1.1.1.1.2v.4c0 .1.1.1.1.2v.2c0 .1 0 .2-.1.2 0 .1 0 .2-.1.2v.1c0 .1-.1.2-.1.4-.1.2-.1.4-.2.7v.2c0 .1 0 .1-.1.2 0 .1-.1.2-.1.3s-.1.2-.1.2c0 .1 0 .1-.1.2v.1l.3-.3.3-.3c.1-.1.2-.2.3-.2.1-.1.2-.2.3-.2.3-.2.5-.4.7-.6s.5-.4.7-.6l.2-.2.3-.3.1-.1h.1v.1c.4.5.5.5.5.6zm-3.7.2c.1-.1.1-.2.2-.3 0-.1.1-.2.1-.4-.1 0-.1-.1-.2-.1 0 0-.1-.1-.1-.2v-.2-.1c-.1 0-.2.1-.4.2s-.4.3-.6.5l-.2.2c-.1.1-.1.2-.2.2-.1.1-.1.2-.2.3s-.1.2-.2.3-.1.2-.1.3-.1.2-.1.3v.2l.1.1h.2c.1 0 .1-.1.2-.1s.2-.1.2-.1c.1 0 .1-.1.2-.1s.1-.1.2-.2.2-.1.3-.2.2-.2.3-.2c.1-.3.2-.4.3-.4z"/><path d="m51.8 27.9c0 .1-.1.3-.2.5s-.3.4-.4.5c-.2.2-.4.4-.6.5-.2.2-.4.3-.7.4l-.6.3c-.2.1-.4.1-.5.1-.2 0-.3 0-.5-.1l-.3-.3c-.1-.1-.1-.3-.2-.4s-.1-.3-.1-.5c0 .1-.1.2-.2.3s-.1.2-.2.3-.2.2-.2.3l-.2.2-.3.3c-.1.1-.2.2-.4.2-.1.1-.3.1-.4.2-.2 0-.3.1-.5.1-.1 0-.3 0-.4-.1s-.2-.1-.3-.2-.1-.2-.2-.3c0-.1-.1-.2-.1-.3v-.3c0-.1 0-.2.1-.3 0-.1 0-.2.1-.3v-.3-.2-.3-.3-.2-.2l.1-.1s.1-.1.2-.1h.2c.2 0 .3 0 .4.1s.1.2.1.4v.7c0 .1 0 .2-.1.2 0 .2-.1.3-.1.5s-.1.3-.1.4v.2c0 .1.1.1.1.1.1 0 .2 0 .4-.1.1-.1.3-.2.4-.3s.2-.2.4-.3l.3-.3c.1-.1.1-.2.2-.4.1-.1.1-.3.2-.4.1-.2.1-.3.2-.5s.1-.3.2-.4c.1-.2.2-.3.3-.4s.2-.1.3-.1.2 0 .2.1c.1 0 .1.1.1.2v1.8s0 .1.1.2c0 .1.1.1.1.2s.1.1.1.2l.1.1c.1 0 .3 0 .5-.1s.3-.2.5-.3.3-.2.5-.4c.2-.1.3-.3.5-.4l.2-.2.2-.2c.1 0 .1-.1.2-.1h.1c.1 0 .1 0 .2.1z"/><path d="m56.2 28.3s0 .1-.1.3-.3.4-.5.6-.4.4-.6.5c-.2.2-.4.3-.6.5-.2.1-.4.3-.7.4-.2.1-.5.2-.7.3s-.4.1-.7.1c-.5 0-.9-.1-1.1-.4-.3-.3-.4-.6-.4-1.1v-.6c0-.2.1-.4.2-.6l.3-.6c.1-.2.3-.4.4-.5l.2-.2c.1-.1.2-.1.3-.2.1 0 .2-.1.3-.1h.3c.2 0 .3 0 .4.1s.2.1.3.2.1.2.2.3c0 .1.1.2.1.4s-.1.5-.3.7c-.2.3-.4.5-.8.8-.1.1-.2.2-.4.3-.1.1-.3.2-.5.3 0 .1 0 .1.1.2 0 .1.1.1.1.2.1 0 .1.1.2.1h.7c.2 0 .3-.1.5-.1.2-.1.3-.1.4-.2s.3-.1.4-.2c.2-.1.4-.3.6-.5s.4-.3.6-.5l.2-.2c.2-.1.3-.2.4-.2.1-.2.2-.2.2-.1zm-3.3-.7v-.2c0-.1 0-.1-.1-.1s-.2 0-.3.1l-.3.3c-.1.1-.2.3-.3.5s-.1.4-.2.7c.1-.1.3-.2.4-.3s.3-.2.4-.3l.3-.3c0-.1.1-.3.1-.4z"/></g></svg>