<?xml version="1.0" encoding="utf-8"?>
<!-- Generator: Adobe Illustrator 25.1.0, SVG Export Plug-In . SVG Version: 6.00 Build 0)  -->
<svg version="1.1" id="Layer_1" xmlns="http://www.w3.org/2000/svg" xmlns:xlink="http://www.w3.org/1999/xlink" x="0px" y="0px"
	 viewBox="0 0 52 26" style="enable-background:new 0 0 52 26;" xml:space="preserve">
<style type="text/css">
	.st0{fill:#FFDB28;}
	.st1{fill:#5CB1B5;}
</style>
<g id="Group_139" transform="translate(-987 -611)">
	<circle id="Ellipse_19" class="st0" cx="1000" cy="624" r="12.5"/>
	<path class="st1" d="M1005.2,623.4h-3.9v-3.9c0-0.6-0.4-1-1-1c-0.6,0-1,0.4-1,1v3.9h-3.9c-0.6,0-1,0.4-1,1c0,0.6,0.4,1,1,1h3.9v3.9
		c0,0.6,0.4,1,1,1c0.6,0,1-0.4,1-1v-3.9h3.9c0.6,0,1-0.4,1-1C1006.2,623.8,1005.8,623.4,1005.2,623.4z"/>
</g>
<g>
	<circle id="Ellipse_19_1_" class="st1" cx="39" cy="13" r="12.5"/>
	<path class="st0" d="M44.2,12.4h-3.9V8.5c0-0.6-0.4-1-1-1c-0.6,0-1,0.4-1,1v3.9h-3.9c-0.6,0-1,0.4-1,1c0,0.6,0.4,1,1,1h3.9v3.9
		c0,0.6,0.4,1,1,1c0.6,0,1-0.4,1-1v-3.9h3.9c0.6,0,1-0.4,1-1C45.2,12.8,44.8,12.4,44.2,12.4z"/>
</g>
</svg>
