<svg enable-background="new 0 0 52 26" viewBox="0 0 52 26" xmlns="http://www.w3.org/2000/svg"><g transform="translate(-987 -611)"><circle cx="1000" cy="624" fill="#ffdb28" r="12.5"/><path d="m1005.2 623.4h-3.9v-3.9c0-.6-.4-1-1-1s-1 .4-1 1v3.9h-3.9c-.6 0-1 .4-1 1s.4 1 1 1h3.9v3.9c0 .6.4 1 1 1s1-.4 1-1v-3.9h3.9c.6 0 1-.4 1-1s-.4-1-1-1z" fill="#5cb1b5"/></g><circle cx="39" cy="13" fill="#5cb1b5" r="12.5"/><path d="m44.2 12.4h-3.9v-3.9c0-.6-.4-1-1-1s-1 .4-1 1v3.9h-3.9c-.6 0-1 .4-1 1s.4 1 1 1h3.9v3.9c0 .6.4 1 1 1s1-.4 1-1v-3.9h3.9c.6 0 1-.4 1-1s-.4-1-1-1z" fill="#ffdb28"/></svg>