<?xml version="1.0" encoding="utf-8"?>
<!-- Generator: Adobe Illustrator 25.1.0, SVG Export Plug-In . SVG Version: 6.00 Build 0)  -->
<svg version="1.1" id="Layer_1" xmlns="http://www.w3.org/2000/svg" xmlns:xlink="http://www.w3.org/1999/xlink" x="0px" y="0px"
	 viewBox="0 0 300 300" style="enable-background:new 0 0 300 300;" xml:space="preserve">
<style type="text/css">
	.st0{fill:#FFDB28;}
</style>
<path class="st0" d="M210.1,300L4.9,300H0v-4.9L0,89.9c0-6.1,0.6-12.2,1.8-18.1C3,66,4.8,60.3,7.1,54.9c2.3-5.3,5-10.5,8.3-15.3
	c3.2-4.8,6.9-9.2,11-13.3c4.1-4.1,8.5-7.8,13.3-11c4.8-3.2,9.9-6,15.3-8.3C60.3,4.8,66,3,71.8,1.8C77.7,0.6,83.8,0,89.9,0
	C96,0,102.1,0.6,108,1.8c5.8,1.2,11.5,2.9,16.9,5.2c5.3,2.3,10.5,5,15.3,8.3c4.8,3.2,9.2,6.9,13.3,11c4.1,4.1,7.8,8.5,11,13.3
	c3.2,4.8,6,9.9,8.3,15.3c2.3,5.4,4.1,11.1,5.2,16.9c1.2,5.9,1.8,12,1.8,18.1v30.3h30.3c6.1,0,12.2,0.6,18.1,1.8
	c5.8,1.2,11.5,2.9,16.9,5.2c5.3,2.3,10.5,5,15.3,8.3c4.8,3.2,9.2,6.9,13.3,11c4.1,4.1,7.8,8.5,11,13.3c3.2,4.8,6,9.9,8.3,15.3
	c2.3,5.4,4.1,11.1,5.2,16.9c1.2,5.9,1.8,12,1.8,18.1s-0.6,12.2-1.8,18.1c-1.2,5.8-2.9,11.5-5.2,16.9c-2.3,5.3-5,10.5-8.3,15.3
	c-3.2,4.8-6.9,9.2-11,13.3c-4.1,4.1-8.5,7.8-13.3,11c-4.8,3.2-9.9,6-15.3,8.3c-5.4,2.3-11.1,4.1-16.9,5.2
	C222.3,299.4,216.2,300,210.1,300z"/>
</svg>
