<svg enable-background="new 0 0 300 300" viewBox="0 0 300 300" xmlns="http://www.w3.org/2000/svg"><path d="m210.1 300h-205.2-4.9v-4.9-205.2c0-6.1.6-12.2 1.8-18.1 1.2-5.8 3-11.5 5.3-16.9 2.3-5.3 5-10.5 8.3-15.3 3.2-4.8 6.9-9.2 11-13.3s8.5-7.8 13.3-11 9.9-6 15.3-8.3c5.3-2.2 11-4 16.8-5.2 5.9-1.2 12-1.8 18.1-1.8s12.2.6 18.1 1.8c5.8 1.2 11.5 2.9 16.9 5.2 5.3 2.3 10.5 5 15.3 8.3 4.8 3.2 9.2 6.9 13.3 11s7.8 8.5 11 13.3 6 9.9 8.3 15.3 4.1 11.1 5.2 16.9c1.2 5.9 1.8 12 1.8 18.1v30.3h30.3c6.1 0 12.2.6 18.1 1.8 5.8 1.2 11.5 2.9 16.9 5.2 5.3 2.3 10.5 5 15.3 8.3 4.8 3.2 9.2 6.9 13.3 11s7.8 8.5 11 13.3 6 9.9 8.3 15.3 4.1 11.1 5.2 16.9c1.2 5.9 1.8 12 1.8 18.1s-.6 12.2-1.8 18.1c-1.2 5.8-2.9 11.5-5.2 16.9-2.3 5.3-5 10.5-8.3 15.3-3.2 4.8-6.9 9.2-11 13.3s-8.5 7.8-13.3 11-9.9 6-15.3 8.3-11.1 4.1-16.9 5.2c-5.9 1.2-12 1.8-18.1 1.8z" fill="#ffdb28"/></svg>