<?xml version="1.0" encoding="utf-8"?>
<!-- Generator: Adobe Illustrator 25.1.0, SVG Export Plug-In . SVG Version: 6.00 Build 0)  -->
<svg version="1.1" id="Layer_1" xmlns="http://www.w3.org/2000/svg" xmlns:xlink="http://www.w3.org/1999/xlink" x="0px" y="0px"
	 viewBox="0 0 150 150" style="enable-background:new 0 0 150 150;" xml:space="preserve">
<style type="text/css">
	.st0{fill:#5CB1B5;}
</style>
<g>
	<path class="st0" d="M29.6,32.6c-1.7-3-10.1-7.4-14.6-1.2c-4.5,6.2-6.3,14.4-5.7,17.8c1.8,10.2,9.7,8.4,9.9,5.2
		c0.2-3.2-0.1-4.5,6.7-9.7C32.7,39.5,31.3,35.6,29.6,32.6z"/>
	<path class="st0" d="M38.5,32.2c-0.8-1.6-2.9-2.2-4.6-1.3c-1.8,0.9-2.6,2.9-1.8,4.5c0.8,1.6,2.9,2.2,4.6,1.3
		C38.5,35.9,39.3,33.8,38.5,32.2z"/>
	<path class="st0" d="M29.9,30c0.7,1,2.1,1.2,3.3,0.5c1.2-0.8,1.6-2.2,0.9-3.2s-2.1-1.2-3.3-0.5C29.6,27.5,29.2,29,29.9,30z"/>
	<path class="st0" d="M26.5,27.6c0.9,0.7,2.1,0.5,2.8-0.4c0.7-0.9,0.6-2.2-0.3-2.9c-0.9-0.7-2.1-0.5-2.8,0.4S25.7,26.9,26.5,27.6z"
		/>
	<path class="st0" d="M22.6,26.8c0.9,0.3,1.9-0.2,2.3-1.2c0.4-1,0-2.1-0.9-2.4c-0.9-0.3-1.9,0.2-2.3,1.2
		C21.3,25.3,21.7,26.4,22.6,26.8z"/>
	<path class="st0" d="M19.3,27.2c0.9,0,1.7-0.8,1.7-1.9c0-1.1-0.8-1.9-1.7-2c-0.9,0-1.7,0.8-1.7,1.9C17.6,26.3,18.3,27.2,19.3,27.2z
		"/>
</g>
<g>
	<path class="st0" d="M140.1,101.7c2.7-2.1,6.7-9.4,7.3-17c0.6-7.7-8.5-10.1-11.8-9.1c-3.2,1.1-6.9,3-5.2,11.5
		c1.8,8.5,0.6,9.2-1.3,11.7C127.3,101.3,132.1,108,140.1,101.7"/>
	<path class="st0" d="M129.1,69.2c-1.7,0.7-2.4,2.7-1.6,4.6c0.8,1.9,2.7,2.8,4.3,2.2c1.7-0.7,2.4-2.7,1.6-4.6
		C132.7,69.6,130.8,68.6,129.1,69.2"/>
	<path class="st0" d="M135.8,68.6c-1.2,0.3-1.8,1.6-1.4,3c0.4,1.4,1.6,2.2,2.8,1.9c1.2-0.3,1.8-1.6,1.4-3
		C138.3,69.2,137,68.3,135.8,68.6"/>
	<path class="st0" d="M141.5,69.9c-1.1-0.1-2,0.8-2.1,1.9c-0.1,1.1,0.8,2.1,1.8,2.2c1.1,0.1,2-0.8,2.1-1.9
		C143.4,70.9,142.6,69.9,141.5,69.9"/>
	<path class="st0" d="M146.1,72.5c-0.9-0.3-1.9,0.2-2.3,1.2s0,2.1,0.9,2.4c0.9,0.3,1.9-0.2,2.3-1.2
		C147.4,73.9,146.9,72.8,146.1,72.5"/>
	<path class="st0" d="M149.5,75.8c-0.7-0.6-1.8-0.5-2.6,0.3c-0.7,0.8-0.7,1.9,0,2.6s1.8,0.5,2.6-0.3
		C150.2,77.6,150.2,76.4,149.5,75.8"/>
</g>
<path class="st0" d="M35.4,120.3c0,3.2-2.6,5.8-5.8,5.8c-3.2,0-5.8-2.6-5.8-5.8c0-3.2,2.6-5.8,5.8-5.8S35.4,117.1,35.4,120.3"/>
<path class="st0" d="M126.5,29c0,1.8-1.5,3.3-3.3,3.3c-1.8,0-3.3-1.5-3.3-3.3c0-1.8,1.5-3.3,3.3-3.3C125,25.6,126.5,27.1,126.5,29"
	/>
</svg>
