<svg enable-background="new 0 0 150 150" viewBox="0 0 150 150" xmlns="http://www.w3.org/2000/svg"><g fill="#5cb1b5"><path d="m29.6 32.6c-1.7-3-10.1-7.4-14.6-1.2s-6.3 14.4-5.7 17.8c1.8 10.2 9.7 8.4 9.9 5.2s-.1-4.5 6.7-9.7 5.4-9.1 3.7-12.1z"/><path d="m38.5 32.2c-.8-1.6-2.9-2.2-4.6-1.3-1.8.9-2.6 2.9-1.8 4.5s2.9 2.2 4.6 1.3c1.8-.8 2.6-2.9 1.8-4.5z"/><path d="m29.9 30c.7 1 2.1 1.2 3.3.5 1.2-.8 1.6-2.2.9-3.2s-2.1-1.2-3.3-.5-1.6 2.2-.9 3.2z"/><path d="m26.5 27.6c.9.7 2.1.5 2.8-.4s.6-2.2-.3-2.9-2.1-.5-2.8.4-.5 2.2.3 2.9z"/><path d="m22.6 26.8c.9.3 1.9-.2 2.3-1.2s0-2.1-.9-2.4-1.9.2-2.3 1.2c-.4.9 0 2 .9 2.4z"/><path d="m19.3 27.2c.9 0 1.7-.8 1.7-1.9s-.8-1.9-1.7-2c-.9 0-1.7.8-1.7 1.9s.7 2 1.7 2z"/><path d="m140.1 101.7c2.7-2.1 6.7-9.4 7.3-17 .6-7.7-8.5-10.1-11.8-9.1-3.2 1.1-6.9 3-5.2 11.5 1.8 8.5.6 9.2-1.3 11.7-1.8 2.5 3 9.2 11 2.9"/><path d="m129.1 69.2c-1.7.7-2.4 2.7-1.6 4.6s2.7 2.8 4.3 2.2c1.7-.7 2.4-2.7 1.6-4.6-.7-1.8-2.6-2.8-4.3-2.2"/><path d="m135.8 68.6c-1.2.3-1.8 1.6-1.4 3s1.6 2.2 2.8 1.9 1.8-1.6 1.4-3c-.3-1.3-1.6-2.2-2.8-1.9"/><path d="m141.5 69.9c-1.1-.1-2 .8-2.1 1.9s.8 2.1 1.8 2.2c1.1.1 2-.8 2.1-1.9.1-1.2-.7-2.2-1.8-2.2"/><path d="m146.1 72.5c-.9-.3-1.9.2-2.3 1.2s0 2.1.9 2.4 1.9-.2 2.3-1.2-.1-2.1-.9-2.4"/><path d="m149.5 75.8c-.7-.6-1.8-.5-2.6.3-.7.8-.7 1.9 0 2.6s1.8.5 2.6-.3c.7-.8.7-2 0-2.6"/><path d="m35.4 120.3c0 3.2-2.6 5.8-5.8 5.8s-5.8-2.6-5.8-5.8 2.6-5.8 5.8-5.8 5.8 2.6 5.8 5.8"/><path d="m126.5 29c0 1.8-1.5 3.3-3.3 3.3s-3.3-1.5-3.3-3.3 1.5-3.3 3.3-3.3c1.8-.1 3.3 1.4 3.3 3.3"/></g></svg>