<svg height="1989.261" viewBox="0 0 1060.581 1989.261" width="1060.581" xmlns="http://www.w3.org/2000/svg"><g opacity=".8" transform="translate(-936.195 604.399)"><path d="m706.768 401.085a24.333 24.333 0 0 1 -17.568 29.222 23.586 23.586 0 0 1 -28.691-17.607 24.334 24.334 0 0 1 17.571-29.222 23.587 23.587 0 0 1 28.688 17.608m-52.835 13.265a30.292 30.292 0 0 0 36.842 22.613 31.252 31.252 0 0 0 22.568-37.528 30.292 30.292 0 0 0 -36.843-22.614 31.252 31.252 0 0 0 -22.568 37.528" fill="#fecb40" transform="matrix(-.966 -.259 .259 -.966 1533.771048 1835.888752)"/><path d="m641.163 445.839s-2.142-4.189-11.533-10.818-12.046-23.8-2.1-33.045c9.418-8.747 31.78-5.725 49.454 9.808 18.53 16.285 25.926 33.683 16.3 50.283s-27.755 4.131-32.441-1.075-12.826-10.492-12.826-10.492" fill="#5cb1b5" transform="matrix(-.966 -.259 .259 -.966 1522.909652 1839.559979)"/><path d="m642.107 451.8a25.422 25.422 0 0 1 -15.91 11.487 17.1 17.1 0 0 0 -4.735.491c-9.565 2.4-15.4 12.43-13.036 22.4s12.038 16.1 21.6 13.7a18.329 18.329 0 0 0 13.546-18.545c1.711-4.841 5.908-14.53 12.762-17 0 0 6.152-3.853-3.793-12.888-7.807-7.095-10.437.355-10.437.355" fill="#ffe87d" transform="matrix(-.966 -.259 .259 -.966 1515.082182 1853.349132)"/><path d="m682.306 389.611a13.246 13.246 0 0 1 -9.565 15.908 12.839 12.839 0 0 1 -15.617-9.585 13.246 13.246 0 0 1 9.565-15.907 12.84 12.84 0 0 1 15.617 9.585m-28.761 7.221a16.49 16.49 0 0 0 20.055 12.308 17.012 17.012 0 0 0 12.285-20.429 16.49 16.49 0 0 0 -20.055-12.312 17.012 17.012 0 0 0 -12.285 20.429" fill="#fecb40" transform="matrix(-.391 .921 -.921 -.391 2210.213841 244.437129)"/><path d="m632.077 423.648s-1.166-2.281-6.278-5.889-6.557-12.957-1.141-17.988c5.127-4.762 17.3-3.117 26.921 5.339 10.087 8.865 14.113 18.336 8.875 27.372s-15.109 2.249-17.66-.585a42.213 42.213 0 0 0 -6.986-5.711" fill="#5cb1b5" transform="matrix(-.391 .921 -.921 -.391 2214.605487 267.726215)"/><path d="m626.521 450.243a13.839 13.839 0 0 1 -8.661 6.253 9.31 9.31 0 0 0 -2.578.267 10.071 10.071 0 0 0 -7.1 12.192 9.761 9.761 0 0 0 11.76 7.458 9.977 9.977 0 0 0 7.374-10.1c.931-2.635 3.216-7.909 6.947-9.253 0 0 3.349-2.1-2.065-7.016-4.25-3.862-5.682.193-5.682.193" fill="#ffe87d" transform="matrix(-.391 .921 -.921 -.391 2240.580798 287.711658)"/><path d="m698.822 397.357a20.731 20.731 0 0 1 -14.97 24.9 20.094 20.094 0 0 1 -24.442-15 20.732 20.732 0 0 1 14.97-24.9 20.1 20.1 0 0 1 24.442 15m-45.014 11.3a25.809 25.809 0 0 0 31.392 19.267 26.626 26.626 0 0 0 19.228-31.973 25.808 25.808 0 0 0 -31.389-19.265 26.626 26.626 0 0 0 -19.227 31.973" fill="#fecb40" transform="matrix(-.93969262 -.34202014 .34202014 -.93969262 1869.835561 1448.067555)"/><path d="m638.211 438.63s-1.825-3.569-9.826-9.216-10.263-20.28-1.785-28.154c8.024-7.453 27.075-4.878 42.134 8.356 15.787 13.874 22.088 28.7 13.891 42.84s-23.646 3.52-27.639-.916-10.934-8.938-10.934-8.938" fill="#5cb1b5" transform="matrix(-.93969262 -.34202014 .34202014 -.93969262 1854.838457 1451.718417)"/><path d="m637.044 451.295a21.659 21.659 0 0 1 -13.555 9.786 14.57 14.57 0 0 0 -4.034.418c-8.149 2.046-13.122 10.59-11.106 19.082s10.251 13.719 18.405 11.673a15.616 15.616 0 0 0 11.541-15.8c1.458-4.124 5.033-12.379 10.873-14.482 0 0 5.241-3.283-3.232-10.98-6.652-6.045-8.892.3-8.892.3" fill="#ffe87d" transform="matrix(-.93969262 -.34202014 .34202014 -.93969262 1842.726856 1469.293939)"/><path d="m708.224 401.767a24.993 24.993 0 0 1 -18.048 30.015 24.225 24.225 0 0 1 -29.465-18.082 24.994 24.994 0 0 1 18.047-30.015 24.227 24.227 0 0 1 29.467 18.086m-54.268 13.624a31.114 31.114 0 0 0 37.843 23.223 32.1 32.1 0 0 0 23.18-38.545 31.113 31.113 0 0 0 -37.842-23.226 32.1 32.1 0 0 0 -23.18 38.545" fill="#fecb40" transform="matrix(-.93969262 -.34202014 .34202014 -.93969262 1480.310905 960.210395)"/><path d="m641.7 447.159s-2.2-4.3-11.846-11.111-12.372-24.448-2.152-33.941c9.673-8.985 32.641-5.88 50.795 10.074 19.033 16.726 26.629 34.6 16.746 51.647s-28.507 4.243-33.321-1.1-13.182-10.776-13.182-10.776" fill="#5cb1b5" transform="matrix(-.93969262 -.34202014 .34202014 -.93969262 1469.878962 962.750657)"/><path d="m643.035 451.893a26.111 26.111 0 0 1 -16.341 11.8 17.568 17.568 0 0 0 -4.864.5c-9.824 2.467-15.819 12.767-13.389 23s12.364 16.539 22.189 14.072a18.826 18.826 0 0 0 13.913-19.048c1.757-4.972 6.068-14.924 13.109-17.459 0 0 6.319-3.958-3.9-13.237-8.019-7.287-10.72.365-10.72.365" fill="#ffe87d" transform="matrix(-.93969262 -.34202014 .34202014 -.93969262 1461.453441 974.976253)"/><path d="m690.664 393.531a17.034 17.034 0 0 1 -12.3 20.456 16.51 16.51 0 0 1 -20.082-12.326 17.034 17.034 0 0 1 12.3-20.456 16.511 16.511 0 0 1 20.083 12.326m-36.986 9.286a21.205 21.205 0 0 0 25.79 15.829 21.877 21.877 0 0 0 15.8-26.27 21.2 21.2 0 0 0 -25.791-15.829 21.877 21.877 0 0 0 -15.8 26.27" fill="#fecb40" transform="matrix(-.22495105 .97437006 -.97437006 -.22495105 2162.881048 791.395078)"/><path d="m635.181 431.229s-1.5-2.933-8.073-7.573-8.432-16.663-1.467-23.132c6.593-6.123 22.246-4.008 34.619 6.866 12.972 11.4 18.148 23.579 11.413 35.2s-19.429 2.892-22.709-.753a54.288 54.288 0 0 0 -8.984-7.344" fill="#5cb1b5" transform="matrix(-.22495105 .97437006 -.97437006 -.22495105 2169.772626 809.648171)"/><path d="m631.846 450.775a17.8 17.8 0 0 1 -11.137 8.041 11.972 11.972 0 0 0 -3.315.344 12.951 12.951 0 0 0 -9.125 15.679 12.553 12.553 0 0 0 15.123 9.591 12.831 12.831 0 0 0 9.482-12.982c1.2-3.389 4.136-10.171 8.934-11.9 0 0 4.306-2.7-2.655-9.022-5.465-4.967-7.306.249-7.306.249" fill="#ffe87d" transform="matrix(-.22495105 .97437006 -.97437006 -.22495105 2193.689384 822.136342)"/><path d="m685.472 391.1a14.681 14.681 0 0 1 -10.6 17.631 14.23 14.23 0 0 1 -17.309-10.631 14.681 14.681 0 0 1 10.6-17.631 14.231 14.231 0 0 1 17.309 10.631m-31.877 8a18.276 18.276 0 0 0 22.228 13.643 18.855 18.855 0 0 0 13.617-22.643 18.276 18.276 0 0 0 -22.228-13.643 18.855 18.855 0 0 0 -13.612 22.643" fill="#fecb40" transform="matrix(-.93969262 -.34202014 .34202014 -.93969262 1460.978942 1313.851253)"/><path d="m633.252 426.52s-1.292-2.528-6.958-6.526-7.268-14.361-1.264-19.937c5.682-5.278 19.173-3.454 29.837 5.917 11.18 9.825 15.642 20.322 9.836 30.337s-16.745 2.493-19.572-.649a46.788 46.788 0 0 0 -7.743-6.33" fill="#5cb1b5" transform="matrix(-.93969262 -.34202014 .34202014 -.93969262 1439.502351 1319.080169)"/><path d="m628.538 450.445a15.338 15.338 0 0 1 -9.6 6.93 10.319 10.319 0 0 0 -2.857.3 11.162 11.162 0 0 0 -7.865 13.513 10.819 10.819 0 0 0 13.034 8.266 11.058 11.058 0 0 0 8.172-11.189c1.032-2.921 3.564-8.766 7.7-10.255 0 0 3.712-2.325-2.288-7.776-4.71-4.28-6.3.214-6.3.214" fill="#ffe87d" transform="matrix(-.93969262 -.34202014 .34202014 -.93969262 1422.156509 1344.250498)"/><path d="m701.853 398.779a22.105 22.105 0 0 1 -15.963 26.547 21.426 21.426 0 0 1 -26.061-16 22.106 22.106 0 0 1 15.962-26.547 21.427 21.427 0 0 1 26.062 16m-48 12.05a27.519 27.519 0 0 0 33.469 20.542 28.391 28.391 0 0 0 20.5-34.092 27.518 27.518 0 0 0 -33.47-20.542 28.39 28.39 0 0 0 -20.5 34.092" fill="#fecb40" transform="matrix(.259 .966 -.966 .259 2139.908666 -276.768516)"/><path d="m639.337 441.38s-1.946-3.806-10.477-9.827-10.943-21.624-1.9-30.019c8.556-7.947 28.87-5.2 44.926 8.91 16.834 14.794 23.552 30.6 14.811 45.68s-25.214 3.753-29.471-.977-11.659-9.531-11.659-9.531" fill="#5cb1b5" transform="matrix(.259 .966 -.966 .259 2150.366183 -267.578818)"/><path d="m638.975 451.488a23.094 23.094 0 0 1 -14.453 10.435 15.538 15.538 0 0 0 -4.3.446c-8.689 2.182-13.991 11.292-11.842 20.347s10.934 14.628 19.62 12.446a16.651 16.651 0 0 0 12.306-16.847c1.554-4.4 5.367-13.2 11.594-15.442 0 0 5.589-3.5-3.446-11.708-7.092-6.445-9.482.323-9.482.323" fill="#ffe87d" transform="matrix(.259 .966 -.966 .259 2169.618066 -267.725909)"/><path d="m708.224 401.767a24.993 24.993 0 0 1 -18.048 30.015 24.225 24.225 0 0 1 -29.465-18.082 24.994 24.994 0 0 1 18.047-30.015 24.227 24.227 0 0 1 29.467 18.086m-54.268 13.624a31.114 31.114 0 0 0 37.843 23.223 32.1 32.1 0 0 0 23.18-38.545 31.113 31.113 0 0 0 -37.842-23.226 32.1 32.1 0 0 0 -23.18 38.545" fill="#fecb40" transform="matrix(-.259 -.966 .966 -.259 1071.21753 966.07922)"/><path d="m641.7 447.159s-2.2-4.3-11.846-11.111-12.372-24.448-2.152-33.941c9.673-8.985 32.641-5.88 50.795 10.074 19.033 16.726 26.629 34.6 16.746 51.647s-28.507 4.243-33.321-1.1-13.182-10.776-13.182-10.776" fill="#5cb1b5" transform="matrix(-.259 -.966 .966 -.259 1063.151094 958.991321)"/><path d="m643.035 451.893a26.111 26.111 0 0 1 -16.341 11.8 17.568 17.568 0 0 0 -4.864.5c-9.824 2.467-15.819 12.767-13.389 23s12.364 16.539 22.189 14.072a18.826 18.826 0 0 0 13.913-19.048c1.757-4.972 6.068-14.924 13.109-17.459 0 0 6.319-3.958-3.9-13.237-8.019-7.287-10.72.365-10.72.365" fill="#ffe87d" transform="matrix(-.259 -.966 .966 -.259 1048.30205 959.104175)"/><path d="m682.208 389.565a13.2 13.2 0 0 1 -9.533 15.854 12.8 12.8 0 0 1 -15.564-9.553 13.2 13.2 0 0 1 9.532-15.854 12.8 12.8 0 0 1 15.564 9.553m-28.664 7.2a16.434 16.434 0 0 0 19.987 12.268 16.955 16.955 0 0 0 12.244-20.359 16.434 16.434 0 0 0 -19.987-12.274 16.955 16.955 0 0 0 -12.243 20.359" fill="#fecb40" transform="matrix(-.88294759 .46947156 -.46947156 -.88294759 2001.209479 1294.096571)"/><path d="m632.04 423.559s-1.162-2.273-6.257-5.869-6.535-12.913-1.137-17.927c5.109-4.746 17.241-3.106 26.829 5.321 10.053 8.835 14.065 18.274 8.845 27.28s-15.057 2.241-17.6-.583a42.07 42.07 0 0 0 -6.963-5.692" fill="#5cb1b5" transform="matrix(-.88294759 .46947156 -.46947156 -.88294759 1989.950505 1314.992226)"/><path d="m626.458 450.237a13.792 13.792 0 0 1 -8.632 6.232 9.277 9.277 0 0 0 -2.569.266 10.037 10.037 0 0 0 -7.072 12.151 9.728 9.728 0 0 0 11.72 7.433 9.944 9.944 0 0 0 7.349-10.061c.928-2.626 3.205-7.883 6.924-9.222 0 0 3.338-2.09-2.058-6.992-4.236-3.849-5.662.193-5.662.193" fill="#ffe87d" transform="matrix(-.88294759 .46947156 -.46947156 -.88294759 1997.572827 1346.917718)"/><path d="m716.7 405.741a28.833 28.833 0 0 1 -20.82 34.626 27.947 27.947 0 0 1 -33.997-20.867 28.834 28.834 0 0 1 20.82-34.626 27.948 27.948 0 0 1 33.997 20.867m-62.6 15.718a35.894 35.894 0 0 0 43.655 26.794 37.031 37.031 0 0 0 26.742-44.467 35.893 35.893 0 0 0 -43.656-26.794 37.031 37.031 0 0 0 -26.741 44.467" fill="#fecb40" transform="matrix(-.208 .978 -.978 -.208 2500.2494 343.81485)"/><path d="m644.85 454.844s-2.538-4.964-13.666-12.818-14.273-28.2-2.483-39.155c11.159-10.365 37.656-6.784 58.6 11.622 21.957 19.3 30.72 39.911 19.319 59.581s-32.887 4.9-38.44-1.274-15.207-12.431-15.207-12.431" fill="#5cb1b5" transform="matrix(-.208 .978 -.978 -.208 2502.65135 349.858042)"/><path d="m648.432 452.433a30.123 30.123 0 0 1 -18.852 13.611 20.264 20.264 0 0 0 -5.611.582c-11.334 2.846-18.25 14.728-15.446 26.539s14.264 19.08 25.6 16.234c9.87-2.476 16.381-11.807 16.051-21.974 2.027-5.736 7-17.217 15.122-20.141 0 0 7.289-4.566-4.494-15.271-9.251-8.407-12.367.421-12.367.421" fill="#ffe87d" transform="matrix(-.208 .978 -.978 -.208 2510.694136 353.881896)"/><path d="m722.876 408.639a31.633 31.633 0 0 1 -22.843 37.99 30.662 30.662 0 0 1 -37.295-22.891 31.635 31.635 0 0 1 22.842-37.99 30.663 30.663 0 0 1 37.3 22.891m-68.686 17.244a39.381 39.381 0 0 0 47.9 29.4c21.328-5.355 34.463-27.2 29.339-48.787a39.38 39.38 0 0 0 -47.9-29.4c-21.327 5.354-34.462 27.2-29.338 48.787" fill="#fecb40" transform="matrix(-.15643447 -.98768834 .98768834 -.15643447 714.590744 504.620359)"/><path d="m647.145 460.45s-2.785-5.45-14.993-14.063-15.66-30.944-2.724-42.959c12.243-11.372 41.314-7.443 64.291 12.751 24.09 21.171 33.7 43.789 21.2 65.369s-36.082 5.371-42.174-1.4-16.684-13.639-16.684-13.639" fill="#5cb1b5" transform="matrix(-.15643447 -.98768834 .98768834 -.15643447 712.274331 502.108805)"/><path d="m652.37 452.827a33.049 33.049 0 0 1 -20.683 14.933 22.232 22.232 0 0 0 -6.156.638c-12.435 3.122-20.022 16.159-16.946 29.117s15.649 20.934 28.084 17.811c10.829-2.717 17.972-12.954 17.61-24.109 2.224-6.293 7.68-18.889 16.591-22.1 0 0 8-5.009-4.931-16.754-10.149-9.223-13.569.462-13.569.462" fill="#ffe87d" transform="matrix(-.15643447 -.98768834 .98768834 -.15643447 707.571632 501.649818)"/><path d="m708.224 401.767a24.993 24.993 0 0 1 -18.048 30.015 24.225 24.225 0 0 1 -29.465-18.082 24.994 24.994 0 0 1 18.047-30.015 24.227 24.227 0 0 1 29.467 18.086m-54.268 13.624a31.114 31.114 0 0 0 37.843 23.223 32.1 32.1 0 0 0 23.18-38.545 31.113 31.113 0 0 0 -37.842-23.226 32.1 32.1 0 0 0 -23.18 38.545" fill="#fecb40" transform="matrix(.99026807 .1391731 -.1391731 .99026807 1242.385304 -741.690323)"/><path d="m641.7 447.159s-2.2-4.3-11.846-11.111-12.372-24.448-2.152-33.941c9.673-8.985 32.641-5.88 50.795 10.074 19.033 16.726 26.629 34.6 16.746 51.647s-28.507 4.243-33.321-1.1-13.182-10.776-13.182-10.776" fill="#5cb1b5" transform="matrix(.99026807 .1391731 -.1391731 .99026807 1252.061134 -746.343997)"/><path d="m643.035 451.893a26.111 26.111 0 0 1 -16.341 11.8 17.568 17.568 0 0 0 -4.864.5c-9.824 2.467-15.819 12.767-13.389 23s12.364 16.539 22.189 14.072a18.826 18.826 0 0 0 13.913-19.048c1.757-4.972 6.068-14.924 13.109-17.459 0 0 6.319-3.958-3.9-13.237-8.019-7.287-10.72.365-10.72.365" fill="#ffe87d" transform="matrix(.99026807 .1391731 -.1391731 .99026807 1257.760693 -760.054199)"/><path d="m707.839 401.587a24.818 24.818 0 0 1 -17.921 29.805 24.056 24.056 0 0 1 -29.26-17.959 24.819 24.819 0 0 1 17.921-29.8 24.057 24.057 0 0 1 29.26 17.959m-53.888 13.529a30.9 30.9 0 0 0 37.576 23.063 31.875 31.875 0 0 0 23.019-38.284 30.9 30.9 0 0 0 -37.577-23.063 31.875 31.875 0 0 0 -23.018 38.276" fill="#fecb40" transform="matrix(.454 .891 -.891 .454 1936.418762 -664.390227)"/><path d="m641.56 446.809s-2.185-4.273-11.763-11.033-12.286-24.277-2.137-33.7c9.605-8.922 32.413-5.839 50.44 10 18.9 16.609 26.442 34.354 16.629 51.286s-28.308 4.214-33.088-1.1-13.09-10.7-13.09-10.7" fill="#5cb1b5" transform="matrix(.454 .891 -.891 .454 1945.947789 -659.039167)"/><path d="m642.789 451.869a25.929 25.929 0 0 1 -16.227 11.716 17.445 17.445 0 0 0 -4.83.5c-9.756 2.449-15.709 12.677-13.3 22.844s12.278 16.424 22.034 13.974a18.694 18.694 0 0 0 13.816-18.915c1.745-4.937 6.026-14.82 13.017-17.337 0 0 6.274-3.93-3.869-13.145-7.963-7.236-10.645.362-10.645.362" fill="#ffe87d" transform="matrix(.454 .891 -.891 .454 1960.70879 -662.29226)"/><path d="m697.791 396.874a20.264 20.264 0 0 1 -14.633 24.336 19.642 19.642 0 0 1 -23.891-14.664 20.265 20.265 0 0 1 14.633-24.336 19.643 19.643 0 0 1 23.891 14.664m-44 11.047a25.227 25.227 0 0 0 30.681 18.831 26.026 26.026 0 0 0 18.795-31.252 25.226 25.226 0 0 0 -30.682-18.831 26.026 26.026 0 0 0 -18.794 31.253" fill="#fecb40" transform="matrix(.819 -.574 .574 .819 698.632601 -508.527746)"/><path d="m637.828 437.695s-1.784-3.489-9.6-9.009-10.031-19.823-1.745-27.519c7.843-7.285 26.465-4.768 41.184 8.168 15.432 13.562 21.59 28.051 13.578 41.875s-23.114 3.44-27.016-.9-10.688-8.737-10.688-8.737" fill="#5cb1b5" transform="matrix(.819 -.574 .574 .819 704.424765 -523.390748)"/><path d="m636.387 451.229a21.171 21.171 0 0 1 -13.25 9.566 14.245 14.245 0 0 0 -3.943.409c-7.966 2-12.826 10.351-10.856 18.652a14.933 14.933 0 0 0 17.991 11.409 15.264 15.264 0 0 0 11.281-15.444c1.425-4.031 4.92-12.1 10.628-14.156 0 0 5.123-3.209-3.159-10.733-6.5-5.908-8.692.3-8.692.3" fill="#ffe87d" transform="matrix(.819 -.574 .574 .819 696.716218 -544.059067)"/><path d="m717.679 406.2a29.278 29.278 0 0 1 -21.142 35.161 28.379 28.379 0 0 1 -34.518-21.187 29.279 29.279 0 0 1 21.141-35.161 28.38 28.38 0 0 1 34.519 21.187m-63.572 15.96a36.449 36.449 0 0 0 44.329 27.208 37.6 37.6 0 0 0 27.155-45.154 36.447 36.447 0 0 0 -44.33-27.208 37.6 37.6 0 0 0 -27.154 45.154" fill="#fecb40" transform="matrix(-.819 .574 -.574 -.819 2452.295624 367.511896)"/><path d="m645.215 455.736s-2.578-5.041-13.877-13.016-14.494-28.64-2.521-39.76c11.332-10.525 38.238-6.889 59.5 11.8 22.3 19.594 31.194 40.528 19.617 60.5s-33.4 4.971-39.034-1.294-15.442-12.623-15.442-12.623" fill="#5cb1b5" transform="matrix(-.819 .574 -.574 -.819 2450.111638 373.115557)"/><path d="m649.059 452.5a30.588 30.588 0 0 1 -19.143 13.821 20.579 20.579 0 0 0 -5.7.591c-11.509 2.89-18.531 14.956-15.685 26.949s14.484 19.375 25.993 16.485c10.023-2.515 16.634-11.989 16.3-22.314 2.058-5.825 7.109-17.483 15.356-20.452 0 0 7.4-4.636-4.564-15.507-9.394-8.537-12.558.427-12.558.427" fill="#ffe87d" transform="matrix(-.819 .574 -.574 -.819 2453.017842 380.907677)"/><path d="m712.578 403.809a26.966 26.966 0 0 1 -19.472 32.385 26.138 26.138 0 0 1 -31.792-19.514 26.967 26.967 0 0 1 19.471-32.38 26.139 26.139 0 0 1 31.793 19.514m-58.552 14.7a33.57 33.57 0 0 0 40.828 25.059 34.634 34.634 0 0 0 25.01-41.588 33.569 33.569 0 0 0 -40.829-25.059 34.633 34.633 0 0 0 -25.01 41.588" fill="#fecb40" transform="matrix(-.208 .978 -.978 -.208 1759.439424 78.171266)"/><path d="m643.32 451.108s-2.374-4.643-12.781-11.988-13.349-26.378-2.322-36.621c10.437-9.694 35.218-6.345 54.8 10.869 20.535 18.047 28.731 37.328 18.068 55.724s-30.758 4.578-35.951-1.192-14.223-11.626-14.223-11.626" fill="#5cb1b5" transform="matrix(-.208 .978 -.978 -.208 1762.601176 86.126122)"/><path d="m645.808 452.171a28.173 28.173 0 0 1 -17.631 12.73 18.952 18.952 0 0 0 -5.248.544c-10.6 2.661-17.068 13.775-14.446 24.821s13.34 17.845 23.94 15.183c9.231-2.316 15.32-11.043 15.012-20.552 1.9-5.365 6.547-16.1 14.143-18.837 0 0 6.817-4.27-4.2-14.282-8.652-7.862-11.567.394-11.567.394" fill="#ffe87d" transform="matrix(-.208 .978 -.978 -.208 1773.188446 91.423056)"/><path d="m690.664 393.531a17.034 17.034 0 0 1 -12.3 20.456 16.51 16.51 0 0 1 -20.082-12.326 17.034 17.034 0 0 1 12.3-20.456 16.511 16.511 0 0 1 20.083 12.326m-36.986 9.286a21.205 21.205 0 0 0 25.79 15.829 21.877 21.877 0 0 0 15.8-26.27 21.2 21.2 0 0 0 -25.791-15.829 21.877 21.877 0 0 0 -15.8 26.27" fill="#fecb40" transform="matrix(-.988 -.156 .156 -.988 1745.298724 1505.709588)"/><path d="m635.181 431.229s-1.5-2.933-8.073-7.573-8.432-16.663-1.467-23.132c6.593-6.123 22.246-4.008 34.619 6.866 12.972 11.4 18.148 23.579 11.413 35.2s-19.429 2.892-22.709-.753a54.288 54.288 0 0 0 -8.984-7.344" fill="#5cb1b5" transform="matrix(-.988 -.156 .156 -.988 1727.570468 1513.868076)"/><path d="m631.846 450.775a17.8 17.8 0 0 1 -11.137 8.041 11.972 11.972 0 0 0 -3.315.344 12.951 12.951 0 0 0 -9.125 15.679 12.553 12.553 0 0 0 15.123 9.591 12.831 12.831 0 0 0 9.482-12.982c1.2-3.389 4.136-10.171 8.934-11.9 0 0 4.306-2.7-2.655-9.022-5.465-4.967-7.306.249-7.306.249" fill="#ffe87d" transform="matrix(-.988 -.156 .156 -.988 1716.790296 1538.608792)"/><path d="m690.664 393.531a17.034 17.034 0 0 1 -12.3 20.456 16.51 16.51 0 0 1 -20.082-12.326 17.034 17.034 0 0 1 12.3-20.456 16.511 16.511 0 0 1 20.083 12.326m-36.986 9.286a21.205 21.205 0 0 0 25.79 15.829 21.877 21.877 0 0 0 15.8-26.27 21.2 21.2 0 0 0 -25.791-15.829 21.877 21.877 0 0 0 -15.8 26.27" fill="#fecb40" transform="matrix(-.988 -.156 .156 -.988 2172.998724 478.709588)"/><path d="m635.181 431.229s-1.5-2.933-8.073-7.573-8.432-16.663-1.467-23.132c6.593-6.123 22.246-4.008 34.619 6.866 12.972 11.4 18.148 23.579 11.413 35.2s-19.429 2.892-22.709-.753a54.288 54.288 0 0 0 -8.984-7.344" fill="#5cb1b5" transform="matrix(-.988 -.156 .156 -.988 2155.270468 486.868076)"/><path d="m631.846 450.775a17.8 17.8 0 0 1 -11.137 8.041 11.972 11.972 0 0 0 -3.315.344 12.951 12.951 0 0 0 -9.125 15.679 12.553 12.553 0 0 0 15.123 9.591 12.831 12.831 0 0 0 9.482-12.982c1.2-3.389 4.136-10.171 8.934-11.9 0 0 4.306-2.7-2.655-9.022-5.465-4.967-7.306.249-7.306.249" fill="#ffe87d" transform="matrix(-.988 -.156 .156 -.988 2144.490296 511.608792)"/><path d="m682.306 389.611a13.246 13.246 0 0 1 -9.565 15.908 12.839 12.839 0 0 1 -15.617-9.585 13.246 13.246 0 0 1 9.565-15.907 12.84 12.84 0 0 1 15.617 9.585m-28.761 7.221a16.49 16.49 0 0 0 20.055 12.308 17.012 17.012 0 0 0 12.285-20.429 16.49 16.49 0 0 0 -20.055-12.312 17.012 17.012 0 0 0 -12.285 20.429" fill="#fecb40" transform="matrix(-1 .017 -.017 -1 2346.172 1442.482833)"/><path d="m632.077 423.648s-1.166-2.281-6.278-5.889-6.557-12.957-1.141-17.988c5.127-4.762 17.3-3.117 26.921 5.339 10.087 8.865 14.113 18.336 8.875 27.372s-15.109 2.249-17.66-.585a42.213 42.213 0 0 0 -6.986-5.711" fill="#5cb1b5" transform="matrix(-1 .017 -.017 -1 2326.685312 1455.953903)"/><path d="m626.521 450.243a13.839 13.839 0 0 1 -8.661 6.253 9.31 9.31 0 0 0 -2.578.267 10.071 10.071 0 0 0 -7.1 12.192 9.761 9.761 0 0 0 11.76 7.458 9.977 9.977 0 0 0 7.374-10.1c.931-2.635 3.216-7.909 6.947-9.253 0 0 3.349-2.1-2.065-7.016-4.25-3.862-5.682.193-5.682.193" fill="#ffe87d" transform="matrix(-1 .017 -.017 -1 2318.983246 1487.796)"/><path d="m682.306 389.611a13.246 13.246 0 0 1 -9.565 15.908 12.839 12.839 0 0 1 -15.617-9.585 13.246 13.246 0 0 1 9.565-15.907 12.84 12.84 0 0 1 15.617 9.585m-28.761 7.221a16.49 16.49 0 0 0 20.055 12.308 17.012 17.012 0 0 0 12.285-20.429 16.49 16.49 0 0 0 -20.055-12.312 17.012 17.012 0 0 0 -12.285 20.429" fill="#fecb40" transform="matrix(-.17364818 .98480775 -.98480775 -.17364818 2360.74964 617.264639)"/><path d="m632.077 423.648s-1.166-2.281-6.278-5.889-6.557-12.957-1.141-17.988c5.127-4.762 17.3-3.117 26.921 5.339 10.087 8.865 14.113 18.336 8.875 27.372s-15.109 2.249-17.66-.585a42.213 42.213 0 0 0 -6.986-5.711" fill="#5cb1b5" transform="matrix(-.17364818 .98480775 -.98480775 -.17364818 2370.263469 638.956242)"/><path d="m626.521 450.243a13.839 13.839 0 0 1 -8.661 6.253 9.31 9.31 0 0 0 -2.578.267 10.071 10.071 0 0 0 -7.1 12.192 9.761 9.761 0 0 0 11.76 7.458 9.977 9.977 0 0 0 7.374-10.1c.931-2.635 3.216-7.909 6.947-9.253 0 0 3.349-2.1-2.065-7.016-4.25-3.862-5.682.193-5.682.193" fill="#ffe87d" transform="matrix(-.17364818 .98480775 -.98480775 -.17364818 2400.05281 652.577037)"/><path d="m682.306 389.611a13.246 13.246 0 0 1 -9.565 15.908 12.839 12.839 0 0 1 -15.617-9.585 13.246 13.246 0 0 1 9.565-15.907 12.84 12.84 0 0 1 15.617 9.585m-28.761 7.221a16.49 16.49 0 0 0 20.055 12.308 17.012 17.012 0 0 0 12.285-20.429 16.49 16.49 0 0 0 -20.055-12.312 17.012 17.012 0 0 0 -12.285 20.429" fill="#fecb40" transform="matrix(-.34202014 -.93969262 .93969262 -.34202014 887.325805 240.988348)"/><path d="m632.077 423.648s-1.166-2.281-6.278-5.889-6.557-12.957-1.141-17.988c5.127-4.762 17.3-3.117 26.921 5.339 10.087 8.865 14.113 18.336 8.875 27.372s-15.109 2.249-17.66-.585a42.213 42.213 0 0 0 -6.986-5.711" fill="#5cb1b5" transform="matrix(-.34202014 -.93969262 .93969262 -.34202014 868.240786 226.959783)"/><path d="m626.521 450.243a13.839 13.839 0 0 1 -8.661 6.253 9.31 9.31 0 0 0 -2.578.267 10.071 10.071 0 0 0 -7.1 12.192 9.761 9.761 0 0 0 11.76 7.458 9.977 9.977 0 0 0 7.374-10.1c.931-2.635 3.216-7.909 6.947-9.253 0 0 3.349-2.1-2.065-7.016-4.25-3.862-5.682.193-5.682.193" fill="#ffe87d" transform="matrix(-.34202014 -.93969262 .93969262 -.34202014 835.632062 230.058499)"/></g></svg>