<svg enable-background="new 0 0 20 20" viewBox="0 0 20 20" xmlns="http://www.w3.org/2000/svg"><path d="m10 .3999634c-5.3019409 0-9.5999756 4.2980957-9.5999756 9.6000366s4.2980347 9.5999756 9.5999756 9.5999756 9.5999756-4.2980347 9.5999756-9.5999756-4.2980347-9.6000366-9.5999756-9.6000366zm-3.7686768 6.6000366h7.5195923c.3988037 0 .1935425.5117188-.0234985.6430664-.217041.1308594-3.2213135 1.9470215-3.333313 2.0144043s-.256958.0996094-.402771.0996094c-.145874 0-.2908325-.0322266-.402771-.0996094-.1119995-.0673828-3.116333-1.8835449-3.333374-2.0144043-.21698-.1313476-.4223023-.6430664-.0238648-.6430664zm7.7686768 5.5c0 .2099609-.251709.5-.444458.5h-7.111084c-.192749 0-.444458-.2900391-.444458-.5 0 0 0-3.5544434 0-3.6467285 0-.0917969-.001709-.2114258.171875-.109375.246521.1445312 3.265625 1.9250488 3.416687 2.013916.151001.0888672.256897.0995483.402771.0995483.145813 0 .251709-.0106812.402771-.0995483s3.1875-1.8688965 3.434021-2.0134277c.173584-.1020508.171875.0175781.171875.109375z" fill="#fff"/></svg>